<?xml version="1.0" encoding="UTF-8" standalone="no"?>
<!-- Created with Inkscape (http://www.inkscape.org/) -->

<svg
   xmlns:ns1="http://www.iki.fi/pav/software/textext/"
   xmlns:dc="http://purl.org/dc/elements/1.1/"
   xmlns:cc="http://creativecommons.org/ns#"
   xmlns:rdf="http://www.w3.org/1999/02/22-rdf-syntax-ns#"
   xmlns:svg="http://www.w3.org/2000/svg"
   xmlns="http://www.w3.org/2000/svg"
   xmlns:sodipodi="http://sodipodi.sourceforge.net/DTD/sodipodi-0.dtd"
   xmlns:inkscape="http://www.inkscape.org/namespaces/inkscape"
   width="297mm"
   height="160mm"
   viewBox="0 0 297 160"
   version="1.1"
   id="SVGRoot"
   inkscape:version="0.92.4 (5da689c313, 2019-01-14)"
   sodipodi:docname="レオロジーの関係.svg"
   inkscape:export-filename="D:\Dropbox\セミナー関連\技術情報協会\2019_5_レオロジー\fig\fig_1\関係式.png"
   inkscape:export-xdpi="600"
   inkscape:export-ydpi="600">
  <defs
     id="defs5274" />
  <sodipodi:namedview
     id="base"
     pagecolor="#ffffff"
     bordercolor="#666666"
     borderopacity="1.0"
     inkscape:pageopacity="1"
     inkscape:pageshadow="2"
     inkscape:zoom="0.99674932"
     inkscape:cx="570.61269"
     inkscape:cy="337.94087"
     inkscape:document-units="mm"
     inkscape:current-layer="layer1"
     showgrid="false"
     inkscape:window-width="1600"
     inkscape:window-height="1137"
     inkscape:window-x="-8"
     inkscape:window-y="-8"
     inkscape:window-maximized="1"
     inkscape:pagecheckerboard="false" />
  <metadata
     id="metadata5277">
    <rdf:RDF>
      <cc:Work
         rdf:about="">
        <dc:format>image/svg+xml</dc:format>
        <dc:type
           rdf:resource="http://purl.org/dc/dcmitype/StillImage" />
        <dc:title></dc:title>
      </cc:Work>
    </rdf:RDF>
  </metadata>
  <g
     inkscape:label="レイヤー 1"
     inkscape:groupmode="layer"
     id="layer1"
     transform="translate(0,-50)">
    <g
       id="g3632"
       style="fill:#000000;fill-opacity:1"
       ns1:jacobian_sqrt="1.411111"
       inkscapeversion="0.92.4"
       ns1:alignment="middle center"
       ns1:scale="4.0"
       ns1:preamble="C:\\Users\\h_sasaki\\AppData\\Roaming\\inkscape\\extensions\\textext\\luatex.tex"
       ns1:text="\\begin{align*}\n    \\begin{cases}\n    \\text{\\gt{\xe5\xbf\x9c\xe5\x8a\x9b} }\\mathrm{[Pa]} = \\dfrac{\\mathrm{N}}{\\mathrm{m}^2} =\\dfrac{\\text{\\gt{\xe5\x8a\x9b}}}{\\text{\\gt{\xe9\x9d\xa2\xe7\xa9\x8d}}} \\\\[10pt]\n    \\text{\\gt{\xe6\xad\xaa\xe3\x81\xbf\xef\xbc\x88\xe7\x84\xa1\xe6\xac\xa1\xe5\x85\x83\xef\xbc\x89}} = \\dfrac{\\mathrm{m}}{\\mathrm{m}} = \\dfrac{\\text{\\gt{\xe5\xa4\x89\xe5\xbd\xa2\xe9\x87\x8f}}}{\\text{\\gt{\xe5\x85\x83\xe3\x81\xae\xe9\x95\xb7\xe3\x81\x95}}} \\\\[10pt]\n    \\text{\\gt{\xe6\x99\x82\xe9\x96\x93} } \\mathrm{[s]} = \\mathrm{sec} = \\dfrac{1}{\\text{\\gt{\xe5\x91\xa8\xe6\xb3\xa2\xe6\x95\xb0}}}\n    \\end{cases}\n\\end{align*}"
       ns1:pdfconverter="pdf2svg"
       ns1:texconverter="lualatex"
       ns1:version="0.10.1"
       transform="matrix(1.411111,0,0,1.411111,-264.74107,-133.16326)"
       inkscape:export-xdpi="600"
       inkscape:export-ydpi="600">
      <g
         style="fill:#000000;fill-opacity:1"
         id="surface1">
        <g
           id="g3415"
           style="fill:#000000;fill-opacity:1">
          <path
             id="path3413"
             transform="translate(225.464,147.136)"
             d="M 5.03125,4.515625 C 5.03125,3.703125 5.25,1.796875 7.015625,0.53125 7.140625,0.4375 7.15625,0.421875 7.15625,0.25 7.15625,0.015625 7.140625,0.015625 6.890625,0.015625 h -0.15625 c -2.140625,1.15625 -2.90625,3.03125 -2.90625,4.5 v 4.28125 c 0,0.265625 0.015625,0.28125 0.28125,0.28125 H 4.75 c 0.265625,0 0.28125,-0.015625 0.28125,-0.28125 z m 0,0"
             style="fill:#000000;fill-opacity:1;stroke:none;stroke-width:0"
             inkscape:connector-curvature="0" />
        </g>
        <g
           id="g3419"
           style="fill:#000000;fill-opacity:1">
          <path
             id="path3417"
             transform="translate(225.464,156.103)"
             d="M 5.03125,0.171875 C 5.03125,-0.09375 5.015625,-0.09375 4.75,-0.09375 H 4.109375 c -0.265625,0 -0.28125,0 -0.28125,0.265625 v 2.65625 c 0,0.25 0.015625,0.265625 0.28125,0.265625 H 4.75 c 0.265625,0 0.28125,-0.015625 0.28125,-0.265625 z m 0,0"
             style="fill:#000000;fill-opacity:1;stroke:none;stroke-width:0"
             inkscape:connector-curvature="0" />
        </g>
        <g
           id="g3423"
           style="fill:#000000;fill-opacity:1">
          <path
             id="path3421"
             transform="translate(225.464,159.092)"
             d="M 5.03125,0.171875 C 5.03125,-0.09375 5.015625,-0.09375 4.75,-0.09375 H 4.109375 c -0.265625,0 -0.28125,0 -0.28125,0.265625 v 2.65625 c 0,0.25 0.015625,0.265625 0.28125,0.265625 H 4.75 c 0.265625,0 0.28125,-0.015625 0.28125,-0.265625 z m 0,0"
             style="fill:#000000;fill-opacity:1;stroke:none;stroke-width:0"
             inkscape:connector-curvature="0" />
        </g>
        <g
           id="g3427"
           style="fill:#000000;fill-opacity:1">
          <path
             id="path3425"
             transform="translate(225.464,162.08)"
             d="M 5.03125,0.171875 C 5.03125,-0.09375 5.015625,-0.09375 4.75,-0.09375 H 4.109375 c -0.265625,0 -0.28125,0 -0.28125,0.265625 v 2.65625 c 0,0.25 0.015625,0.265625 0.28125,0.265625 H 4.75 c 0.265625,0 0.28125,-0.015625 0.28125,-0.265625 z m 0,0"
             style="fill:#000000;fill-opacity:1;stroke:none;stroke-width:0"
             inkscape:connector-curvature="0" />
        </g>
        <g
           id="g3431"
           style="fill:#000000;fill-opacity:1">
          <path
             id="path3429"
             transform="translate(225.464,165.069)"
             d="M 5.03125,0.171875 C 5.03125,-0.09375 5.015625,-0.09375 4.75,-0.09375 H 4.109375 c -0.265625,0 -0.28125,0 -0.28125,0.265625 v 2.65625 c 0,0.25 0.015625,0.265625 0.28125,0.265625 H 4.75 c 0.265625,0 0.28125,-0.015625 0.28125,-0.265625 z m 0,0"
             style="fill:#000000;fill-opacity:1;stroke:none;stroke-width:0"
             inkscape:connector-curvature="0" />
        </g>
        <g
           id="g3435"
           style="fill:#000000;fill-opacity:1">
          <path
             id="path3433"
             transform="translate(225.464,168.058)"
             d="M 5.03125,0.171875 C 5.03125,-0.09375 5.015625,-0.09375 4.75,-0.09375 H 4.109375 c -0.265625,0 -0.28125,0 -0.28125,0.265625 v 2.65625 c 0,0.25 0.015625,0.265625 0.28125,0.265625 H 4.75 c 0.265625,0 0.28125,-0.015625 0.28125,-0.265625 z m 0,0"
             style="fill:#000000;fill-opacity:1;stroke:none;stroke-width:0"
             inkscape:connector-curvature="0" />
        </g>
        <g
           id="g3439"
           style="fill:#000000;fill-opacity:1">
          <path
             id="path3437"
             transform="translate(225.464,171.047)"
             d="M 5.03125,0.171875 C 5.03125,-0.09375 5.015625,-0.09375 4.75,-0.09375 H 4.109375 c -0.265625,0 -0.28125,0 -0.28125,0.265625 v 2.65625 c 0,0.25 0.015625,0.265625 0.28125,0.265625 H 4.75 c 0.265625,0 0.28125,-0.015625 0.28125,-0.265625 z m 0,0"
             style="fill:#000000;fill-opacity:1;stroke:none;stroke-width:0"
             inkscape:connector-curvature="0" />
        </g>
        <g
           id="g3443"
           style="fill:#000000;fill-opacity:1">
          <path
             id="path3441"
             transform="translate(225.464,174.036)"
             d="M 5.03125,0.171875 C 5.03125,-0.09375 5.015625,-0.09375 4.75,-0.09375 H 4.109375 c -0.265625,0 -0.28125,0 -0.28125,0.265625 v 2.65625 c 0,0.25 0.015625,0.265625 0.28125,0.265625 H 4.75 c 0.265625,0 0.28125,-0.015625 0.28125,-0.265625 z m 0,0"
             style="fill:#000000;fill-opacity:1;stroke:none;stroke-width:0"
             inkscape:connector-curvature="0" />
        </g>
        <g
           id="g3447"
           style="fill:#000000;fill-opacity:1">
          <path
             id="path3445"
             transform="translate(225.464,177.025)"
             d="m 3.828125,17.78125 c 0,0.25 0.015625,0.265625 0.28125,0.265625 H 4.75 c 0.265625,0 0.28125,-0.01563 0.28125,-0.265625 V 13.5625 c 0,-1.203125 -0.515625,-3.234375 -2.75,-4.59375 2.25,-1.359375 2.75,-3.421875 2.75,-4.59375 V 0.171875 C 5.03125,-0.09375 5.015625,-0.09375 4.75,-0.09375 H 4.109375 c -0.265625,0 -0.28125,0 -0.28125,0.265625 v 4.21875 c 0,0.828125 -0.171875,2.90625 -2.015625,4.296875 -0.109375,0.09375 -0.125,0.109375 -0.125,0.28125 0,0.1875 0.015625,0.1875 0.125,0.28125 0.265625,0.203125 0.953125,0.734375 1.421875,1.734375 0.390625,0.796875 0.59375,1.6875 0.59375,2.578125 z m 0,0"
             style="fill:#000000;fill-opacity:1;stroke:none;stroke-width:0"
             inkscape:connector-curvature="0" />
        </g>
        <g
           id="g3451"
           style="fill:#000000;fill-opacity:1">
          <path
             id="path3449"
             transform="translate(225.464,194.957)"
             d="M 5.03125,0.171875 C 5.03125,-0.09375 5.015625,-0.09375 4.75,-0.09375 H 4.109375 c -0.265625,0 -0.28125,0 -0.28125,0.265625 v 2.65625 c 0,0.25 0.015625,0.265625 0.28125,0.265625 H 4.75 c 0.265625,0 0.28125,-0.015625 0.28125,-0.265625 z m 0,0"
             style="fill:#000000;fill-opacity:1;stroke:none;stroke-width:0"
             inkscape:connector-curvature="0" />
        </g>
        <g
           id="g3455"
           style="fill:#000000;fill-opacity:1">
          <path
             id="path3453"
             transform="translate(225.464,197.946)"
             d="M 5.03125,0.171875 C 5.03125,-0.09375 5.015625,-0.09375 4.75,-0.09375 H 4.109375 c -0.265625,0 -0.28125,0 -0.28125,0.265625 v 2.65625 c 0,0.25 0.015625,0.265625 0.28125,0.265625 H 4.75 c 0.265625,0 0.28125,-0.015625 0.28125,-0.265625 z m 0,0"
             style="fill:#000000;fill-opacity:1;stroke:none;stroke-width:0"
             inkscape:connector-curvature="0" />
        </g>
        <g
           id="g3459"
           style="fill:#000000;fill-opacity:1">
          <path
             id="path3457"
             transform="translate(225.464,200.935)"
             d="M 5.03125,0.171875 C 5.03125,-0.09375 5.015625,-0.09375 4.75,-0.09375 H 4.109375 c -0.265625,0 -0.28125,0 -0.28125,0.265625 v 2.65625 c 0,0.25 0.015625,0.265625 0.28125,0.265625 H 4.75 c 0.265625,0 0.28125,-0.015625 0.28125,-0.265625 z m 0,0"
             style="fill:#000000;fill-opacity:1;stroke:none;stroke-width:0"
             inkscape:connector-curvature="0" />
        </g>
        <g
           id="g3463"
           style="fill:#000000;fill-opacity:1">
          <path
             id="path3461"
             transform="translate(225.464,203.924)"
             d="M 5.03125,0.171875 C 5.03125,-0.09375 5.015625,-0.09375 4.75,-0.09375 H 4.109375 c -0.265625,0 -0.28125,0 -0.28125,0.265625 v 2.65625 c 0,0.25 0.015625,0.265625 0.28125,0.265625 H 4.75 c 0.265625,0 0.28125,-0.015625 0.28125,-0.265625 z m 0,0"
             style="fill:#000000;fill-opacity:1;stroke:none;stroke-width:0"
             inkscape:connector-curvature="0" />
        </g>
        <g
           id="g3467"
           style="fill:#000000;fill-opacity:1">
          <path
             id="path3465"
             transform="translate(225.464,206.913)"
             d="M 5.03125,0.171875 C 5.03125,-0.09375 5.015625,-0.09375 4.75,-0.09375 H 4.109375 c -0.265625,0 -0.28125,0 -0.28125,0.265625 v 2.65625 c 0,0.25 0.015625,0.265625 0.28125,0.265625 H 4.75 c 0.265625,0 0.28125,-0.015625 0.28125,-0.265625 z m 0,0"
             style="fill:#000000;fill-opacity:1;stroke:none;stroke-width:0"
             inkscape:connector-curvature="0" />
        </g>
        <g
           id="g3471"
           style="fill:#000000;fill-opacity:1">
          <path
             id="path3469"
             transform="translate(225.464,209.902)"
             d="M 5.03125,0.171875 C 5.03125,-0.09375 5.015625,-0.09375 4.75,-0.09375 H 4.109375 c -0.265625,0 -0.28125,0 -0.28125,0.265625 v 2.65625 c 0,0.25 0.015625,0.265625 0.28125,0.265625 H 4.75 c 0.265625,0 0.28125,-0.015625 0.28125,-0.265625 z m 0,0"
             style="fill:#000000;fill-opacity:1;stroke:none;stroke-width:0"
             inkscape:connector-curvature="0" />
        </g>
        <g
           id="g3475"
           style="fill:#000000;fill-opacity:1">
          <path
             id="path3473"
             transform="translate(225.464,212.89)"
             d="M 5.03125,0.171875 C 5.03125,-0.09375 5.015625,-0.09375 4.75,-0.09375 H 4.109375 c -0.265625,0 -0.28125,0 -0.28125,0.265625 v 2.65625 c 0,0.25 0.015625,0.265625 0.28125,0.265625 H 4.75 c 0.265625,0 0.28125,-0.015625 0.28125,-0.265625 z m 0,0"
             style="fill:#000000;fill-opacity:1;stroke:none;stroke-width:0"
             inkscape:connector-curvature="0" />
        </g>
        <g
           id="g3479"
           style="fill:#000000;fill-opacity:1">
          <path
             id="path3477"
             transform="translate(225.464,215.879)"
             d="m 6.890625,8.96875 c 0.25,0 0.265625,-0.015625 0.265625,-0.25 C 7.15625,8.546875 7.140625,8.53125 7.109375,8.5 6.796875,8.28125 6.078125,7.765625 5.609375,6.84375 5.21875,6.09375 5.03125,5.328125 5.03125,4.453125 V 0.171875 C 5.03125,-0.09375 5.015625,-0.09375 4.75,-0.09375 H 4.109375 c -0.265625,0 -0.28125,0 -0.28125,0.265625 v 4.28125 c 0,1.484375 0.765625,3.359375 2.90625,4.515625 z m 0,0"
             style="fill:#000000;fill-opacity:1;stroke:none;stroke-width:0"
             inkscape:connector-curvature="0" />
        </g>
        <g
           id="g3485"
           style="fill:#000000;fill-opacity:1">
          <path
             id="path3481"
             transform="translate(234.319,160.899)"
             d="m 5.765625,-6.875 h 3.5 v 0.65625 h -7.125 v 1.671875 c 0,1.3125 -0.058594,2.324219 -0.171875,3.03125 C 1.820313,-0.742188 1.550781,-0.03125 1.15625,0.625 L 0.59375,0.015625 c 0.375,-0.632813 0.609375,-1.375 0.703125,-2.21875 0.070313,-0.5 0.109375,-1.203125 0.109375,-2.109375 V -6.875 H 5 V -8.1875 H 5.765625 Z M 2.21875,-0.515625 c 0.375,-0.800781 0.648438,-1.851563 0.828125,-3.15625 L 3.75,-3.484375 C 3.5625,-2.117188 3.269531,-0.988281 2.875,-0.09375 Z m 2.140625,-3.71875 H 5.0625 v 3.578125 c 0,0.210937 0.054688,0.339844 0.171875,0.390625 0.09375,0.042969 0.332031,0.0625 0.71875,0.0625 0.507813,0 0.804688,-0.054688 0.890625,-0.171875 C 6.9375,-0.519531 6.988281,-1.007813 7,-1.84375 v -0.1875 l 0.75,0.203125 C 7.695313,-0.703125 7.609375,-0.0507813 7.484375,0.125 7.296875,0.363281 6.785156,0.484375 5.953125,0.484375 5.335938,0.484375 4.910156,0.425781 4.671875,0.3125 4.460938,0.21875 4.359375,0.0351563 4.359375,-0.234375 Z M 6.21875,-3.84375 C 5.707031,-4.46875 5.15625,-5.003906 4.5625,-5.453125 l 0.5,-0.46875 c 0.550781,0.398437 1.117188,0.902344 1.703125,1.515625 z M 8.859375,-0.4375 C 8.316406,-1.78125 7.773438,-2.851563 7.234375,-3.65625 L 7.875,-4.015625 c 0.644531,0.980469 1.203125,2.023437 1.671875,3.125 z m 0,0"
             style="fill:#000000;fill-opacity:1;stroke:none;stroke-width:0"
             inkscape:connector-curvature="0" />
          <path
             id="path3483"
             transform="translate(243.90524,160.899)"
             d="m 5.15625,-6.15625 h 3.671875 c -0.03125,2.804687 -0.148437,4.667969 -0.34375,5.59375 -0.136719,0.6132813 -0.542969,0.921875 -1.21875,0.921875 -0.511719,0 -1.132812,-0.042969 -1.859375,-0.125 l -0.125,-0.890625 c 0.664063,0.167969 1.226563,0.25 1.6875,0.25 0.4375,0 0.691406,-0.1875 0.765625,-0.5625 0.164063,-0.925781 0.257813,-2.320313 0.28125,-4.1875 L 8.03125,-5.484375 H 5.140625 C 5.078125,-4.117188 4.789063,-2.957031 4.28125,-2 3.707031,-0.976563 2.738281,-0.09375 1.375,0.65625 L 0.828125,0.015625 c 2.269531,-1.007813 3.441406,-2.8125 3.515625,-5.40625 H 1 v -0.6875 h 3.34375 v -1.96875 h 0.8125 z m 0,0"
             style="fill:#000000;fill-opacity:1;stroke:none;stroke-width:0"
             inkscape:connector-curvature="0" />
        </g>
        <g
           id="g3491"
           style="fill:#000000;fill-opacity:1">
          <path
             id="path3487"
             transform="translate(256.809,160.899)"
             d="M 2.546875,2.5 V 2.09375 h -0.96875 v -9.171875 h 0.96875 v -0.40625 h -1.375 V 2.5 Z m 0,0"
             style="fill:#000000;fill-opacity:1;stroke:none;stroke-width:0"
             inkscape:connector-curvature="0" />
          <path
             id="path3489"
             transform="translate(259.57662,160.899)"
             d="m 2.265625,-3.15625 h 1.6875 c 1.1875,0 2.265625,-0.796875 2.265625,-1.796875 C 6.21875,-5.9375 5.234375,-6.8125 3.875,-6.8125 H 0.34375 V -6.5 h 0.25 c 0.765625,0 0.78125,0.109375 0.78125,0.46875 v 5.25 c 0,0.359375 -0.015625,0.46875 -0.78125,0.46875 h -0.25 V 0 c 0.359375,-0.03125 1.09375,-0.03125 1.46875,-0.03125 0.375,0 1.125,0 1.484375,0.03125 v -0.3125 h -0.25 c -0.765625,0 -0.78125,-0.109375 -0.78125,-0.46875 z m -0.03125,-0.25 v -2.6875 C 2.234375,-6.4375 2.25,-6.5 2.71875,-6.5 h 0.890625 c 1.578125,0 1.578125,1.0625 1.578125,1.546875 0,0.46875 0,1.546875 -1.578125,1.546875 z m 0,0"
             style="fill:#000000;fill-opacity:1;stroke:none;stroke-width:0"
             inkscape:connector-curvature="0" />
        </g>
        <g
           id="g3497"
           style="fill:#000000;fill-opacity:1">
          <path
             id="path3493"
             transform="translate(266.0882,160.899)"
             d="m 3.3125,-0.75 c 0.046875,0.390625 0.3125,0.8125 0.78125,0.8125 0.21875,0 0.828125,-0.140625 0.828125,-0.953125 v -0.5625 h -0.25 v 0.5625 c 0,0.578125 -0.25,0.640625 -0.359375,0.640625 -0.328125,0 -0.375,-0.453125 -0.375,-0.5 v -1.984375 c 0,-0.421875 0,-0.8125 -0.359375,-1.1875 C 3.1875,-4.3125 2.6875,-4.46875 2.21875,-4.46875 c -0.828125,0 -1.515625,0.46875 -1.515625,1.125 0,0.296875 0.203125,0.46875 0.46875,0.46875 0.28125,0 0.453125,-0.203125 0.453125,-0.453125 0,-0.125 -0.046875,-0.453125 -0.515625,-0.453125 C 1.390625,-4.140625 1.875,-4.25 2.1875,-4.25 c 0.5,0 1.0625,0.390625 1.0625,1.28125 v 0.359375 c -0.515625,0.03125 -1.203125,0.0625 -1.828125,0.359375 -0.75,0.34375 -1,0.859375 -1,1.296875 0,0.8125 0.96875,1.0625 1.59375,1.0625 0.65625,0 1.109375,-0.40625 1.296875,-0.859375 z M 3.25,-2.390625 v 1 c 0,0.9375 -0.71875,1.28125 -1.171875,1.28125 -0.484375,0 -0.890625,-0.34375 -0.890625,-0.84375 0,-0.546875 0.421875,-1.375 2.0625,-1.4375 z m 0,0"
             style="fill:#000000;fill-opacity:1;stroke:none;stroke-width:0"
             inkscape:connector-curvature="0" />
          <path
             id="path3495"
             transform="translate(271.06952,160.899)"
             d="M 1.578125,-7.484375 H 0.21875 v 0.40625 H 1.1875 V 2.09375 H 0.21875 V 2.5 h 1.359375 z m 0,0"
             style="fill:#000000;fill-opacity:1;stroke:none;stroke-width:0"
             inkscape:connector-curvature="0" />
        </g>
        <g
           id="g3501"
           style="fill:#000000;fill-opacity:1">
          <path
             id="path3499"
             transform="translate(276.58683,160.899)"
             d="m 6.84375,-3.265625 c 0.15625,0 0.34375,0 0.34375,-0.1875 C 7.1875,-3.65625 7,-3.65625 6.859375,-3.65625 h -5.96875 c -0.140625,0 -0.328125,0 -0.328125,0.203125 0,0.1875 0.1875,0.1875 0.328125,0.1875 z m 0.015625,1.9375 c 0.140625,0 0.328125,0 0.328125,-0.203125 0,-0.1875 -0.1875,-0.1875 -0.34375,-0.1875 H 0.890625 c -0.140625,0 -0.328125,0 -0.328125,0.1875 0,0.203125 0.1875,0.203125 0.328125,0.203125 z m 0,0"
             style="fill:#000000;fill-opacity:1;stroke:none;stroke-width:0"
             inkscape:connector-curvature="0" />
        </g>
        <g
           id="g3505"
           style="fill:#000000;fill-opacity:1">
          <path
             id="path3503"
             transform="translate(290.958,154.159)"
             d="M 2.3125,-6.671875 C 2.21875,-6.796875 2.21875,-6.8125 2.03125,-6.8125 H 0.328125 V -6.5 H 0.625 c 0.140625,0 0.34375,0.015625 0.484375,0.015625 0.234375,0.03125 0.25,0.046875 0.25,0.234375 v 5.203125 c 0,0.265625 0,0.734375 -1.03125,0.734375 V 0 C 0.671875,-0.015625 1.171875,-0.03125 1.5,-0.03125 c 0.328125,0 0.8125,0.015625 1.15625,0.03125 v -0.3125 c -1.015625,0 -1.015625,-0.46875 -1.015625,-0.734375 v -5.1875 c 0.046875,0.046875 0.046875,0.0625 0.09375,0.125 L 5.796875,-0.125 C 5.890625,-0.015625 5.90625,0 5.96875,0 6.109375,0 6.109375,-0.0625 6.109375,-0.265625 v -5.5 c 0,-0.265625 0,-0.734375 1.03125,-0.734375 v -0.3125 c -0.359375,0.015625 -0.84375,0.03125 -1.171875,0.03125 -0.328125,0 -0.8125,-0.015625 -1.15625,-0.03125 V -6.5 c 1.015625,0 1.015625,0.46875 1.015625,0.734375 V -1.5 Z m 0,0"
             style="fill:#000000;fill-opacity:1;stroke:none;stroke-width:0"
             inkscape:connector-curvature="0" />
        </g>
        <path
           id="path3507"
           transform="matrix(1,0,0,-1,288.308,158.409)"
           d="M 5.9375e-4,-0.00115625 H 12.770125"
           style="fill:#000000;fill-opacity:1;stroke:#000000;stroke-width:0.398;stroke-linecap:butt;stroke-linejoin:miter;stroke-miterlimit:10;stroke-opacity:1"
           inkscape:connector-curvature="0" />
        <g
           id="g3511"
           style="fill:#000000;fill-opacity:1">
          <path
             id="path3509"
             transform="translate(288.308,167.733)"
             d="M 1.09375,-3.421875 V -0.75 c 0,0.4375 -0.109375,0.4375 -0.78125,0.4375 V 0 c 0.359375,-0.015625 0.859375,-0.03125 1.140625,-0.03125 0.25,0 0.765625,0.015625 1.109375,0.03125 v -0.3125 c -0.671875,0 -0.78125,0 -0.78125,-0.4375 V -2.59375 C 1.78125,-3.625 2.5,-4.1875 3.125,-4.1875 c 0.640625,0 0.75,0.53125 0.75,1.109375 V -0.75 c 0,0.4375 -0.109375,0.4375 -0.78125,0.4375 V 0 c 0.34375,-0.015625 0.859375,-0.03125 1.125,-0.03125 0.25,0 0.78125,0.015625 1.109375,0.03125 v -0.3125 c -0.65625,0 -0.765625,0 -0.765625,-0.4375 v -1.84375 c 0,-1.03125 0.703125,-1.59375 1.34375,-1.59375 0.625,0 0.734375,0.53125 0.734375,1.109375 V -0.75 c 0,0.4375 -0.109375,0.4375 -0.78125,0.4375 V 0 c 0.34375,-0.015625 0.859375,-0.03125 1.125,-0.03125 0.265625,0 0.78125,0.015625 1.125,0.03125 v -0.3125 c -0.515625,0 -0.765625,0 -0.78125,-0.296875 v -1.90625 c 0,-0.859375 0,-1.15625 -0.3125,-1.515625 -0.140625,-0.171875 -0.46875,-0.375 -1.046875,-0.375 -0.828125,0 -1.28125,0.59375 -1.4375,0.984375 C 4.390625,-4.296875 3.65625,-4.40625 3.203125,-4.40625 2.46875,-4.40625 2,-3.984375 1.71875,-3.359375 V -4.40625 L 0.3125,-4.296875 v 0.3125 c 0.703125,0 0.78125,0.0625 0.78125,0.5625 z m 0,0"
             style="fill:#000000;fill-opacity:1;stroke:none;stroke-width:0"
             inkscape:connector-curvature="0" />
        </g>
        <g
           id="g3515"
           style="fill:#000000;fill-opacity:1">
          <path
             id="path3513"
             transform="translate(296.61,164.855)"
             d="M 3.515625,-1.265625 H 3.28125 c -0.015625,0.15625 -0.09375,0.5625 -0.1875,0.625 C 3.046875,-0.59375 2.515625,-0.59375 2.40625,-0.59375 H 1.125 c 0.734375,-0.640625 0.984375,-0.84375 1.390625,-1.171875 0.515625,-0.40625 1,-0.84375 1,-1.5 0,-0.84375 -0.734375,-1.359375 -1.625,-1.359375 -0.859375,0 -1.453125,0.609375 -1.453125,1.25 0,0.34375 0.296875,0.390625 0.375,0.390625 0.15625,0 0.359375,-0.125 0.359375,-0.375 0,-0.125 -0.046875,-0.375 -0.40625,-0.375 C 0.984375,-4.21875 1.453125,-4.375 1.78125,-4.375 c 0.703125,0 1.0625,0.546875 1.0625,1.109375 0,0.609375 -0.4375,1.078125 -0.65625,1.328125 L 0.515625,-0.265625 C 0.4375,-0.203125 0.4375,-0.1875 0.4375,0 h 2.875 z m 0,0"
             style="fill:#000000;fill-opacity:1;stroke:none;stroke-width:0"
             inkscape:connector-curvature="0" />
        </g>
        <g
           id="g3519"
           style="fill:#000000;fill-opacity:1">
          <path
             id="path3517"
             transform="translate(305.042,160.899)"
             d="m 6.84375,-3.265625 c 0.15625,0 0.34375,0 0.34375,-0.1875 C 7.1875,-3.65625 7,-3.65625 6.859375,-3.65625 h -5.96875 c -0.140625,0 -0.328125,0 -0.328125,0.203125 0,0.1875 0.1875,0.1875 0.328125,0.1875 z m 0.015625,1.9375 c 0.140625,0 0.328125,0 0.328125,-0.203125 0,-0.1875 -0.1875,-0.1875 -0.34375,-0.1875 H 0.890625 c -0.140625,0 -0.328125,0 -0.328125,0.1875 0,0.203125 0.1875,0.203125 0.328125,0.203125 z m 0,0"
             style="fill:#000000;fill-opacity:1;stroke:none;stroke-width:0"
             inkscape:connector-curvature="0" />
        </g>
        <g
           id="g3523"
           style="fill:#000000;fill-opacity:1">
          <path
             id="path3521"
             transform="translate(321.547,154.159)"
             d="m 5.15625,-6.15625 h 3.671875 c -0.03125,2.804687 -0.148437,4.667969 -0.34375,5.59375 -0.136719,0.6132813 -0.542969,0.921875 -1.21875,0.921875 -0.511719,0 -1.132812,-0.042969 -1.859375,-0.125 l -0.125,-0.890625 c 0.664063,0.167969 1.226563,0.25 1.6875,0.25 0.4375,0 0.691406,-0.1875 0.765625,-0.5625 0.164063,-0.925781 0.257813,-2.320313 0.28125,-4.1875 L 8.03125,-5.484375 H 5.140625 C 5.078125,-4.117188 4.789063,-2.957031 4.28125,-2 3.707031,-0.976563 2.738281,-0.09375 1.375,0.65625 L 0.828125,0.015625 c 2.269531,-1.007813 3.441406,-2.8125 3.515625,-5.40625 H 1 v -0.6875 h 3.34375 v -1.96875 h 0.8125 z m 0,0"
             style="fill:#000000;fill-opacity:1;stroke:none;stroke-width:0"
             inkscape:connector-curvature="0" />
        </g>
        <path
           id="path3525"
           transform="matrix(1,0,0,-1,316.754,158.409)"
           d="M -9.375e-5,-0.00115625 H 19.171781"
           style="fill:#000000;fill-opacity:1;stroke:#000000;stroke-width:0.398;stroke-linecap:butt;stroke-linejoin:miter;stroke-miterlimit:10;stroke-opacity:1"
           inkscape:connector-curvature="0" />
        <g
           id="g3531"
           style="fill:#000000;fill-opacity:1">
          <path
             id="path3527"
             transform="translate(316.754,168.239)"
             d="M 4.78125,-5.65625 H 8.796875 V 0.703125 H 8.09375 V 0.15625 H 1.90625 V 0.703125 H 1.203125 V -5.65625 H 4.09375 c 0.164063,-0.425781 0.296875,-0.847656 0.390625,-1.265625 h -3.9375 V -7.59375 H 9.4375 v 0.671875 H 5.28125 L 5.265625,-6.875 c -0.15625,0.460937 -0.320312,0.867187 -0.484375,1.21875 z m -1.375,0.625 h -1.5 v 4.5625 h 1.5 z m 0.65625,0 v 1.109375 H 5.890625 V -5.03125 Z m 2.484375,0 v 4.5625 H 8.09375 v -4.5625 z M 4.0625,-3.34375 v 1.109375 H 5.890625 V -3.34375 Z m 0,1.6875 v 1.1875 h 1.828125 v -1.1875 z m 0,0"
             style="fill:#000000;fill-opacity:1;stroke:none;stroke-width:0"
             inkscape:connector-curvature="0" />
          <path
             id="path3529"
             transform="translate(326.34024,168.239)"
             d="M 3.703125,-5.484375 H 6.21875 v -0.5 h -2.0625 v -0.5 h 2.0625 v -0.46875 H 3.859375 v -0.53125 H 6.21875 v -0.8125 H 6.875 v 0.8125 h 2.453125 v 0.53125 H 6.875 v 0.46875 h 2.109375 v 0.5 H 6.875 v 0.5 H 9.5 v 0.53125 H 3.609375 V -5.15625 H 2.625 v 0.921875 C 3.050781,-3.878906 3.484375,-3.46875 3.921875,-3 l -0.4375,0.625 C 3.234375,-2.75 2.945313,-3.117188 2.625,-3.484375 v 4.1875 H 1.96875 v -4.5 C 1.625,-2.753906 1.203125,-1.875 0.703125,-1.15625 L 0.375,-1.84375 c 0.71875,-1.0625 1.21875,-2.164063 1.5,-3.3125 H 0.515625 v -0.625 H 1.96875 V -7.109375 C 1.550781,-7.023438 1.164063,-6.957031 0.8125,-6.90625 L 0.53125,-7.484375 C 1.507813,-7.617188 2.410156,-7.84375 3.234375,-8.15625 l 0.484375,0.5625 c -0.367187,0.125 -0.730469,0.234375 -1.09375,0.328125 v 1.484375 h 1.078125 z m 1.953125,4.578125 0.515625,0.421875 c -0.699219,0.5507813 -1.414062,0.96875 -2.140625,1.25 L 3.5625,0.21875 c 0.71875,-0.2382813 1.414063,-0.613281 2.09375,-1.125 H 4.359375 v -3.546875 h 4.46875 V -0.90625 Z M 4.984375,-3.9375 v 0.515625 H 8.1875 V -3.9375 Z m 0,0.984375 v 0.5 H 8.1875 v -0.5 z m 0,0.96875 V -1.4375 H 8.1875 v -0.546875 z m 4.0625,2.640625 c -0.65625,-0.449219 -1.34375,-0.816406 -2.0625,-1.109375 l 0.46875,-0.4375 c 0.6875,0.242187 1.394531,0.574219 2.125,1 z m 0,0"
             style="fill:#000000;fill-opacity:1;stroke:none;stroke-width:0"
             inkscape:connector-curvature="0" />
        </g>
        <g
           id="g3547"
           style="fill:#000000;fill-opacity:1">
          <path
             id="path3533"
             transform="translate(234.319,190.341)"
             d="M 5.421875,-0.15625 H 9.5 v 0.625 H 0.515625 v -0.625 h 1.75 V -2.234375 H 2.96875 v 2.078125 h 1.75 V -2.875 h -3.8125 v -0.609375 h 8.1875 V -2.875 H 5.421875 v 0.96875 h 3.09375 v 0.609375 h -3.09375 z m 0.25,-6.890625 C 5.597656,-6.960938 5.488281,-6.84375 5.34375,-6.6875 v 2.890625 H 4.609375 v -2.1875 C 3.585938,-5.128906 2.34375,-4.4375 0.875,-3.90625 l -0.390625,-0.5625 c 1.8125,-0.632813 3.257813,-1.492188 4.34375,-2.578125 H 0.8125 V -7.6875 h 8.375 v 0.640625 z m 3.3125,2.96875 C 7.953125,-4.804688 6.90625,-5.429688 5.84375,-5.953125 L 6.28125,-6.40625 C 7.414063,-5.875 8.488281,-5.296875 9.5,-4.671875 Z m 0,0"
             style="fill:#000000;fill-opacity:1;stroke:none;stroke-width:0"
             inkscape:connector-curvature="0" />
          <path
             id="path3535"
             transform="translate(243.90524,190.341)"
             d="M 2.015625,-6.90625 C 2.972656,-6.945313 4.039063,-7.066406 5.21875,-7.265625 l 0.515625,0.375 c -0.199219,0.84375 -0.480469,1.734375 -0.84375,2.671875 0.863281,0.125 1.617188,0.335937 2.265625,0.625 C 7.25,-4.070313 7.300781,-4.691406 7.3125,-5.453125 l 0.75,0.171875 c -0.03125,0.742187 -0.105469,1.402344 -0.21875,1.984375 0.519531,0.261719 1.039063,0.570312 1.5625,0.921875 L 8.9375,-1.6875 C 8.375,-2.082031 7.941406,-2.359375 7.640625,-2.515625 7.304688,-1.296875 6.5625,-0.332031 5.40625,0.375 L 4.796875,-0.171875 c 1.125,-0.59375 1.851563,-1.488281 2.1875,-2.6875 C 6.191406,-3.242188 5.410156,-3.476563 4.640625,-3.5625 3.671875,-1.394531 2.8125,-0.3125 2.0625,-0.3125 1.738281,-0.3125 1.457031,-0.484375 1.21875,-0.828125 1,-1.128906 0.890625,-1.476563 0.890625,-1.875 c 0,-0.582031 0.265625,-1.085938 0.796875,-1.515625 0.625,-0.5 1.445313,-0.785156 2.46875,-0.859375 0.25,-0.613281 0.46875,-1.363281 0.65625,-2.25 -0.835937,0.148437 -1.683594,0.25 -2.546875,0.3125 z M 3.875,-3.578125 c -0.875,0.085937 -1.523437,0.375 -1.9375,0.875 -0.210937,0.25 -0.3125,0.539062 -0.3125,0.859375 0,0.167969 0.03125,0.3125 0.09375,0.4375 0.09375,0.199219 0.21875,0.296875 0.375,0.296875 0.175781,0 0.414063,-0.203125 0.71875,-0.609375 0.34375,-0.445313 0.695313,-1.066406 1.0625,-1.859375 z m 0,0"
             style="fill:#000000;fill-opacity:1;stroke:none;stroke-width:0"
             inkscape:connector-curvature="0" />
          <path
             id="path3537"
             transform="translate(253.49148,190.341)"
             d="M 8.46875,0.671875 C 7.195313,-0.578125 6.5625,-2.070313 6.5625,-3.8125 c 0,-1.726563 0.632813,-3.21875 1.90625,-4.46875 H 9.25 c -1.292969,1.273437 -1.9375,2.765625 -1.9375,4.484375 0,1.710937 0.644531,3.199219 1.9375,4.46875 z m 0,0"
             style="fill:#000000;fill-opacity:1;stroke:none;stroke-width:0"
             inkscape:connector-curvature="0" />
          <path
             id="path3539"
             transform="translate(263.07772,190.341)"
             d="m 8.015625,-6.625 v 1.640625 H 9.4375 v 0.625 H 8.015625 V -2.6875 h 1.125 v 0.625 H 0.84375 v -0.625 h 1.359375 v -1.671875 h -1.65625 v -0.625 h 1.65625 V -6.3125 C 1.941406,-5.945313 1.664063,-5.632813 1.375,-5.375 L 0.890625,-5.828125 c 0.75,-0.6875 1.320313,-1.507813 1.71875,-2.46875 L 3.265625,-8.0625 C 3.210938,-7.9375 3.0625,-7.660156 2.8125,-7.234375 H 8.90625 V -6.625 Z m -5.15625,0 v 1.640625 H 3.9375 V -6.625 Z m 1.6875,0 v 1.640625 H 5.625 V -6.625 Z m 1.6875,0 v 1.640625 H 7.375 V -6.625 Z M 7.375,-4.359375 H 6.234375 V -2.6875 H 7.375 Z m -1.75,0 H 4.546875 V -2.6875 H 5.625 Z m -1.6875,0 H 2.859375 V -2.6875 H 3.9375 Z M 0.796875,0.25 c 0.507813,-0.550781 0.914063,-1.210938 1.21875,-1.984375 l 0.671875,0.28125 c -0.335937,0.875 -0.757812,1.613281 -1.265625,2.21875 z m 3.0625,0.4375 C 3.773438,-0.0390625 3.644531,-0.738281 3.46875,-1.40625 l 0.6875,-0.140625 c 0.21875,0.667969 0.375,1.355469 0.46875,2.0625 z M 6.03125,0.53125 C 5.820313,-0.25 5.570313,-0.921875 5.28125,-1.484375 l 0.6875,-0.21875 C 6.257813,-1.171875 6.535156,-0.519531 6.796875,0.25 Z M 8.703125,0.5625 c -0.5,-0.863281 -0.996094,-1.566406 -1.484375,-2.109375 l 0.609375,-0.34375 c 0.59375,0.625 1.113281,1.289062 1.5625,1.984375 z m 0,0"
             style="fill:#000000;fill-opacity:1;stroke:none;stroke-width:0"
             inkscape:connector-curvature="0" />
          <path
             id="path3541"
             transform="translate(272.66396,190.341)"
             d="M 5.5,-5.859375 H 4.609375 c -0.28125,0.742187 -0.65625,1.421875 -1.125,2.046875 L 2.890625,-4.328125 C 3.671875,-5.359375 4.207031,-6.613281 4.5,-8.09375 l 0.734375,0.140625 c -0.117187,0.511719 -0.246094,0.992187 -0.390625,1.4375 h 3.8125 l 0.46875,0.375 C 8.675781,-5.066406 8.191406,-4.175781 7.671875,-3.46875 L 7,-3.875 c 0.5,-0.613281 0.898438,-1.273438 1.203125,-1.984375 h -1.96875 v 0.765625 c 0,1.960937 1.0625,3.609375 3.1875,4.953125 L 8.875,0.546875 c -1.574219,-1.007813 -2.558594,-2.332031 -2.953125,-3.96875 -0.125,0.8125 -0.335937,1.476562 -0.625,1.984375 -0.511719,0.886719 -1.273437,1.617188 -2.28125,2.203125 l -0.5,-0.65625 C 4.503906,-0.890625 5.5,-2.675781 5.5,-5.25 Z M 2.25,-5 C 1.75,-5.707031 1.265625,-6.273438 0.796875,-6.703125 L 1.375,-7.234375 c 0.550781,0.5 1.050781,1.039062 1.5,1.609375 z M 0.515625,-0.390625 C 1.191406,-1.109375 1.851563,-2.019531 2.5,-3.125 l 0.546875,0.53125 c -0.65625,1.167969 -1.308594,2.125 -1.953125,2.875 z m 0,0"
             style="fill:#000000;fill-opacity:1;stroke:none;stroke-width:0"
             inkscape:connector-curvature="0" />
          <path
             id="path3543"
             transform="translate(282.2502,190.341)"
             d="m 6.453125,-4.140625 v 3.484375 c 0,0.179687 0.046875,0.289062 0.140625,0.328125 0.113281,0.0625 0.363281,0.09375 0.75,0.09375 0.476563,0 0.785156,-0.019531 0.921875,-0.0625 C 8.429688,-0.359375 8.53125,-0.507813 8.5625,-0.75 8.601563,-1.007813 8.640625,-1.421875 8.671875,-1.984375 l 0.734375,0.25 C 9.375,-0.773438 9.28125,-0.164063 9.125,0.09375 8.945313,0.351563 8.328125,0.484375 7.265625,0.484375 6.566406,0.484375 6.125,0.410156 5.9375,0.265625 5.78125,0.160156 5.703125,-0.0351563 5.703125,-0.328125 v -3.8125 h -1.59375 v 0.15625 c 0,1.375 -0.171875,2.355469 -0.515625,2.9375 -0.449219,0.75 -1.257812,1.332031 -2.421875,1.75 L 0.640625,0.046875 C 1.753906,-0.234375 2.507813,-0.707031 2.90625,-1.375 3.21875,-1.894531 3.375,-2.765625 3.375,-3.984375 v -0.15625 H 0.703125 v -0.6875 h 8.59375 v 0.6875 z m -4.75,-3.4375 h 6.59375 v 0.6875 h -6.59375 z m 0,0"
             style="fill:#000000;fill-opacity:1;stroke:none;stroke-width:0"
             inkscape:connector-curvature="0" />
          <path
             id="path3545"
             transform="translate(291.83644,190.341)"
             d="M 0.75,0.671875 C 2.039063,-0.597656 2.6875,-2.085938 2.6875,-3.796875 2.6875,-5.503906 2.039063,-7 0.75,-8.28125 h 0.78125 c 1.269531,1.25 1.90625,2.746094 1.90625,4.484375 0,1.730469 -0.636719,3.21875 -1.90625,4.46875 z m 0,0"
             style="fill:#000000;fill-opacity:1;stroke:none;stroke-width:0"
             inkscape:connector-curvature="0" />
        </g>
        <g
           id="g3551"
           style="fill:#000000;fill-opacity:1">
          <path
             id="path3549"
             transform="translate(299.397,190.341)"
             d="m 6.84375,-3.265625 c 0.15625,0 0.34375,0 0.34375,-0.1875 C 7.1875,-3.65625 7,-3.65625 6.859375,-3.65625 h -5.96875 c -0.140625,0 -0.328125,0 -0.328125,0.203125 0,0.1875 0.1875,0.1875 0.328125,0.1875 z m 0.015625,1.9375 c 0.140625,0 0.328125,0 0.328125,-0.203125 0,-0.1875 -0.1875,-0.1875 -0.34375,-0.1875 H 0.890625 c -0.140625,0 -0.328125,0 -0.328125,0.1875 0,0.203125 0.1875,0.203125 0.328125,0.203125 z m 0,0"
             style="fill:#000000;fill-opacity:1;stroke:none;stroke-width:0"
             inkscape:connector-curvature="0" />
        </g>
        <g
           id="g3555"
           style="fill:#000000;fill-opacity:1">
          <path
             id="path3553"
             transform="translate(311.109,183.602)"
             d="M 1.09375,-3.421875 V -0.75 c 0,0.4375 -0.109375,0.4375 -0.78125,0.4375 V 0 c 0.359375,-0.015625 0.859375,-0.03125 1.140625,-0.03125 0.25,0 0.765625,0.015625 1.109375,0.03125 v -0.3125 c -0.671875,0 -0.78125,0 -0.78125,-0.4375 V -2.59375 C 1.78125,-3.625 2.5,-4.1875 3.125,-4.1875 c 0.640625,0 0.75,0.53125 0.75,1.109375 V -0.75 c 0,0.4375 -0.109375,0.4375 -0.78125,0.4375 V 0 c 0.34375,-0.015625 0.859375,-0.03125 1.125,-0.03125 0.25,0 0.78125,0.015625 1.109375,0.03125 v -0.3125 c -0.65625,0 -0.765625,0 -0.765625,-0.4375 v -1.84375 c 0,-1.03125 0.703125,-1.59375 1.34375,-1.59375 0.625,0 0.734375,0.53125 0.734375,1.109375 V -0.75 c 0,0.4375 -0.109375,0.4375 -0.78125,0.4375 V 0 c 0.34375,-0.015625 0.859375,-0.03125 1.125,-0.03125 0.265625,0 0.78125,0.015625 1.125,0.03125 v -0.3125 c -0.515625,0 -0.765625,0 -0.78125,-0.296875 v -1.90625 c 0,-0.859375 0,-1.15625 -0.3125,-1.515625 -0.140625,-0.171875 -0.46875,-0.375 -1.046875,-0.375 -0.828125,0 -1.28125,0.59375 -1.4375,0.984375 C 4.390625,-4.296875 3.65625,-4.40625 3.203125,-4.40625 2.46875,-4.40625 2,-3.984375 1.71875,-3.359375 V -4.40625 L 0.3125,-4.296875 v 0.3125 c 0.703125,0 0.78125,0.0625 0.78125,0.5625 z m 0,0"
             style="fill:#000000;fill-opacity:1;stroke:none;stroke-width:0"
             inkscape:connector-curvature="0" />
        </g>
        <path
           id="path3557"
           transform="matrix(1,0,0,-1,311.109,187.851)"
           d="M 3.75e-4,-5.625e-4 H 8.301156"
           style="fill:#000000;fill-opacity:1;stroke:#000000;stroke-width:0.398;stroke-linecap:butt;stroke-linejoin:miter;stroke-miterlimit:10;stroke-opacity:1"
           inkscape:connector-curvature="0" />
        <g
           id="g3561"
           style="fill:#000000;fill-opacity:1">
          <path
             id="path3559"
             transform="translate(311.109,197.175)"
             d="M 1.09375,-3.421875 V -0.75 c 0,0.4375 -0.109375,0.4375 -0.78125,0.4375 V 0 c 0.359375,-0.015625 0.859375,-0.03125 1.140625,-0.03125 0.25,0 0.765625,0.015625 1.109375,0.03125 v -0.3125 c -0.671875,0 -0.78125,0 -0.78125,-0.4375 V -2.59375 C 1.78125,-3.625 2.5,-4.1875 3.125,-4.1875 c 0.640625,0 0.75,0.53125 0.75,1.109375 V -0.75 c 0,0.4375 -0.109375,0.4375 -0.78125,0.4375 V 0 c 0.34375,-0.015625 0.859375,-0.03125 1.125,-0.03125 0.25,0 0.78125,0.015625 1.109375,0.03125 v -0.3125 c -0.65625,0 -0.765625,0 -0.765625,-0.4375 v -1.84375 c 0,-1.03125 0.703125,-1.59375 1.34375,-1.59375 0.625,0 0.734375,0.53125 0.734375,1.109375 V -0.75 c 0,0.4375 -0.109375,0.4375 -0.78125,0.4375 V 0 c 0.34375,-0.015625 0.859375,-0.03125 1.125,-0.03125 0.265625,0 0.78125,0.015625 1.125,0.03125 v -0.3125 c -0.515625,0 -0.765625,0 -0.78125,-0.296875 v -1.90625 c 0,-0.859375 0,-1.15625 -0.3125,-1.515625 -0.140625,-0.171875 -0.46875,-0.375 -1.046875,-0.375 -0.828125,0 -1.28125,0.59375 -1.4375,0.984375 C 4.390625,-4.296875 3.65625,-4.40625 3.203125,-4.40625 2.46875,-4.40625 2,-3.984375 1.71875,-3.359375 V -4.40625 L 0.3125,-4.296875 v 0.3125 c 0.703125,0 0.78125,0.0625 0.78125,0.5625 z m 0,0"
             style="fill:#000000;fill-opacity:1;stroke:none;stroke-width:0"
             inkscape:connector-curvature="0" />
        </g>
        <g
           id="g3565"
           style="fill:#000000;fill-opacity:1">
          <path
             id="path3563"
             transform="translate(323.374,190.341)"
             d="m 6.84375,-3.265625 c 0.15625,0 0.34375,0 0.34375,-0.1875 C 7.1875,-3.65625 7,-3.65625 6.859375,-3.65625 h -5.96875 c -0.140625,0 -0.328125,0 -0.328125,0.203125 0,0.1875 0.1875,0.1875 0.328125,0.1875 z m 0.015625,1.9375 c 0.140625,0 0.328125,0 0.328125,-0.203125 0,-0.1875 -0.1875,-0.1875 -0.34375,-0.1875 H 0.890625 c -0.140625,0 -0.328125,0 -0.328125,0.1875 0,0.203125 0.1875,0.203125 0.328125,0.203125 z m 0,0"
             style="fill:#000000;fill-opacity:1;stroke:none;stroke-width:0"
             inkscape:connector-curvature="0" />
        </g>
        <g
           id="g3573"
           style="fill:#000000;fill-opacity:1">
          <path
             id="path3567"
             transform="translate(339.879,183.602)"
             d="M 3.359375,-1.953125 C 2.828125,-1.503906 2.195313,-1.144531 1.46875,-0.875 L 1.046875,-1.40625 C 2.367188,-1.914063 3.351563,-2.691406 4,-3.734375 l 0.640625,0.25 c -0.125,0.210937 -0.242187,0.382812 -0.34375,0.515625 h 3.125 l 0.34375,0.3125 c -0.574219,0.75 -1.152344,1.34375 -1.734375,1.78125 0.820313,0.335937 1.984375,0.589844 3.484375,0.765625 l -0.40625,0.6875 c -1.617187,-0.25 -2.867187,-0.59375 -3.75,-1.03125 C 4.328125,0.128906 2.851563,0.5625 0.9375,0.84375 L 0.53125,0.203125 C 2.363281,-0.015625 3.75,-0.363281 4.6875,-0.84375 4.257813,-1.101563 3.832031,-1.453125 3.40625,-1.890625 Z m 0.4375,-0.4375 L 3.78125,-2.375 c 0.394531,0.429687 0.921875,0.8125 1.578125,1.15625 0.476563,-0.3125 0.914063,-0.703125 1.3125,-1.171875 z m 2.546875,-4.09375 v 2.34375 c 0,0.398437 -0.210937,0.59375 -0.625,0.59375 -0.25,0 -0.570312,-0.019531 -0.953125,-0.0625 L 4.625,-4.265625 c 0.289063,0.054687 0.535156,0.078125 0.734375,0.078125 0.207031,0 0.3125,-0.097656 0.3125,-0.296875 v -2 H 4.40625 c -0.054687,0.898437 -0.21875,1.589844 -0.5,2.078125 -0.324219,0.585937 -0.84375,1.078125 -1.5625,1.484375 L 1.828125,-3.375 c 0.738281,-0.425781 1.242188,-0.898438 1.515625,-1.421875 0.226563,-0.40625 0.359375,-0.96875 0.390625,-1.6875 H 0.625 V -7.09375 h 3.96875 v -1.171875 h 0.75 V -7.09375 H 9.375 v 0.609375 z M 8.578125,-3.6875 c -0.6875,-0.820313 -1.292969,-1.457031 -1.8125,-1.90625 l 0.53125,-0.4375 c 0.625,0.511719 1.253906,1.136719 1.890625,1.875 z M 0.53125,-3.953125 C 1.25,-4.460938 1.820313,-5.113281 2.25,-5.90625 L 2.875,-5.625 C 2.425781,-4.769531 1.835938,-4.0625 1.109375,-3.5 Z m 0,0"
             style="fill:#000000;fill-opacity:1;stroke:none;stroke-width:0"
             inkscape:connector-curvature="0" />
          <path
             id="path3569"
             transform="translate(349.46524,183.602)"
             d="m 4.46875,-7.015625 v 2.546875 h 1.375 v 0.625 H 4.5 v 4.4375 H 3.796875 v -4.4375 h -1.21875 v 0.109375 c 0,1 -0.09375,1.851562 -0.28125,2.546875 C 2.085938,-0.457031 1.71875,0.210938 1.1875,0.828125 L 0.671875,0.28125 c 0.8125,-0.882813 1.21875,-2.195313 1.21875,-3.9375 v -0.1875 H 0.5 v -0.625 H 1.890625 V -7.015625 H 0.75 v -0.625 h 4.890625 v 0.625 z m -0.6875,0 H 2.578125 V -4.46875 H 3.78125 Z m 1.484375,7 c 1.550781,-0.757813 2.78125,-1.898438 3.6875,-3.421875 L 9.59375,-3.078125 C 8.632813,-1.441406 7.359375,-0.21875 5.765625,0.59375 Z m -0.0625,-5.34375 C 6.492188,-5.984375 7.46875,-6.875 8.125,-8.03125 l 0.671875,0.359375 c -0.792969,1.261719 -1.824219,2.21875 -3.09375,2.875 z m -0.046875,2.65625 c 1.4375,-0.625 2.566406,-1.65625 3.390625,-3.09375 l 0.65625,0.359375 c -0.898437,1.511719 -2.085937,2.625 -3.5625,3.34375 z m 0,0"
             style="fill:#000000;fill-opacity:1;stroke:none;stroke-width:0"
             inkscape:connector-curvature="0" />
          <path
             id="path3571"
             transform="translate(359.05148,183.602)"
             d="m 7.9375,-8.0625 v 2.59375 H 2 V -8.0625 Z m -5.25,0.53125 V -7 h 4.578125 v -0.53125 z m 0,1 v 0.5625 h 4.578125 v -0.5625 z m 5.5,2.421875 V -1.5625 H 5.296875 v 0.484375 h 3.1875 v 0.53125 h -3.1875 v 0.5 H 9.4375 v 0.5625 H 0.546875 v -0.5625 h 4.09375 v -0.5 h -3.125 v -0.53125 h 3.125 V -1.5625 H 1.8125 v -2.546875 z m -5.703125,0.46875 v 0.5625 h 2.15625 v -0.5625 z m 0,1.03125 v 0.578125 h 2.15625 v -0.578125 z m 5.03125,0.578125 v -0.578125 h -2.21875 v 0.578125 z m 0,-1.046875 v -0.5625 h -2.21875 v 0.5625 z M 0.59375,-5.046875 H 9.390625 V -4.5 H 0.59375 Z m 0,0"
             style="fill:#000000;fill-opacity:1;stroke:none;stroke-width:0"
             inkscape:connector-curvature="0" />
        </g>
        <path
           id="path3575"
           transform="matrix(1,0,0,-1,335.086,187.851)"
           d="M -6.25e-5,-5.625e-4 H 38.343688"
           style="fill:#000000;fill-opacity:1;stroke:#000000;stroke-width:0.398;stroke-linecap:butt;stroke-linejoin:miter;stroke-miterlimit:10;stroke-opacity:1"
           inkscape:connector-curvature="0" />
        <g
           id="g3585"
           style="fill:#000000;fill-opacity:1">
          <path
             id="path3577"
             transform="translate(335.086,197.681)"
             d="m 6.453125,-4.140625 v 3.484375 c 0,0.179687 0.046875,0.289062 0.140625,0.328125 0.113281,0.0625 0.363281,0.09375 0.75,0.09375 0.476563,0 0.785156,-0.019531 0.921875,-0.0625 C 8.429688,-0.359375 8.53125,-0.507813 8.5625,-0.75 8.601563,-1.007813 8.640625,-1.421875 8.671875,-1.984375 l 0.734375,0.25 C 9.375,-0.773438 9.28125,-0.164063 9.125,0.09375 8.945313,0.351563 8.328125,0.484375 7.265625,0.484375 6.566406,0.484375 6.125,0.410156 5.9375,0.265625 5.78125,0.160156 5.703125,-0.0351563 5.703125,-0.328125 v -3.8125 h -1.59375 v 0.15625 c 0,1.375 -0.171875,2.355469 -0.515625,2.9375 -0.449219,0.75 -1.257812,1.332031 -2.421875,1.75 L 0.640625,0.046875 C 1.753906,-0.234375 2.507813,-0.707031 2.90625,-1.375 3.21875,-1.894531 3.375,-2.765625 3.375,-3.984375 v -0.15625 H 0.703125 v -0.6875 h 8.59375 v 0.6875 z m -4.75,-3.4375 h 6.59375 v 0.6875 h -6.59375 z m 0,0"
             style="fill:#000000;fill-opacity:1;stroke:none;stroke-width:0"
             inkscape:connector-curvature="0" />
          <path
             id="path3579"
             transform="translate(344.67224,197.681)"
             d="m 4.875,-0.734375 c 2.25,-0.3125 3.375,-1.332031 3.375,-3.0625 0,-1.0625 -0.453125,-1.84375 -1.359375,-2.34375 C 6.503906,-6.335938 6.054688,-6.457031 5.546875,-6.5 5.378906,-4.800781 5.015625,-3.363281 4.453125,-2.1875 3.898438,-1.050781 3.3125,-0.484375 2.6875,-0.484375 c -0.355469,0 -0.6875,-0.1875 -1,-0.5625 C 1.195313,-1.640625 0.953125,-2.332031 0.953125,-3.125 c 0,-1.070313 0.410156,-2.003906 1.234375,-2.796875 C 3,-6.722656 4.054688,-7.125 5.359375,-7.125 c 0.914063,0 1.695313,0.230469 2.34375,0.6875 0.914063,0.636719 1.375,1.515625 1.375,2.640625 0,2.074219 -1.242187,3.335937 -3.71875,3.78125 z m -0.109375,-5.75 C 4.066406,-6.367188 3.460938,-6.101563 2.953125,-5.6875 2.128906,-5 1.71875,-4.140625 1.71875,-3.109375 c 0,0.648437 0.171875,1.171875 0.515625,1.578125 0.15625,0.179687 0.304688,0.265625 0.453125,0.265625 0.3125,0 0.675781,-0.425781 1.09375,-1.28125 0.507813,-1.050781 0.835938,-2.363281 0.984375,-3.9375 z m 0,0"
             style="fill:#000000;fill-opacity:1;stroke:none;stroke-width:0"
             inkscape:connector-curvature="0" />
          <path
             id="path3581"
             transform="translate(354.25848,197.681)"
             d="m 2.984375,-7.15625 v 0.703125 h 5.03125 V -5.84375 H 2.984375 V -5.125 h 5.03125 v 0.59375 h -5.03125 v 0.765625 H 9.4375 V -3.15625 H 5.28125 c 0.226563,0.542969 0.582031,1.042969 1.0625,1.5 0.675781,-0.4375 1.300781,-0.914063 1.875,-1.4375 l 0.609375,0.421875 c -0.730469,0.605469 -1.390625,1.085937 -1.984375,1.4375 0.6875,0.542969 1.566406,0.949219 2.640625,1.21875 l -0.46875,0.65625 c -2.25,-0.6953125 -3.730469,-1.960938 -4.4375,-3.796875 h -1.59375 v 2.734375 c 0.863281,-0.207031 1.644531,-0.414063 2.34375,-0.625 l 0.0625,0.609375 C 4.128906,-0.0078125 2.734375,0.375 1.203125,0.71875 L 0.90625,0.015625 C 1.8125,-0.160156 2.265625,-0.25 2.265625,-0.25 v -2.90625 h -1.71875 v -0.609375 h 1.71875 V -7.78125 H 8.375 v 0.625 z m 0,0"
             style="fill:#000000;fill-opacity:1;stroke:none;stroke-width:0"
             inkscape:connector-curvature="0" />
          <path
             id="path3583"
             transform="translate(363.84472,197.681)"
             d="m 2.734375,-1.84375 c 0,0.367187 0.175781,0.664062 0.53125,0.890625 0.34375,0.230469 1.1875,0.34375 2.53125,0.34375 0.394531,0 0.765625,-0.019531 1.109375,-0.0625 L 7,0.078125 C 6.625,0.109375 6.296875,0.125 6.015625,0.125 5.128906,0.125 4.445313,0.0859375 3.96875,0.015625 3.445313,-0.0664063 3.039063,-0.207031 2.75,-0.40625 2.238281,-0.757813 1.984375,-1.210938 1.984375,-1.765625 c 0,-0.53125 0.238281,-0.957031 0.71875,-1.28125 C 3.148438,-3.359375 3.75,-3.515625 4.5,-3.515625 c 0.894531,0 1.632813,0.132812 2.21875,0.390625 C 6.195313,-3.707031 5.6875,-4.457031 5.1875,-5.375 3.945313,-5.144531 2.796875,-5.03125 1.734375,-5.03125 l -0.21875,-0.734375 c 0.1875,0 0.40625,0 0.65625,0 0.9375,0 1.84375,-0.082031 2.71875,-0.25 C 4.671875,-6.429688 4.394531,-7.003906 4.0625,-7.734375 L 4.78125,-7.9375 c 0.300781,0.730469 0.578125,1.320312 0.828125,1.765625 C 6.429688,-6.378906 7.179688,-6.65625 7.859375,-7 l 0.421875,0.65625 c -0.679687,0.3125 -1.46875,0.578125 -2.375,0.796875 0.550781,0.992187 1.222656,1.953125 2.015625,2.890625 l -0.625,0.53125 c -0.710937,-0.5 -1.648437,-0.75 -2.8125,-0.75 -0.617187,0 -1.078125,0.109375 -1.390625,0.328125 -0.242187,0.179687 -0.359375,0.414062 -0.359375,0.703125 z m 0,0"
             style="fill:#000000;fill-opacity:1;stroke:none;stroke-width:0"
             inkscape:connector-curvature="0" />
        </g>
        <g
           id="g3591"
           style="fill:#000000;fill-opacity:1">
          <path
             id="path3587"
             transform="translate(234.319,217.768)"
             d="M 3.640625,-7.390625 V -0.875 h -2.1875 v 0.78125 H 0.8125 v -7.296875 z m -2.1875,0.625 V -4.5 h 1.53125 v -2.265625 z m 0,2.859375 v 2.421875 h 1.53125 V -3.90625 Z M 6.15625,-6.828125 v -1.46875 h 0.6875 v 1.46875 H 9.015625 V -6.21875 H 6.84375 v 1.234375 H 9.484375 V -4.375 H 8.125 v 1.171875 h 1.1875 v 0.625 H 8.15625 v 2.53125 c 0,0.5 -0.277344,0.75 -0.828125,0.75 -0.3125,0 -0.730469,-0.03125 -1.25,-0.09375 L 5.90625,-0.125 C 6.414063,-0.0390625 6.835938,0 7.171875,0 7.367188,0 7.46875,-0.0859375 7.46875,-0.265625 v -2.3125 h -3.4375 v -0.625 H 7.4375 V -4.375 H 3.96875 v -0.609375 h 2.1875 V -6.21875 H 4.25 V -6.828125 Z M 5.734375,-0.59375 C 5.378906,-1.1875 5.007813,-1.679688 4.625,-2.078125 L 5.140625,-2.46875 c 0.445313,0.449219 0.832031,0.929687 1.15625,1.4375 z m 0,0"
             style="fill:#000000;fill-opacity:1;stroke:none;stroke-width:0"
             inkscape:connector-curvature="0" />
          <path
             id="path3589"
             transform="translate(243.90524,217.768)"
             d="m 6.953125,-4.015625 v 3.46875 H 3.71875 v 0.59375 H 3.046875 v -4.0625 z M 6.296875,-3.4375 H 3.71875 v 0.859375 h 2.578125 z m 0,1.40625 H 3.71875 V -1.125 h 2.578125 z m -1.75,-5.8125 v 3.0625 H 1.65625 V 0.703125 H 0.953125 V -7.84375 Z m -2.890625,0.5625 v 0.703125 h 2.25 V -7.28125 Z m 0,1.21875 v 0.734375 h 2.25 V -6.0625 Z m 7.390625,-1.78125 v 7.703125 c 0,0.332031 -0.078125,0.550781 -0.234375,0.65625 -0.117187,0.082031 -0.328125,0.125 -0.640625,0.125 C 7.722656,0.640625 7.332031,0.617188 7,0.578125 L 6.90625,-0.15625 c 0.445313,0.0625 0.816406,0.09375 1.109375,0.09375 0.21875,0 0.328125,-0.101563 0.328125,-0.3125 V -4.78125 H 5.375 v -3.0625 z m -3.03125,0.5625 v 0.703125 H 8.34375 V -7.28125 Z m 0,1.21875 v 0.734375 H 8.34375 V -6.0625 Z m 0,0"
             style="fill:#000000;fill-opacity:1;stroke:none;stroke-width:0"
             inkscape:connector-curvature="0" />
        </g>
        <g
           id="g3599"
           style="fill:#000000;fill-opacity:1">
          <path
             id="path3593"
             transform="translate(256.809,217.768)"
             d="M 2.546875,2.5 V 2.09375 h -0.96875 v -9.171875 h 0.96875 v -0.40625 h -1.375 V 2.5 Z m 0,0"
             style="fill:#000000;fill-opacity:1;stroke:none;stroke-width:0"
             inkscape:connector-curvature="0" />
          <path
             id="path3595"
             transform="translate(259.57662,217.768)"
             d="m 2.078125,-1.9375 c 0.21875,0.046875 1.03125,0.203125 1.03125,0.921875 0,0.5 -0.34375,0.90625 -1.125,0.90625 -0.84375,0 -1.203125,-0.5625 -1.390625,-1.421875 C 0.5625,-1.65625 0.5625,-1.6875 0.453125,-1.6875 c -0.125,0 -0.125,0.0625 -0.125,0.234375 V -0.125 c 0,0.171875 0,0.234375 0.109375,0.234375 0.046875,0 0.0625,-0.015625 0.25,-0.203125 0.015625,-0.015625 0.015625,-0.03125 0.203125,-0.21875 0.4375,0.40625 0.890625,0.421875 1.09375,0.421875 1.140625,0 1.609375,-0.671875 1.609375,-1.390625 0,-0.515625 -0.296875,-0.828125 -0.421875,-0.9375 C 2.84375,-2.546875 2.453125,-2.625 2.03125,-2.703125 1.46875,-2.8125 0.8125,-2.9375 0.8125,-3.515625 c 0,-0.359375 0.25,-0.765625 1.109375,-0.765625 1.09375,0 1.15625,0.90625 1.171875,1.203125 0,0.09375 0.09375,0.09375 0.109375,0.09375 0.140625,0 0.140625,-0.046875 0.140625,-0.234375 v -1.015625 c 0,-0.15625 0,-0.234375 -0.109375,-0.234375 -0.046875,0 -0.078125,0 -0.203125,0.125 -0.03125,0.03125 -0.125,0.125 -0.171875,0.15625 -0.375,-0.28125 -0.78125,-0.28125 -0.9375,-0.28125 -1.21875,0 -1.59375,0.671875 -1.59375,1.234375 0,0.34375 0.15625,0.625 0.421875,0.84375 0.328125,0.25 0.609375,0.3125 1.328125,0.453125 z m 0,0"
             style="fill:#000000;fill-opacity:1;stroke:none;stroke-width:0"
             inkscape:connector-curvature="0" />
          <path
             id="path3597"
             transform="translate(263.50589,217.768)"
             d="M 1.578125,-7.484375 H 0.21875 v 0.40625 H 1.1875 V 2.09375 H 0.21875 V 2.5 h 1.359375 z m 0,0"
             style="fill:#000000;fill-opacity:1;stroke:none;stroke-width:0"
             inkscape:connector-curvature="0" />
        </g>
        <g
           id="g3603"
           style="fill:#000000;fill-opacity:1">
          <path
             id="path3601"
             transform="translate(269.03316,217.768)"
             d="m 6.84375,-3.265625 c 0.15625,0 0.34375,0 0.34375,-0.1875 C 7.1875,-3.65625 7,-3.65625 6.859375,-3.65625 h -5.96875 c -0.140625,0 -0.328125,0 -0.328125,0.203125 0,0.1875 0.1875,0.1875 0.328125,0.1875 z m 0.015625,1.9375 c 0.140625,0 0.328125,0 0.328125,-0.203125 0,-0.1875 -0.1875,-0.1875 -0.34375,-0.1875 H 0.890625 c -0.140625,0 -0.328125,0 -0.328125,0.1875 0,0.203125 0.1875,0.203125 0.328125,0.203125 z m 0,0"
             style="fill:#000000;fill-opacity:1;stroke:none;stroke-width:0"
             inkscape:connector-curvature="0" />
        </g>
        <g
           id="g3611"
           style="fill:#000000;fill-opacity:1">
          <path
             id="path3605"
             transform="translate(279.55171,217.768)"
             d="m 2.078125,-1.9375 c 0.21875,0.046875 1.03125,0.203125 1.03125,0.921875 0,0.5 -0.34375,0.90625 -1.125,0.90625 -0.84375,0 -1.203125,-0.5625 -1.390625,-1.421875 C 0.5625,-1.65625 0.5625,-1.6875 0.453125,-1.6875 c -0.125,0 -0.125,0.0625 -0.125,0.234375 V -0.125 c 0,0.171875 0,0.234375 0.109375,0.234375 0.046875,0 0.0625,-0.015625 0.25,-0.203125 0.015625,-0.015625 0.015625,-0.03125 0.203125,-0.21875 0.4375,0.40625 0.890625,0.421875 1.09375,0.421875 1.140625,0 1.609375,-0.671875 1.609375,-1.390625 0,-0.515625 -0.296875,-0.828125 -0.421875,-0.9375 C 2.84375,-2.546875 2.453125,-2.625 2.03125,-2.703125 1.46875,-2.8125 0.8125,-2.9375 0.8125,-3.515625 c 0,-0.359375 0.25,-0.765625 1.109375,-0.765625 1.09375,0 1.15625,0.90625 1.171875,1.203125 0,0.09375 0.09375,0.09375 0.109375,0.09375 0.140625,0 0.140625,-0.046875 0.140625,-0.234375 v -1.015625 c 0,-0.15625 0,-0.234375 -0.109375,-0.234375 -0.046875,0 -0.078125,0 -0.203125,0.125 -0.03125,0.03125 -0.125,0.125 -0.171875,0.15625 -0.375,-0.28125 -0.78125,-0.28125 -0.9375,-0.28125 -1.21875,0 -1.59375,0.671875 -1.59375,1.234375 0,0.34375 0.15625,0.625 0.421875,0.84375 0.328125,0.25 0.609375,0.3125 1.328125,0.453125 z m 0,0"
             style="fill:#000000;fill-opacity:1;stroke:none;stroke-width:0"
             inkscape:connector-curvature="0" />
          <path
             id="path3607"
             transform="translate(283.48098,217.768)"
             d="M 1.109375,-2.515625 C 1.171875,-4 2.015625,-4.25 2.359375,-4.25 c 1.015625,0 1.125,1.34375 1.125,1.734375 z m 0,0.21875 h 2.78125 c 0.21875,0 0.25,0 0.25,-0.21875 0,-0.984375 -0.546875,-1.953125 -1.78125,-1.953125 -1.15625,0 -2.078125,1.03125 -2.078125,2.28125 0,1.328125 1.046875,2.296875 2.1875,2.296875 C 3.6875,0.109375 4.140625,-1 4.140625,-1.1875 4.140625,-1.28125 4.0625,-1.3125 4,-1.3125 c -0.078125,0 -0.109375,0.0625 -0.125,0.140625 -0.34375,1.03125 -1.25,1.03125 -1.34375,1.03125 -0.5,0 -0.890625,-0.296875 -1.125,-0.671875 -0.296875,-0.46875 -0.296875,-1.125 -0.296875,-1.484375 z m 0,0"
             style="fill:#000000;fill-opacity:1;stroke:none;stroke-width:0"
             inkscape:connector-curvature="0" />
          <path
             id="path3609"
             transform="translate(287.90838,217.768)"
             d="m 1.171875,-2.171875 c 0,-1.625 0.8125,-2.046875 1.34375,-2.046875 0.09375,0 0.71875,0.015625 1.0625,0.375 -0.40625,0.03125 -0.46875,0.328125 -0.46875,0.453125 0,0.265625 0.1875,0.453125 0.453125,0.453125 0.265625,0 0.46875,-0.15625 0.46875,-0.46875 0,-0.671875 -0.765625,-1.0625 -1.53125,-1.0625 -1.25,0 -2.15625,1.078125 -2.15625,2.3125 0,1.28125 0.984375,2.265625 2.140625,2.265625 1.328125,0 1.65625,-1.203125 1.65625,-1.296875 0,-0.09375 -0.109375,-0.09375 -0.140625,-0.09375 -0.078125,0 -0.109375,0.03125 -0.125,0.09375 -0.28125,0.921875 -0.9375,1.046875 -1.296875,1.046875 -0.53125,0 -1.40625,-0.421875 -1.40625,-2.03125 z m 0,0"
             style="fill:#000000;fill-opacity:1;stroke:none;stroke-width:0"
             inkscape:connector-curvature="0" />
        </g>
        <g
           id="g3615"
           style="fill:#000000;fill-opacity:1">
          <path
             id="path3613"
             transform="translate(295.10539,217.768)"
             d="m 6.84375,-3.265625 c 0.15625,0 0.34375,0 0.34375,-0.1875 C 7.1875,-3.65625 7,-3.65625 6.859375,-3.65625 h -5.96875 c -0.140625,0 -0.328125,0 -0.328125,0.203125 0,0.1875 0.1875,0.1875 0.328125,0.1875 z m 0.015625,1.9375 c 0.140625,0 0.328125,0 0.328125,-0.203125 0,-0.1875 -0.1875,-0.1875 -0.34375,-0.1875 H 0.890625 c -0.140625,0 -0.328125,0 -0.328125,0.1875 0,0.203125 0.1875,0.203125 0.328125,0.203125 z m 0,0"
             style="fill:#000000;fill-opacity:1;stroke:none;stroke-width:0"
             inkscape:connector-curvature="0" />
        </g>
        <g
           id="g3619"
           style="fill:#000000;fill-opacity:1">
          <path
             id="path3617"
             transform="translate(318.71,211.028)"
             d="m 2.9375,-6.375 c 0,-0.25 0,-0.265625 -0.234375,-0.265625 C 2.078125,-6 1.203125,-6 0.890625,-6 v 0.3125 c 0.203125,0 0.78125,0 1.296875,-0.265625 v 5.171875 c 0,0.359375 -0.03125,0.46875 -0.921875,0.46875 h -0.3125 V 0 c 0.34375,-0.03125 1.203125,-0.03125 1.609375,-0.03125 0.390625,0 1.265625,0 1.609375,0.03125 v -0.3125 h -0.3125 c -0.90625,0 -0.921875,-0.109375 -0.921875,-0.46875 z m 0,0"
             style="fill:#000000;fill-opacity:1;stroke:none;stroke-width:0"
             inkscape:connector-curvature="0" />
        </g>
        <path
           id="path3621"
           transform="matrix(1,0,0,-1,306.822,215.277)"
           d="M -0.0016875,-3.4375e-4 H 28.760031"
           style="fill:#000000;fill-opacity:1;stroke:#000000;stroke-width:0.398;stroke-linecap:butt;stroke-linejoin:miter;stroke-miterlimit:10;stroke-opacity:1"
           inkscape:connector-curvature="0" />
        <g
           id="g3629"
           style="fill:#000000;fill-opacity:1">
          <path
             id="path3623"
             transform="translate(306.822,225.108)"
             d="m 8.8125,-7.78125 v 7.484375 c 0,0.28125 -0.058594,0.476563 -0.171875,0.59375 -0.125,0.15625 -0.414062,0.234375 -0.859375,0.234375 -0.417969,0 -0.945312,-0.027344 -1.578125,-0.078125 L 6.03125,-0.328125 c 0.582031,0.085937 1.097656,0.125 1.546875,0.125 0.226563,0 0.375,-0.050781 0.4375,-0.15625 0.039063,-0.0625 0.0625,-0.171875 0.0625,-0.328125 V -7.15625 H 2.15625 v 2.859375 C 2.15625,-2.890625 2.109375,-1.875 2.015625,-1.25 1.898438,-0.5 1.632813,0.175781 1.21875,0.78125 L 0.609375,0.1875 C 0.972656,-0.300781 1.207031,-0.941406 1.3125,-1.734375 1.382813,-2.296875 1.421875,-3.101563 1.421875,-4.15625 v -3.625 z m -4.96875,6.6875 v 0.75 H 3.15625 V -3.3125 h 3.796875 v 2.21875 z M 6.265625,-1.6875 V -2.734375 H 3.84375 V -1.6875 Z M 5.375,-5.96875 H 7.40625 V -5.375 H 5.375 v 0.828125 h 2.34375 v 0.59375 H 2.515625 v -0.59375 H 4.6875 V -5.375 h -1.875 v -0.59375 h 1.875 V -6.796875 H 5.375 Z m 0,0"
             style="fill:#000000;fill-opacity:1;stroke:none;stroke-width:0"
             inkscape:connector-curvature="0" />
          <path
             id="path3625"
             transform="translate(316.40824,225.108)"
             d="m 7.25,-1.3125 c 0.601563,0.480469 1.363281,0.898437 2.28125,1.25 L 9.046875,0.59375 C 8.140625,0.207031 7.378906,-0.253906 6.765625,-0.796875 5.992188,-0.117188 5.191406,0.40625 4.359375,0.78125 l -0.46875,-0.625 c 0.894531,-0.300781 1.6875,-0.785156 2.375,-1.453125 C 5.628906,-1.960938 5.132813,-2.78125 4.78125,-3.75 H 4.3125 v 0.09375 C 4.300781,-2.53125 4.171875,-1.601563 3.921875,-0.875 3.742188,-0.34375 3.457031,0.179688 3.0625,0.703125 L 2.515625,0.1875 C 3.035156,-0.488281 3.363281,-1.222656 3.5,-2.015625 3.582031,-2.503906 3.625,-3.132813 3.625,-3.90625 v -2.9375 h 2.421875 v -1.453125 h 0.6875 v 1.453125 h 2.25 l 0.421875,0.375 C 9.21875,-5.90625 8.957031,-5.347656 8.625,-4.796875 L 7.96875,-5.0625 c 0.226563,-0.351563 0.421875,-0.734375 0.578125,-1.140625 h -1.8125 V -4.375 h 1.75 l 0.40625,0.390625 C 8.410156,-2.859375 7.863281,-1.96875 7.25,-1.3125 Z M 6.734375,-1.78125 c 0.5625,-0.6875 0.976563,-1.34375 1.25,-1.96875 H 5.5 c 0.332031,0.792969 0.742188,1.449219 1.234375,1.96875 z m -0.6875,-4.421875 H 4.3125 V -4.375 h 1.734375 z m -5.40625,6.1875 C 1.265625,-0.804688 1.847656,-1.800781 2.390625,-3 L 2.90625,-2.4375 C 2.414063,-1.289063 1.859375,-0.273438 1.234375,0.609375 Z m 1.453125,-3.71875 c -0.4375,-0.5 -0.9375,-0.941406 -1.5,-1.328125 L 1.0625,-5.625 c 0.570313,0.386719 1.085938,0.824219 1.546875,1.3125 z m 0.296875,-2.3125 C 1.890625,-6.578125 1.40625,-7.007813 0.9375,-7.34375 l 0.46875,-0.5625 c 0.5,0.335937 0.988281,0.757812 1.46875,1.265625 z m 0,0"
             style="fill:#000000;fill-opacity:1;stroke:none;stroke-width:0"
             inkscape:connector-curvature="0" />
          <path
             id="path3627"
             transform="translate(325.99448,225.108)"
             d="m 4.453125,-2.421875 c -0.117187,0.5625 -0.335937,1.09375 -0.65625,1.59375 0.207031,0.09375 0.550781,0.265625 1.03125,0.515625 l -0.4375,0.609375 C 4.109375,0.0976563 3.757813,-0.109375 3.34375,-0.328125 2.75,0.191406 2,0.5625 1.09375,0.78125 L 0.65625,0.203125 c 0.875,-0.15625 1.566406,-0.4375 2.078125,-0.84375 -0.554687,-0.25 -1.085937,-0.460938 -1.59375,-0.640625 C 1.398438,-1.644531 1.617188,-2 1.796875,-2.34375 l 0.03125,-0.078125 H 0.5625 v -0.59375 H 2.09375 C 2.164063,-3.160156 2.285156,-3.445313 2.453125,-3.875 l 0.1875,0.046875 v -1.4375 c -0.460937,0.65625 -1.054687,1.214844 -1.78125,1.671875 L 0.4375,-4.15625 c 0.769531,-0.363281 1.421875,-0.875 1.953125,-1.53125 H 0.59375 v -0.578125 h 2.046875 v -2.03125 h 0.65625 v 2.03125 H 5.15625 V -5.6875 H 3.296875 v 0.203125 C 3.867188,-5.253906 4.425781,-4.96875 4.96875,-4.625 L 4.625,-4.03125 C 4.195313,-4.382813 3.753906,-4.6875 3.296875,-4.9375 v 1.234375 H 3.078125 C 3.035156,-3.617188 2.984375,-3.5 2.921875,-3.34375 2.859375,-3.175781 2.8125,-3.066406 2.78125,-3.015625 h 2.5 v 0.59375 z m -0.671875,0 H 2.515625 c -0.136719,0.292969 -0.292969,0.578125 -0.46875,0.859375 0.257813,0.09375 0.644531,0.25 1.15625,0.46875 0.269531,-0.363281 0.460938,-0.804688 0.578125,-1.328125 z M 6.8125,-1.8125 C 6.382813,-2.457031 6.0625,-3.226563 5.84375,-4.125 5.675781,-3.75 5.515625,-3.425781 5.359375,-3.15625 L 4.84375,-3.765625 c 0.601563,-1.070313 1.03125,-2.570313 1.28125,-4.5 L 6.8125,-8.125 c -0.085937,0.554687 -0.167969,1.074219 -0.25,1.5625 h 2.828125 v 0.65625 H 8.59375 C 8.488281,-4.34375 8.160156,-2.992188 7.609375,-1.859375 8.179688,-1.140625 8.84375,-0.5625 9.59375,-0.125 l -0.5,0.71875 C 8.4375,0.0820313 7.816406,-0.523438 7.234375,-1.234375 6.691406,-0.441406 6.019531,0.207031 5.21875,0.71875 L 4.734375,0.125 C 5.628906,-0.382813 6.320313,-1.03125 6.8125,-1.8125 Z M 7.171875,-2.484375 C 7.535156,-3.316406 7.78125,-4.457031 7.90625,-5.90625 h -1.5 c -0.0625,0.273437 -0.132812,0.527344 -0.203125,0.765625 0.00781,0.042969 0.019531,0.09375 0.03125,0.15625 0.195313,0.96875 0.507813,1.804687 0.9375,2.5 z M 1.5625,-6.4375 C 1.4375,-6.875 1.25,-7.296875 1,-7.703125 l 0.640625,-0.25 c 0.207031,0.3125 0.410156,0.742187 0.609375,1.28125 z M 3.625,-6.671875 c 0.238281,-0.4375 0.429688,-0.882813 0.578125,-1.34375 l 0.6875,0.203125 C 4.722656,-7.382813 4.488281,-6.929688 4.1875,-6.453125 Z m 0,0"
             style="fill:#000000;fill-opacity:1;stroke:none;stroke-width:0"
             inkscape:connector-curvature="0" />
        </g>
      </g>
    </g>
    <g
       id="g3982"
       ns1:jacobian_sqrt="1.411111"
       inkscapeversion="0.92.4"
       ns1:alignment="middle center"
       ns1:scale="4.0"
       ns1:preamble="C:\\Users\\h_sasaki\\AppData\\Roaming\\inkscape\\extensions\\textext\\luatex.tex"
       ns1:text="$ G\'(\\omega) = \\displaystyle \\int_{-\\infty}^{\\infty} \\mathcal{H}(\\ln \\tau ) \\dfrac{\\omega^2 \\tau^2}{1+\\omega^2\\tau^2} \\mathrm{d}(\\ln \\tau) $"
       ns1:pdfconverter="pdf2svg"
       ns1:texconverter="lualatex"
       ns1:version="0.10.1"
       transform="matrix(1.411111,0,0,1.411111,-158.16488,-170.81025)"
       inkscape:export-xdpi="600"
       inkscape:export-ydpi="600">
      <g
         id="g3980">
        <g
           id="g3864"
           style="fill:#000000;fill-opacity:1">
          <path
             id="path3862"
             transform="translate(148.712,139.651)"
             d="m 7.578125,-6.921875 c 0,-0.03125 -0.015625,-0.109375 -0.109375,-0.109375 -0.03125,0 -0.046875,0.015625 -0.15625,0.125 L 6.625,-6.140625 C 6.53125,-6.28125 6.078125,-7.03125 4.96875,-7.03125 2.734375,-7.03125 0.5,-4.828125 0.5,-2.515625 c 0,1.59375 1.109375,2.734375 2.71875,2.734375 0.4375,0 0.890625,-0.09375 1.25,-0.234375 0.5,-0.203125 0.6875,-0.40625 0.859375,-0.609375 0.09375,0.25 0.359375,0.609375 0.453125,0.609375 0.046875,0 0.078125,-0.03125 0.078125,-0.03125 C 5.875,-0.0625 5.96875,-0.453125 6.015625,-0.65625 l 0.1875,-0.765625 C 6.25,-1.59375 6.296875,-1.765625 6.34375,-1.9375 c 0.109375,-0.4375 0.109375,-0.46875 0.6875,-0.46875 0.046875,0 0.15625,-0.015625 0.15625,-0.203125 0,-0.078125 -0.046875,-0.109375 -0.125,-0.109375 -0.234375,0 -0.828125,0.03125 -1.046875,0.03125 -0.3125,0 -1.09375,-0.03125 -1.40625,-0.03125 -0.078125,0 -0.203125,0 -0.203125,0.203125 0,0.109375 0.078125,0.109375 0.296875,0.109375 0.015625,0 0.296875,0 0.53125,0.015625 0.265625,0.03125 0.3125,0.0625 0.3125,0.1875 0,0.09375 -0.109375,0.53125 -0.21875,0.90625 -0.28125,1.09375 -1.5625,1.203125 -1.921875,1.203125 -0.953125,0 -2,-0.5625 -2,-2.09375 0,-0.3125 0.09375,-1.953125 1.140625,-3.25 0.546875,-0.671875 1.515625,-1.28125 2.5,-1.28125 1.015625,0 1.609375,0.765625 1.609375,1.921875 0,0.40625 -0.03125,0.40625 -0.03125,0.515625 0,0.09375 0.109375,0.09375 0.140625,0.09375 0.125,0 0.125,-0.015625 0.1875,-0.203125 z m 0,0"
             style="stroke:none;stroke-width:0"
             inkscape:connector-curvature="0" />
        </g>
        <g
           id="g3868"
           style="fill:#000000;fill-opacity:1">
          <path
             id="path3866"
             transform="translate(156.545,136.036)"
             d="m 2.015625,-3.296875 c 0.0625,-0.109375 0.0625,-0.171875 0.0625,-0.21875 0,-0.21875 -0.1875,-0.375 -0.40625,-0.375 -0.265625,0 -0.34375,0.21875 -0.375,0.328125 L 0.375,-0.546875 c -0.015625,0.015625 -0.046875,0.09375 -0.046875,0.109375 0,0.078125 0.21875,0.15625 0.28125,0.15625 0.046875,0 0.046875,-0.015625 0.09375,-0.125 z m 0,0"
             style="stroke:none;stroke-width:0"
             inkscape:connector-curvature="0" />
        </g>
        <g
           id="g3872"
           style="fill:#000000;fill-opacity:1">
          <path
             id="path3870"
             transform="translate(159.341,139.651)"
             d="m 3.296875,2.390625 c 0,-0.03125 0,-0.046875 -0.171875,-0.21875 C 1.890625,0.921875 1.5625,-0.96875 1.5625,-2.5 c 0,-1.734375 0.375,-3.46875 1.609375,-4.703125 0.125,-0.125 0.125,-0.140625 0.125,-0.171875 0,-0.078125 -0.03125,-0.109375 -0.09375,-0.109375 -0.109375,0 -1,0.6875 -1.59375,1.953125 -0.5,1.09375 -0.625,2.203125 -0.625,3.03125 0,0.78125 0.109375,1.984375 0.65625,3.125 C 2.25,1.84375 3.09375,2.5 3.203125,2.5 c 0.0625,0 0.09375,-0.03125 0.09375,-0.109375 z m 0,0"
             style="stroke:none;stroke-width:0"
             inkscape:connector-curvature="0" />
        </g>
        <g
           id="g3876"
           style="fill:#000000;fill-opacity:1">
          <path
             id="path3874"
             transform="translate(163.215,139.651)"
             d="m 6.03125,-3.703125 c 0,-0.453125 -0.171875,-0.703125 -0.40625,-0.703125 -0.25,0 -0.515625,0.234375 -0.515625,0.46875 0,0.09375 0.046875,0.203125 0.140625,0.296875 0.171875,0.15625 0.359375,0.421875 0.359375,0.84375 0,0.390625 -0.203125,0.96875 -0.5,1.421875 C 4.8125,-0.953125 4.4375,-0.609375 3.96875,-0.609375 3.40625,-0.609375 3.09375,-0.96875 3,-1.5 c 0.109375,-0.265625 0.34375,-0.90625 0.34375,-1.1875 0,-0.109375 -0.046875,-0.21875 -0.1875,-0.21875 -0.078125,0 -0.1875,0.03125 -0.265625,0.171875 C 2.78125,-2.53125 2.65625,-1.890625 2.65625,-1.53125 2.328125,-1.0625 1.9375,-0.609375 1.3125,-0.609375 c -0.671875,0 -0.875,-0.59375 -0.875,-1.140625 0,-1.25 1.015625,-2.296875 1.015625,-2.421875 0,-0.109375 -0.078125,-0.1875 -0.1875,-0.1875 -0.125,0 -0.203125,0.125 -0.265625,0.21875 -0.5,0.734375 -0.875,1.921875 -0.875,2.828125 0,0.6875 0.21875,1.421875 1.046875,1.421875 0.703125,0 1.171875,-0.5 1.53125,-1.046875 0.09375,0.578125 0.484375,1.046875 1.09375,1.046875 0.78125,0 1.25,-0.609375 1.609375,-1.359375 0.25,-0.484375 0.625,-1.84375 0.625,-2.453125 z m 0,0"
             style="stroke:none;stroke-width:0"
             inkscape:connector-curvature="0" />
        </g>
        <g
           id="g3880"
           style="fill:#000000;fill-opacity:1">
          <path
             id="path3878"
             transform="translate(169.774,139.651)"
             d="m 2.875,-2.5 c 0,-0.765625 -0.109375,-1.96875 -0.65625,-3.109375 -0.59375,-1.21875 -1.453125,-1.875 -1.546875,-1.875 -0.0625,0 -0.109375,0.046875 -0.109375,0.109375 0,0.03125 0,0.046875 0.1875,0.234375 0.984375,0.984375 1.546875,2.5625 1.546875,4.640625 0,1.71875 -0.359375,3.46875 -1.59375,4.71875 C 0.5625,2.34375 0.5625,2.359375 0.5625,2.390625 0.5625,2.453125 0.609375,2.5 0.671875,2.5 0.765625,2.5 1.671875,1.8125 2.25,0.546875 2.765625,-0.546875 2.875,-1.65625 2.875,-2.5 Z m 0,0"
             style="stroke:none;stroke-width:0"
             inkscape:connector-curvature="0" />
        </g>
        <g
           id="g3884"
           style="fill:#000000;fill-opacity:1">
          <path
             id="path3882"
             transform="translate(176.40812,139.651)"
             d="m 6.84375,-3.265625 c 0.15625,0 0.34375,0 0.34375,-0.1875 C 7.1875,-3.65625 7,-3.65625 6.859375,-3.65625 h -5.96875 c -0.140625,0 -0.328125,0 -0.328125,0.203125 0,0.1875 0.1875,0.1875 0.328125,0.1875 z m 0.015625,1.9375 c 0.140625,0 0.328125,0 0.328125,-0.203125 0,-0.1875 -0.1875,-0.1875 -0.34375,-0.1875 H 0.890625 c -0.140625,0 -0.328125,0 -0.328125,0.1875 0,0.203125 0.1875,0.203125 0.328125,0.203125 z m 0,0"
             style="stroke:none;stroke-width:0"
             inkscape:connector-curvature="0" />
        </g>
        <g
           id="g3888"
           style="fill:#000000;fill-opacity:1">
          <path
             id="path3886"
             transform="translate(186.931,126.091)"
             d="m 1.03125,21.703125 c 0.328125,-0.01563 0.5,-0.234375 0.5,-0.484375 0,-0.328125 -0.25,-0.5 -0.484375,-0.5 -0.234375,0 -0.484375,0.15625 -0.484375,0.5 0,0.515625 0.5,0.9375 1.109375,0.9375 1.515625,0 2.078125,-2.34375 2.78125,-5.234375 C 5.21875,13.78125 5.875,10.59375 6.40625,7.390625 6.78125,5.28125 7.140625,3.28125 7.484375,2 7.609375,1.5 7.9375,0.21875 8.328125,0.21875 c 0.3125,0 0.5625,0.1875 0.609375,0.234375 -0.328125,0.015625 -0.5,0.234375 -0.5,0.484375 0,0.328125 0.25,0.484375 0.46875,0.484375 0.25,0 0.5,-0.140625 0.5,-0.5 C 9.40625,0.390625 8.859375,0 8.3125,0 7.5625,0 7,1.09375 6.453125,3.125 6.421875,3.234375 5.0625,8.234375 3.96875,14.75 3.703125,16.28125 3.421875,17.9375 3.09375,19.328125 2.90625,20.0625 2.453125,21.9375 1.640625,21.9375 c -0.359375,0 -0.59375,-0.234375 -0.609375,-0.234375 z m 0,0"
             style="stroke:none;stroke-width:0"
             inkscape:connector-curvature="0" />
        </g>
        <g
           id="g3892"
           style="fill:#000000;fill-opacity:1">
          <path
             id="path3890"
             transform="translate(196.894,128.554)"
             d="m 4.03125,-1.90625 c -0.375,-0.4375 -0.484375,-0.546875 -0.75,-0.734375 -0.421875,-0.3125 -0.875,-0.4375 -1.25,-0.4375 -0.875,0 -1.5,0.75 -1.5,1.578125 0,0.8125 0.609375,1.5625 1.46875,1.5625 0.96875,0 1.65625,-0.78125 1.90625,-1.15625 0.359375,0.4375 0.484375,0.546875 0.734375,0.734375 0.4375,0.3125 0.875,0.421875 1.265625,0.421875 0.859375,0 1.484375,-0.734375 1.484375,-1.5625 0,-0.828125 -0.59375,-1.578125 -1.46875,-1.578125 -0.96875,0 -1.640625,0.796875 -1.890625,1.171875 z m 0.21875,0.25 c 0.28125,-0.453125 0.890625,-1.15625 1.734375,-1.15625 0.71875,0 1.21875,0.640625 1.21875,1.3125 0,0.65625 -0.546875,1.1875 -1.1875,1.1875 -0.65625,0 -1.09375,-0.53125 -1.765625,-1.34375 z M 3.671875,-1.359375 C 3.40625,-0.90625 2.796875,-0.1875 1.9375,-0.1875 c -0.71875,0 -1.203125,-0.640625 -1.203125,-1.3125 0,-0.671875 0.546875,-1.1875 1.1875,-1.1875 0.640625,0 1.09375,0.53125 1.75,1.328125 z m 0,0"
             style="stroke:none;stroke-width:0"
             inkscape:connector-curvature="0" />
        </g>
        <g
           id="g3898"
           style="fill:#000000;fill-opacity:1">
          <path
             id="path3894"
             transform="translate(192.466,148.729)"
             d="m 5.1875,-1.578125 c 0.109375,0 0.28125,0 0.28125,-0.15625 0,-0.1875 -0.171875,-0.1875 -0.28125,-0.1875 H 1.03125 c -0.109375,0 -0.28125,0 -0.28125,0.171875 0,0.171875 0.15625,0.171875 0.28125,0.171875 z m 0,0"
             style="stroke:none;stroke-width:0"
             inkscape:connector-curvature="0" />
          <path
             id="path3896"
             transform="translate(198.69295,148.729)"
             d="m 4.03125,-1.90625 c -0.375,-0.4375 -0.484375,-0.546875 -0.75,-0.734375 -0.421875,-0.3125 -0.875,-0.4375 -1.25,-0.4375 -0.875,0 -1.5,0.75 -1.5,1.578125 0,0.8125 0.609375,1.5625 1.46875,1.5625 0.96875,0 1.65625,-0.78125 1.90625,-1.15625 0.359375,0.4375 0.484375,0.546875 0.734375,0.734375 0.4375,0.3125 0.875,0.421875 1.265625,0.421875 0.859375,0 1.484375,-0.734375 1.484375,-1.5625 0,-0.828125 -0.59375,-1.578125 -1.46875,-1.578125 -0.96875,0 -1.640625,0.796875 -1.890625,1.171875 z m 0.21875,0.25 c 0.28125,-0.453125 0.890625,-1.15625 1.734375,-1.15625 0.71875,0 1.21875,0.640625 1.21875,1.3125 0,0.65625 -0.546875,1.1875 -1.1875,1.1875 -0.65625,0 -1.09375,-0.53125 -1.765625,-1.34375 z M 3.671875,-1.359375 C 3.40625,-0.90625 2.796875,-0.1875 1.9375,-0.1875 c -0.71875,0 -1.203125,-0.640625 -1.203125,-1.3125 0,-0.671875 0.546875,-1.1875 1.1875,-1.1875 0.640625,0 1.09375,0.53125 1.75,1.328125 z m 0,0"
             style="stroke:none;stroke-width:0"
             inkscape:connector-curvature="0" />
        </g>
        <g
           id="g3902"
           style="fill:#000000;fill-opacity:1">
          <path
             id="path3900"
             transform="translate(208.794,139.651)"
             d="M 3.296875,-3.34375 C 3.421875,-3.8125 3.5625,-4.3125 3.65625,-4.796875 3.78125,-5.46875 3.84375,-6.125 3.84375,-6.25 c 0,-0.5625 -0.546875,-0.5625 -0.65625,-0.5625 -0.765625,0 -1.4375,0.28125 -1.90625,0.609375 C 0.46875,-5.65625 0.203125,-5 0.203125,-4.9375 c 0,0.0625 0.078125,0.0625 0.109375,0.0625 0.078125,0 0.546875,-0.125 0.75,-0.5 0.265625,-0.5 0.5625,-0.890625 1.453125,-0.890625 C 2.9375,-6.265625 3,-5.984375 3,-5.828125 3,-5.8125 2.96875,-5.34375 2.84375,-4.65625 2.796875,-4.375 2.765625,-4.203125 2.5625,-3.34375 H 2.203125 c -0.28125,0.015625 -0.734375,0.328125 -0.734375,0.484375 0,0.0625 0,0.0625 0.21875,0.0625 h 0.71875 c -0.203125,0.703125 -0.484375,1.65625 -0.9375,2.875 C 1.375,0.3125 1.375,0.328125 1.375,0.34375 c 0,0.0625 0.078125,0.0625 0.09375,0.0625 0.140625,0 0.453125,-0.125 0.65625,-0.328125 C 2.171875,0.015625 2.1875,0 2.234375,-0.09375 2.578125,-0.984375 2.875,-1.875 3.140625,-2.796875 h 2.25 c 0.109375,0 0.296875,0 0.453125,-0.09375 -0.109375,0.421875 -0.515625,2.046875 -0.515625,2.828125 0,0.296875 0.171875,0.546875 0.59375,0.546875 1.328125,0 2.0625,-0.828125 2.0625,-1.140625 0,-0.0625 -0.046875,-0.078125 -0.09375,-0.078125 -0.078125,0 -0.609375,0.140625 -0.765625,0.53125 C 7.09375,-0.125 7.078125,-0.125 6.890625,-0.09375 6.78125,-0.0625 6.59375,-0.0625 6.578125,-0.0625 c -0.171875,0 -0.40625,-0.109375 -0.40625,-0.421875 0,-0.125 0.0625,-0.671875 0.09375,-0.890625 C 6.4375,-2.484375 6.921875,-4.359375 7.78125,-6.625 7.8125,-6.703125 7.8125,-6.71875 7.8125,-6.734375 7.8125,-6.8125 7.75,-6.8125 7.71875,-6.8125 c -0.15625,0 -0.4375,0.140625 -0.625,0.3125 -0.015625,0.015625 -0.078125,0.0625 -0.109375,0.15625 -0.40625,0.984375 -0.71875,1.984375 -1.015625,3 z m 0,0"
             style="stroke:none;stroke-width:0"
             inkscape:connector-curvature="0" />
        </g>
        <g
           id="g3910"
           style="fill:#000000;fill-opacity:1">
          <path
             id="path3904"
             transform="translate(217.304,139.651)"
             d="m 3.296875,2.390625 c 0,-0.03125 0,-0.046875 -0.171875,-0.21875 C 1.890625,0.921875 1.5625,-0.96875 1.5625,-2.5 c 0,-1.734375 0.375,-3.46875 1.609375,-4.703125 0.125,-0.125 0.125,-0.140625 0.125,-0.171875 0,-0.078125 -0.03125,-0.109375 -0.09375,-0.109375 -0.109375,0 -1,0.6875 -1.59375,1.953125 -0.5,1.09375 -0.625,2.203125 -0.625,3.03125 0,0.78125 0.109375,1.984375 0.65625,3.125 C 2.25,1.84375 3.09375,2.5 3.203125,2.5 c 0.0625,0 0.09375,-0.03125 0.09375,-0.109375 z m 0,0"
             style="stroke:none;stroke-width:0"
             inkscape:connector-curvature="0" />
          <path
             id="path3906"
             transform="translate(221.17847,139.651)"
             d="M 1.765625,-6.921875 0.328125,-6.8125 V -6.5 c 0.703125,0 0.78125,0.0625 0.78125,0.5625 V -0.75 c 0,0.4375 -0.109375,0.4375 -0.78125,0.4375 V 0 C 0.65625,-0.015625 1.1875,-0.03125 1.4375,-0.03125 c 0.25,0 0.734375,0.015625 1.109375,0.03125 v -0.3125 c -0.671875,0 -0.78125,0 -0.78125,-0.4375 z m 0,0"
             style="stroke:none;stroke-width:0"
             inkscape:connector-curvature="0" />
          <path
             id="path3908"
             transform="translate(223.94609,139.651)"
             d="M 1.09375,-3.421875 V -0.75 c 0,0.4375 -0.109375,0.4375 -0.78125,0.4375 V 0 c 0.359375,-0.015625 0.859375,-0.03125 1.140625,-0.03125 0.25,0 0.765625,0.015625 1.109375,0.03125 v -0.3125 c -0.671875,0 -0.78125,0 -0.78125,-0.4375 V -2.59375 C 1.78125,-3.625 2.5,-4.1875 3.125,-4.1875 c 0.640625,0 0.75,0.53125 0.75,1.109375 V -0.75 c 0,0.4375 -0.109375,0.4375 -0.78125,0.4375 V 0 c 0.34375,-0.015625 0.859375,-0.03125 1.125,-0.03125 0.25,0 0.78125,0.015625 1.109375,0.03125 v -0.3125 c -0.515625,0 -0.765625,0 -0.765625,-0.296875 v -1.90625 c 0,-0.859375 0,-1.15625 -0.3125,-1.515625 -0.140625,-0.171875 -0.46875,-0.375 -1.046875,-0.375 C 2.46875,-4.40625 2,-3.984375 1.71875,-3.359375 V -4.40625 L 0.3125,-4.296875 v 0.3125 c 0.703125,0 0.78125,0.0625 0.78125,0.5625 z m 0,0"
             style="stroke:none;stroke-width:0"
             inkscape:connector-curvature="0" />
        </g>
        <g
           id="g3914"
           style="fill:#000000;fill-opacity:1">
          <path
             id="path3912"
             transform="translate(231.141,139.651)"
             d="m 2.9375,-3.71875 h 1.671875 c 0.125,0 0.484375,0 0.484375,-0.34375 0,-0.234375 -0.203125,-0.234375 -0.40625,-0.234375 H 1.90625 c -0.203125,0 -0.59375,0 -1.03125,0.46875 -0.328125,0.359375 -0.609375,0.84375 -0.609375,0.890625 0,0.015625 0,0.109375 0.125,0.109375 0.078125,0 0.09375,-0.046875 0.15625,-0.125 C 1.03125,-3.71875 1.609375,-3.71875 1.8125,-3.71875 h 0.828125 l -0.96875,3.203125 C 1.625,-0.40625 1.5625,-0.1875 1.5625,-0.15625 c 0,0.109375 0.078125,0.28125 0.296875,0.28125 0.328125,0 0.375,-0.28125 0.40625,-0.4375 z m 0,0"
             style="stroke:none;stroke-width:0"
             inkscape:connector-curvature="0" />
        </g>
        <g
           id="g3918"
           style="fill:#000000;fill-opacity:1">
          <path
             id="path3916"
             transform="translate(236.624,139.651)"
             d="m 2.875,-2.5 c 0,-0.765625 -0.109375,-1.96875 -0.65625,-3.109375 -0.59375,-1.21875 -1.453125,-1.875 -1.546875,-1.875 -0.0625,0 -0.109375,0.046875 -0.109375,0.109375 0,0.03125 0,0.046875 0.1875,0.234375 0.984375,0.984375 1.546875,2.5625 1.546875,4.640625 0,1.71875 -0.359375,3.46875 -1.59375,4.71875 C 0.5625,2.34375 0.5625,2.359375 0.5625,2.390625 0.5625,2.453125 0.609375,2.5 0.671875,2.5 0.765625,2.5 1.671875,1.8125 2.25,0.546875 2.765625,-0.546875 2.875,-1.65625 2.875,-2.5 Z m 0,0"
             style="stroke:none;stroke-width:0"
             inkscape:connector-curvature="0" />
        </g>
        <g
           id="g3922"
           style="fill:#000000;fill-opacity:1">
          <path
             id="path3920"
             transform="translate(250.272,132.912)"
             d="m 6.03125,-3.703125 c 0,-0.453125 -0.171875,-0.703125 -0.40625,-0.703125 -0.25,0 -0.515625,0.234375 -0.515625,0.46875 0,0.09375 0.046875,0.203125 0.140625,0.296875 0.171875,0.15625 0.359375,0.421875 0.359375,0.84375 0,0.390625 -0.203125,0.96875 -0.5,1.421875 C 4.8125,-0.953125 4.4375,-0.609375 3.96875,-0.609375 3.40625,-0.609375 3.09375,-0.96875 3,-1.5 c 0.109375,-0.265625 0.34375,-0.90625 0.34375,-1.1875 0,-0.109375 -0.046875,-0.21875 -0.1875,-0.21875 -0.078125,0 -0.1875,0.03125 -0.265625,0.171875 C 2.78125,-2.53125 2.65625,-1.890625 2.65625,-1.53125 2.328125,-1.0625 1.9375,-0.609375 1.3125,-0.609375 c -0.671875,0 -0.875,-0.59375 -0.875,-1.140625 0,-1.25 1.015625,-2.296875 1.015625,-2.421875 0,-0.109375 -0.078125,-0.1875 -0.1875,-0.1875 -0.125,0 -0.203125,0.125 -0.265625,0.21875 -0.5,0.734375 -0.875,1.921875 -0.875,2.828125 0,0.6875 0.21875,1.421875 1.046875,1.421875 0.703125,0 1.171875,-0.5 1.53125,-1.046875 0.09375,0.578125 0.484375,1.046875 1.09375,1.046875 0.78125,0 1.25,-0.609375 1.609375,-1.359375 0.25,-0.484375 0.625,-1.84375 0.625,-2.453125 z m 0,0"
             style="stroke:none;stroke-width:0"
             inkscape:connector-curvature="0" />
        </g>
        <g
           id="g3926"
           style="fill:#000000;fill-opacity:1">
          <path
             id="path3924"
             transform="translate(256.831,129.296)"
             d="M 3.515625,-1.265625 H 3.28125 c -0.015625,0.15625 -0.09375,0.5625 -0.1875,0.625 C 3.046875,-0.59375 2.515625,-0.59375 2.40625,-0.59375 H 1.125 c 0.734375,-0.640625 0.984375,-0.84375 1.390625,-1.171875 0.515625,-0.40625 1,-0.84375 1,-1.5 0,-0.84375 -0.734375,-1.359375 -1.625,-1.359375 -0.859375,0 -1.453125,0.609375 -1.453125,1.25 0,0.34375 0.296875,0.390625 0.375,0.390625 0.15625,0 0.359375,-0.125 0.359375,-0.375 0,-0.125 -0.046875,-0.375 -0.40625,-0.375 C 0.984375,-4.21875 1.453125,-4.375 1.78125,-4.375 c 0.703125,0 1.0625,0.546875 1.0625,1.109375 0,0.609375 -0.4375,1.078125 -0.65625,1.328125 L 0.515625,-0.265625 C 0.4375,-0.203125 0.4375,-0.1875 0.4375,0 h 2.875 z m 0,0"
             style="stroke:none;stroke-width:0"
             inkscape:connector-curvature="0" />
        </g>
        <g
           id="g3930"
           style="fill:#000000;fill-opacity:1">
          <path
             id="path3928"
             transform="translate(261.3,132.912)"
             d="m 2.9375,-3.71875 h 1.671875 c 0.125,0 0.484375,0 0.484375,-0.34375 0,-0.234375 -0.203125,-0.234375 -0.40625,-0.234375 H 1.90625 c -0.203125,0 -0.59375,0 -1.03125,0.46875 -0.328125,0.359375 -0.609375,0.84375 -0.609375,0.890625 0,0.015625 0,0.109375 0.125,0.109375 0.078125,0 0.09375,-0.046875 0.15625,-0.125 C 1.03125,-3.71875 1.609375,-3.71875 1.8125,-3.71875 h 0.828125 l -0.96875,3.203125 C 1.625,-0.40625 1.5625,-0.1875 1.5625,-0.15625 c 0,0.109375 0.078125,0.28125 0.296875,0.28125 0.328125,0 0.375,-0.28125 0.40625,-0.4375 z m 0,0"
             style="stroke:none;stroke-width:0"
             inkscape:connector-curvature="0" />
        </g>
        <g
           id="g3934"
           style="fill:#000000;fill-opacity:1">
          <path
             id="path3932"
             transform="translate(266.783,129.296)"
             d="M 3.515625,-1.265625 H 3.28125 c -0.015625,0.15625 -0.09375,0.5625 -0.1875,0.625 C 3.046875,-0.59375 2.515625,-0.59375 2.40625,-0.59375 H 1.125 c 0.734375,-0.640625 0.984375,-0.84375 1.390625,-1.171875 0.515625,-0.40625 1,-0.84375 1,-1.5 0,-0.84375 -0.734375,-1.359375 -1.625,-1.359375 -0.859375,0 -1.453125,0.609375 -1.453125,1.25 0,0.34375 0.296875,0.390625 0.375,0.390625 0.15625,0 0.359375,-0.125 0.359375,-0.375 0,-0.125 -0.046875,-0.375 -0.40625,-0.375 C 0.984375,-4.21875 1.453125,-4.375 1.78125,-4.375 c 0.703125,0 1.0625,0.546875 1.0625,1.109375 0,0.609375 -0.4375,1.078125 -0.65625,1.328125 L 0.515625,-0.265625 C 0.4375,-0.203125 0.4375,-0.1875 0.4375,0 h 2.875 z m 0,0"
             style="stroke:none;stroke-width:0"
             inkscape:connector-curvature="0" />
        </g>
        <path
           id="path3936"
           transform="matrix(1,0,0,-1,241.693,137.161)"
           d="M -0.00159375,8.4375e-4 H 38.139031"
           style="fill:none;stroke:#000000;stroke-width:0.398;stroke-linecap:butt;stroke-linejoin:miter;stroke-miterlimit:10;stroke-opacity:1"
           inkscape:connector-curvature="0" />
        <g
           id="g3940"
           style="fill:#000000;fill-opacity:1">
          <path
             id="path3938"
             transform="translate(241.693,146.485)"
             d="m 2.9375,-6.375 c 0,-0.25 0,-0.265625 -0.234375,-0.265625 C 2.078125,-6 1.203125,-6 0.890625,-6 v 0.3125 c 0.203125,0 0.78125,0 1.296875,-0.265625 v 5.171875 c 0,0.359375 -0.03125,0.46875 -0.921875,0.46875 h -0.3125 V 0 c 0.34375,-0.03125 1.203125,-0.03125 1.609375,-0.03125 0.390625,0 1.265625,0 1.609375,0.03125 v -0.3125 h -0.3125 c -0.90625,0 -0.921875,-0.109375 -0.921875,-0.46875 z m 0,0"
             style="stroke:none;stroke-width:0"
             inkscape:connector-curvature="0" />
        </g>
        <g
           id="g3944"
           style="fill:#000000;fill-opacity:1">
          <path
             id="path3942"
             transform="translate(248.88603,146.485)"
             d="m 4.078125,-2.296875 h 2.78125 C 7,-2.296875 7.1875,-2.296875 7.1875,-2.5 7.1875,-2.6875 7,-2.6875 6.859375,-2.6875 h -2.78125 v -2.796875 c 0,-0.140625 0,-0.328125 -0.203125,-0.328125 -0.203125,0 -0.203125,0.1875 -0.203125,0.328125 V -2.6875 h -2.78125 c -0.140625,0 -0.328125,0 -0.328125,0.1875 0,0.203125 0.1875,0.203125 0.328125,0.203125 h 2.78125 V 0.5 c 0,0.140625 0,0.328125 0.203125,0.328125 0.203125,0 0.203125,-0.1875 0.203125,-0.328125 z m 0,0"
             style="stroke:none;stroke-width:0"
             inkscape:connector-curvature="0" />
        </g>
        <g
           id="g3948"
           style="fill:#000000;fill-opacity:1">
          <path
             id="path3946"
             transform="translate(258.851,146.485)"
             d="m 6.03125,-3.703125 c 0,-0.453125 -0.171875,-0.703125 -0.40625,-0.703125 -0.25,0 -0.515625,0.234375 -0.515625,0.46875 0,0.09375 0.046875,0.203125 0.140625,0.296875 0.171875,0.15625 0.359375,0.421875 0.359375,0.84375 0,0.390625 -0.203125,0.96875 -0.5,1.421875 C 4.8125,-0.953125 4.4375,-0.609375 3.96875,-0.609375 3.40625,-0.609375 3.09375,-0.96875 3,-1.5 c 0.109375,-0.265625 0.34375,-0.90625 0.34375,-1.1875 0,-0.109375 -0.046875,-0.21875 -0.1875,-0.21875 -0.078125,0 -0.1875,0.03125 -0.265625,0.171875 C 2.78125,-2.53125 2.65625,-1.890625 2.65625,-1.53125 2.328125,-1.0625 1.9375,-0.609375 1.3125,-0.609375 c -0.671875,0 -0.875,-0.59375 -0.875,-1.140625 0,-1.25 1.015625,-2.296875 1.015625,-2.421875 0,-0.109375 -0.078125,-0.1875 -0.1875,-0.1875 -0.125,0 -0.203125,0.125 -0.265625,0.21875 -0.5,0.734375 -0.875,1.921875 -0.875,2.828125 0,0.6875 0.21875,1.421875 1.046875,1.421875 0.703125,0 1.171875,-0.5 1.53125,-1.046875 0.09375,0.578125 0.484375,1.046875 1.09375,1.046875 0.78125,0 1.25,-0.609375 1.609375,-1.359375 0.25,-0.484375 0.625,-1.84375 0.625,-2.453125 z m 0,0"
             style="stroke:none;stroke-width:0"
             inkscape:connector-curvature="0" />
        </g>
        <g
           id="g3952"
           style="fill:#000000;fill-opacity:1">
          <path
             id="path3950"
             transform="translate(265.41,143.607)"
             d="M 3.515625,-1.265625 H 3.28125 c -0.015625,0.15625 -0.09375,0.5625 -0.1875,0.625 C 3.046875,-0.59375 2.515625,-0.59375 2.40625,-0.59375 H 1.125 c 0.734375,-0.640625 0.984375,-0.84375 1.390625,-1.171875 0.515625,-0.40625 1,-0.84375 1,-1.5 0,-0.84375 -0.734375,-1.359375 -1.625,-1.359375 -0.859375,0 -1.453125,0.609375 -1.453125,1.25 0,0.34375 0.296875,0.390625 0.375,0.390625 0.15625,0 0.359375,-0.125 0.359375,-0.375 0,-0.125 -0.046875,-0.375 -0.40625,-0.375 C 0.984375,-4.21875 1.453125,-4.375 1.78125,-4.375 c 0.703125,0 1.0625,0.546875 1.0625,1.109375 0,0.609375 -0.4375,1.078125 -0.65625,1.328125 L 0.515625,-0.265625 C 0.4375,-0.203125 0.4375,-0.1875 0.4375,0 h 2.875 z m 0,0"
             style="stroke:none;stroke-width:0"
             inkscape:connector-curvature="0" />
        </g>
        <g
           id="g3956"
           style="fill:#000000;fill-opacity:1">
          <path
             id="path3954"
             transform="translate(269.879,146.485)"
             d="m 2.9375,-3.71875 h 1.671875 c 0.125,0 0.484375,0 0.484375,-0.34375 0,-0.234375 -0.203125,-0.234375 -0.40625,-0.234375 H 1.90625 c -0.203125,0 -0.59375,0 -1.03125,0.46875 -0.328125,0.359375 -0.609375,0.84375 -0.609375,0.890625 0,0.015625 0,0.109375 0.125,0.109375 0.078125,0 0.09375,-0.046875 0.15625,-0.125 C 1.03125,-3.71875 1.609375,-3.71875 1.8125,-3.71875 h 0.828125 l -0.96875,3.203125 C 1.625,-0.40625 1.5625,-0.1875 1.5625,-0.15625 c 0,0.109375 0.078125,0.28125 0.296875,0.28125 0.328125,0 0.375,-0.28125 0.40625,-0.4375 z m 0,0"
             style="stroke:none;stroke-width:0"
             inkscape:connector-curvature="0" />
        </g>
        <g
           id="g3960"
           style="fill:#000000;fill-opacity:1">
          <path
             id="path3958"
             transform="translate(275.362,143.607)"
             d="M 3.515625,-1.265625 H 3.28125 c -0.015625,0.15625 -0.09375,0.5625 -0.1875,0.625 C 3.046875,-0.59375 2.515625,-0.59375 2.40625,-0.59375 H 1.125 c 0.734375,-0.640625 0.984375,-0.84375 1.390625,-1.171875 0.515625,-0.40625 1,-0.84375 1,-1.5 0,-0.84375 -0.734375,-1.359375 -1.625,-1.359375 -0.859375,0 -1.453125,0.609375 -1.453125,1.25 0,0.34375 0.296875,0.390625 0.375,0.390625 0.15625,0 0.359375,-0.125 0.359375,-0.375 0,-0.125 -0.046875,-0.375 -0.40625,-0.375 C 0.984375,-4.21875 1.453125,-4.375 1.78125,-4.375 c 0.703125,0 1.0625,0.546875 1.0625,1.109375 0,0.609375 -0.4375,1.078125 -0.65625,1.328125 L 0.515625,-0.265625 C 0.4375,-0.203125 0.4375,-0.1875 0.4375,0 h 2.875 z m 0,0"
             style="stroke:none;stroke-width:0"
             inkscape:connector-curvature="0" />
        </g>
        <g
           id="g3970"
           style="fill:#000000;fill-opacity:1">
          <path
             id="path3962"
             transform="translate(281.027,139.651)"
             d="m 3.78125,-0.546875 v 0.65625 L 5.25,0 v -0.3125 c -0.6875,0 -0.78125,-0.0625 -0.78125,-0.5625 V -6.921875 L 3.046875,-6.8125 V -6.5 c 0.6875,0 0.765625,0.0625 0.765625,0.5625 v 2.15625 c -0.28125,-0.359375 -0.71875,-0.625 -1.25,-0.625 -1.171875,0 -2.21875,0.984375 -2.21875,2.265625 0,1.265625 0.96875,2.25 2.109375,2.25 0.640625,0 1.078125,-0.34375 1.328125,-0.65625 z m 0,-2.671875 v 2.046875 c 0,0.171875 0,0.1875 -0.109375,0.359375 C 3.375,-0.328125 2.9375,-0.109375 2.5,-0.109375 2.046875,-0.109375 1.6875,-0.375 1.453125,-0.75 1.203125,-1.15625 1.171875,-1.71875 1.171875,-2.140625 1.171875,-2.5 1.1875,-3.09375 1.46875,-3.546875 1.6875,-3.859375 2.0625,-4.1875 2.609375,-4.1875 c 0.34375,0 0.765625,0.15625 1.0625,0.59375 0.109375,0.171875 0.109375,0.1875 0.109375,0.375 z m 0,0"
             style="stroke:none;stroke-width:0"
             inkscape:connector-curvature="0" />
          <path
             id="path3964"
             transform="translate(286.56224,139.651)"
             d="m 3.296875,2.390625 c 0,-0.03125 0,-0.046875 -0.171875,-0.21875 C 1.890625,0.921875 1.5625,-0.96875 1.5625,-2.5 c 0,-1.734375 0.375,-3.46875 1.609375,-4.703125 0.125,-0.125 0.125,-0.140625 0.125,-0.171875 0,-0.078125 -0.03125,-0.109375 -0.09375,-0.109375 -0.109375,0 -1,0.6875 -1.59375,1.953125 -0.5,1.09375 -0.625,2.203125 -0.625,3.03125 0,0.78125 0.109375,1.984375 0.65625,3.125 C 2.25,1.84375 3.09375,2.5 3.203125,2.5 c 0.0625,0 0.09375,-0.03125 0.09375,-0.109375 z m 0,0"
             style="stroke:none;stroke-width:0"
             inkscape:connector-curvature="0" />
          <path
             id="path3966"
             transform="translate(290.43671,139.651)"
             d="M 1.765625,-6.921875 0.328125,-6.8125 V -6.5 c 0.703125,0 0.78125,0.0625 0.78125,0.5625 V -0.75 c 0,0.4375 -0.109375,0.4375 -0.78125,0.4375 V 0 C 0.65625,-0.015625 1.1875,-0.03125 1.4375,-0.03125 c 0.25,0 0.734375,0.015625 1.109375,0.03125 v -0.3125 c -0.671875,0 -0.78125,0 -0.78125,-0.4375 z m 0,0"
             style="stroke:none;stroke-width:0"
             inkscape:connector-curvature="0" />
          <path
             id="path3968"
             transform="translate(293.20434,139.651)"
             d="M 1.09375,-3.421875 V -0.75 c 0,0.4375 -0.109375,0.4375 -0.78125,0.4375 V 0 c 0.359375,-0.015625 0.859375,-0.03125 1.140625,-0.03125 0.25,0 0.765625,0.015625 1.109375,0.03125 v -0.3125 c -0.671875,0 -0.78125,0 -0.78125,-0.4375 V -2.59375 C 1.78125,-3.625 2.5,-4.1875 3.125,-4.1875 c 0.640625,0 0.75,0.53125 0.75,1.109375 V -0.75 c 0,0.4375 -0.109375,0.4375 -0.78125,0.4375 V 0 c 0.34375,-0.015625 0.859375,-0.03125 1.125,-0.03125 0.25,0 0.78125,0.015625 1.109375,0.03125 v -0.3125 c -0.515625,0 -0.765625,0 -0.765625,-0.296875 v -1.90625 c 0,-0.859375 0,-1.15625 -0.3125,-1.515625 -0.140625,-0.171875 -0.46875,-0.375 -1.046875,-0.375 C 2.46875,-4.40625 2,-3.984375 1.71875,-3.359375 V -4.40625 L 0.3125,-4.296875 v 0.3125 c 0.703125,0 0.78125,0.0625 0.78125,0.5625 z m 0,0"
             style="stroke:none;stroke-width:0"
             inkscape:connector-curvature="0" />
        </g>
        <g
           id="g3974"
           style="fill:#000000;fill-opacity:1">
          <path
             id="path3972"
             transform="translate(300.399,139.651)"
             d="m 2.9375,-3.71875 h 1.671875 c 0.125,0 0.484375,0 0.484375,-0.34375 0,-0.234375 -0.203125,-0.234375 -0.40625,-0.234375 H 1.90625 c -0.203125,0 -0.59375,0 -1.03125,0.46875 -0.328125,0.359375 -0.609375,0.84375 -0.609375,0.890625 0,0.015625 0,0.109375 0.125,0.109375 0.078125,0 0.09375,-0.046875 0.15625,-0.125 C 1.03125,-3.71875 1.609375,-3.71875 1.8125,-3.71875 h 0.828125 l -0.96875,3.203125 C 1.625,-0.40625 1.5625,-0.1875 1.5625,-0.15625 c 0,0.109375 0.078125,0.28125 0.296875,0.28125 0.328125,0 0.375,-0.28125 0.40625,-0.4375 z m 0,0"
             style="stroke:none;stroke-width:0"
             inkscape:connector-curvature="0" />
        </g>
        <g
           id="g3978"
           style="fill:#000000;fill-opacity:1">
          <path
             id="path3976"
             transform="translate(305.882,139.651)"
             d="m 2.875,-2.5 c 0,-0.765625 -0.109375,-1.96875 -0.65625,-3.109375 -0.59375,-1.21875 -1.453125,-1.875 -1.546875,-1.875 -0.0625,0 -0.109375,0.046875 -0.109375,0.109375 0,0.03125 0,0.046875 0.1875,0.234375 0.984375,0.984375 1.546875,2.5625 1.546875,4.640625 0,1.71875 -0.359375,3.46875 -1.59375,4.71875 C 0.5625,2.34375 0.5625,2.359375 0.5625,2.390625 0.5625,2.453125 0.609375,2.5 0.671875,2.5 0.765625,2.5 1.671875,1.8125 2.25,0.546875 2.765625,-0.546875 2.875,-1.65625 2.875,-2.5 Z m 0,0"
             style="stroke:none;stroke-width:0"
             inkscape:connector-curvature="0" />
        </g>
      </g>
    </g>
  </g>
</svg>
