<?xml version="1.0" encoding="UTF-8" standalone="no"?>
<svg
   xmlns:dc="http://purl.org/dc/elements/1.1/"
   xmlns:cc="http://creativecommons.org/ns#"
   xmlns:rdf="http://www.w3.org/1999/02/22-rdf-syntax-ns#"
   xmlns:svg="http://www.w3.org/2000/svg"
   xmlns="http://www.w3.org/2000/svg"
   xmlns:sodipodi="http://sodipodi.sourceforge.net/DTD/sodipodi-0.dtd"
   xmlns:inkscape="http://www.inkscape.org/namespaces/inkscape"
   inkscape:version="1.0 (4035a4fb49, 2020-05-01)"
   sodipodi:docname="run.svg"
   viewBox="0 0 1066.6667 1066.6667"
   height="1066.6667"
   width="1066.6667"
   xml:space="preserve"
   id="svg2"
   version="1.1"><metadata
     id="metadata8"><rdf:RDF><cc:Work
         rdf:about=""><dc:format>image/svg+xml</dc:format><dc:type
           rdf:resource="http://purl.org/dc/dcmitype/StillImage" /><dc:title></dc:title></cc:Work></rdf:RDF></metadata><defs
     id="defs6"><clipPath
       id="clipPath18"
       clipPathUnits="userSpaceOnUse"><path
         id="path16"
         d="M 0,800 H 800 V 0 H 0 Z" /></clipPath></defs><sodipodi:namedview
     inkscape:current-layer="g10"
     inkscape:window-maximized="0"
     inkscape:window-y="0"
     inkscape:window-x="0"
     inkscape:cy="533.33337"
     inkscape:cx="533.33337"
     inkscape:zoom="0.68906245"
     showgrid="false"
     id="namedview4"
     inkscape:window-height="480"
     inkscape:window-width="1193"
     inkscape:pageshadow="2"
     inkscape:pageopacity="0"
     guidetolerance="10"
     gridtolerance="10"
     objecttolerance="10"
     borderopacity="1"
     bordercolor="#666666"
     pagecolor="#ffffff" /><g
     transform="matrix(1.3333333,0,0,-1.3333333,0,1066.6667)"
     inkscape:label="45216"
     inkscape:groupmode="layer"
     id="g10"><g
       id="g12"><g
         clip-path="url(#clipPath18)"
         id="g14"><g
           transform="translate(185.3159,547.5229)"
           id="g20"><path
             id="path22"
             style="fill:#231916;fill-opacity:1;fill-rule:nonzero;stroke:none"
             d="m 0,0 c -1.82,0 -3.31,1.367 -3.467,3.18 l -13.594,145.542 c -0.083,0.959 0.238,1.901 0.905,2.628 0.667,0.727 1.577,1.127 2.564,1.127 h 58.964 c 0.986,0 1.897,-0.4 2.563,-1.127 0.668,-0.727 0.988,-1.669 0.903,-2.652 L 35.248,3.204 C 35.09,1.367 33.6,0 31.78,0 Z" /></g><g
           transform="translate(184.6479,483.0806)"
           id="g24"><path
             id="path26"
             style="fill:#231916;fill-opacity:1;fill-rule:nonzero;stroke:none"
             d="m 0,0 c -1.918,0 -3.479,1.561 -3.479,3.479 v 33.117 c 0,1.919 1.561,3.48 3.479,3.48 h 33.116 c 1.918,0 3.479,-1.561 3.479,-3.48 V 3.479 C 36.595,1.561 35.034,0 33.116,0 Z" /></g><g
           transform="translate(440.9922,250.4365)"
           id="g28"><path
             id="path30"
             style="fill:#231916;fill-opacity:1;fill-rule:nonzero;stroke:none"
             d="m 0,0 c 12.258,13.631 31.107,34.972 44.377,51.754 8.314,10.518 13.563,19.631 15.136,32.083 l -21.835,92.81 27.256,-1.58 43.633,-57.76 c 8.428,-11.097 24.178,-14.065 36.072,-6.372 12.473,8.067 16.046,24.72 7.977,37.194 l -47.463,73.385 c -4.684,7.141 -12.657,12.184 -21.839,12.716 l -1.053,0.062 -58.949,3.418 -36.719,2.067 c -22.942,1.202 -45.772,-8.307 -69.33,-36.389 l -38.676,-45.847 -73.033,-0.933 c -11.727,-0.137 -21.818,-8.957 -23.229,-20.916 -1.534,-12.996 7.758,-24.775 20.754,-26.309 l 87.833,-10.367 c 6.369,-0.728 13.098,1.08 18.358,5.573 l 35.471,30.302 22.644,-54.36 -145.101,-183.261 c -9.374,-11.927 -8.248,-29.341 3.068,-39.843 11.919,-11.063 30.55,-10.368 41.612,1.552 z" /></g><g
           transform="translate(418.5557,540.3999)"
           id="g32"><path
             id="path34"
             style="fill:#231916;fill-opacity:1;fill-rule:nonzero;stroke:none"
             d="m 0,0 c -1.498,-28.586 -25.886,-50.545 -54.472,-49.047 -28.586,1.498 -50.545,25.886 -49.047,54.472 1.498,28.586 25.887,50.545 54.473,49.047 C -20.46,52.974 1.499,28.586 0,0" /></g><g
           transform="translate(604.916,229.7383)"
           id="g36"><path
             id="path38"
             style="fill:#231916;fill-opacity:1;fill-rule:nonzero;stroke:none"
             d="m 0,0 -74.868,3.981 -21.533,68.401 -0.531,2.253 c -2.446,-3.971 -5.254,-7.862 -8.384,-11.822 -15.512,-19.621 -37.794,-44.582 -49.59,-57.599 l 23.791,-45.34 2.81,-5.372 c 5.35,-10.154 16.249,-16.831 28.466,-16.208 l 99.777,5.09 c 14.268,0.779 26.086,12.211 26.863,26.804 C 27.633,-14.18 15.634,-0.832 0,0" /></g></g></g></g></svg>
