<?xml version="1.0" encoding="UTF-8" standalone="no"?>
<svg
   xmlns:ns1="http://www.iki.fi/pav/software/textext/"
   xmlns:dc="http://purl.org/dc/elements/1.1/"
   xmlns:cc="http://creativecommons.org/ns#"
   xmlns:rdf="http://www.w3.org/1999/02/22-rdf-syntax-ns#"
   xmlns:svg="http://www.w3.org/2000/svg"
   xmlns="http://www.w3.org/2000/svg"
   xmlns:xlink="http://www.w3.org/1999/xlink"
   xmlns:sodipodi="http://sodipodi.sourceforge.net/DTD/sodipodi-0.dtd"
   xmlns:inkscape="http://www.inkscape.org/namespaces/inkscape"
   sodipodi:docname="Stress.svg"
   inkscape:version="1.0 (4035a4fb49, 2020-05-01)"
   version="1.1"
   id="svg9554"
   height="297mm"
   width="210mm">
  <defs
     id="defs9556">
    <marker
       inkscape:isstock="true"
       style="overflow:visible;"
       id="Arrow1Lend"
       refX="0.0"
       refY="0.0"
       orient="auto"
       inkscape:stockid="Arrow1Lend">
      <path
         transform="scale(0.8) rotate(180) translate(12.5,0)"
         style="fill-rule:evenodd;stroke:#000000;stroke-width:1pt;stroke-opacity:1;fill:#000000;fill-opacity:1"
         d="M 0.0,0.0 L 5.0,-5.0 L -12.5,0.0 L 5.0,5.0 L 0.0,0.0 z "
         id="path942" />
    </marker>
    <marker
       inkscape:isstock="true"
       style="overflow:visible;"
       id="Arrow1Mend"
       refX="0.0"
       refY="0.0"
       orient="auto"
       inkscape:stockid="Arrow1Mend">
      <path
         transform="scale(0.4) rotate(180) translate(10,0)"
         style="fill-rule:evenodd;stroke:#000000;stroke-width:1pt;stroke-opacity:1;fill:#000000;fill-opacity:1"
         d="M 0.0,0.0 L 5.0,-5.0 L -12.5,0.0 L 5.0,5.0 L 0.0,0.0 z "
         id="path948" />
    </marker>
    <linearGradient
       id="linearGradient885"
       inkscape:collect="always">
      <stop
         id="stop881"
         offset="0"
         style="stop-color:#000000;stop-opacity:1;" />
      <stop
         id="stop883"
         offset="1"
         style="stop-color:#000000;stop-opacity:0;" />
    </linearGradient>
    <linearGradient
       gradientUnits="userSpaceOnUse"
       y2="1027.15"
       x2="395.82779"
       y1="905.44019"
       x1="395.82779"
       id="linearGradient889"
       xlink:href="#linearGradient885"
       inkscape:collect="always" />
  </defs>
  <sodipodi:namedview
     inkscape:document-rotation="0"
     inkscape:window-maximized="1"
     inkscape:window-y="101"
     inkscape:window-x="1192"
     inkscape:window-height="1017"
     inkscape:window-width="1920"
     showgrid="false"
     inkscape:current-layer="layer1"
     inkscape:document-units="px"
     inkscape:cy="541.1539"
     inkscape:cx="431.73741"
     inkscape:zoom="0.59"
     inkscape:pageshadow="2"
     inkscape:pageopacity="1"
     borderopacity="1.0"
     bordercolor="#666666"
     pagecolor="#ffffff"
     id="base" />
  <metadata
     id="metadata9559">
    <rdf:RDF>
      <cc:Work
         rdf:about="">
        <dc:format>image/svg+xml</dc:format>
        <dc:type
           rdf:resource="http://purl.org/dc/dcmitype/StillImage" />
        <dc:title />
      </cc:Work>
    </rdf:RDF>
  </metadata>
  <g
     id="layer1"
     inkscape:groupmode="layer"
     inkscape:label="レイヤー 1">
    <path
       inkscape:export-ydpi="600"
       inkscape:export-xdpi="600"
       inkscape:export-filename="D:\Dropbox\セミナー関連\技術情報協会\2019_5_レオロジー\fig\fig_5\応力.png"
       sodipodi:nodetypes="cccccccc"
       inkscape:connector-curvature="0"
       id="path5032-0-4"
       d="m 150.96236,278.90595 v 9.47195 h 57.93984 v 9.47191 l 57.93984,-14.20787 -57.93984,-14.20801 v 9.47202 z"
       style="fill:#ff0000;fill-opacity:1;stroke:#000000;stroke-width:3.02435803px;stroke-linecap:butt;stroke-linejoin:miter;stroke-opacity:1" />
    <path
       inkscape:export-ydpi="600"
       inkscape:export-xdpi="600"
       inkscape:export-filename="D:\Dropbox\セミナー関連\技術情報協会\2019_5_レオロジー\fig\fig_5\応力.png"
       sodipodi:nodetypes="cccccccc"
       inkscape:connector-curvature="0"
       id="path5032-7"
       d="m 426.96236,363.61188 v 9.47195 h 57.93984 v 9.47191 l 57.93984,-14.20787 -57.93984,-14.20801 v 9.47202 z"
       style="fill:none;stroke:#000000;stroke-width:3.02435803px;stroke-linecap:butt;stroke-linejoin:miter;stroke-opacity:1" />
    <path
       inkscape:export-ydpi="600"
       inkscape:export-xdpi="600"
       inkscape:export-filename="D:\Dropbox\セミナー関連\技術情報協会\2019_5_レオロジー\fig\fig_5\応力.png"
       sodipodi:nodetypes="cccccccc"
       inkscape:connector-curvature="0"
       id="path5032"
       d="m 338.96236,-14.26771 v 9.47195 H 396.9022 V 4.67615 L 454.84204,-9.53172 396.9022,-23.73973 v 9.47202 z"
       style="fill:none;stroke:#000000;stroke-width:3.02435803px;stroke-linecap:butt;stroke-linejoin:miter;stroke-opacity:1" />
    <g
       inkscape:export-ydpi="600"
       inkscape:export-xdpi="600"
       inkscape:export-filename="D:\Dropbox\セミナー関連\技術情報協会\2019_5_レオロジー\fig\fig_5\応力.png"
       transform="translate(-160.09884,-411.89397)"
       id="g10495">
      <path
         inkscape:connector-curvature="0"
         style="fill:#ffffff;fill-opacity:1;stroke:#000000;stroke-width:1.05413699;stroke-miterlimit:4;stroke-dasharray:none;stroke-dashoffset:0;stroke-opacity:1"
         d="m 500,352.875 c -0.20047,0 -0.39444,0.0528 -0.59375,0.0625 h -398.8125 v 98.84375 h 398.8125 c 0.19958,0.01 0.39302,0.0625 0.59375,0.0625 13.51603,0 24.46875,-22.1456 24.46875,-49.46875 0,-27.32315 -10.95272,-49.5 -24.46875,-49.5 z"
         id="path10250-9" />
      <ellipse
         ry="53.431374"
         rx="31.862745"
         cy="323.44061"
         cx="138.72549"
         style="fill:#ffffff;fill-opacity:1;stroke:#000000;stroke-width:1.4822551;stroke-miterlimit:4;stroke-dasharray:1.48225511, 4.44676534;stroke-dashoffset:0;stroke-opacity:1"
         id="path10250-0"
         transform="matrix(0.76807354,0,0,0.9259154,268.44862,102.88354)" />
      <ellipse
         ry="53.431374"
         rx="31.862745"
         cy="323.44061"
         cx="138.72549"
         style="fill:#ffffff;fill-opacity:1;stroke:#000000;stroke-width:1.25;stroke-miterlimit:4;stroke-dasharray:none;stroke-dashoffset:0;stroke-opacity:1"
         id="path10250"
         transform="matrix(0.76807354,0,0,0.9259154,-6.5513815,102.88354)" />
    </g>
    <g
       inkscape:export-ydpi="600"
       inkscape:export-xdpi="600"
       inkscape:export-filename="D:\Dropbox\セミナー関連\技術情報協会\2019_5_レオロジー\fig\fig_5\応力.png"
       transform="translate(-224.09884,-318.7175)"
       id="g10518">
      <path
         inkscape:connector-curvature="0"
         style="fill:#ffffff;fill-opacity:1;stroke:#000000;stroke-width:1.05413699;stroke-miterlimit:4;stroke-dasharray:none;stroke-dashoffset:0;stroke-opacity:1"
         d="m 375,552.875 c -0.87748,0 -1.74014,0.13043 -2.59375,0.3125 H 100.8125 v 98.34375 h 271.5 c 0.88443,0.19571 1.7773,0.3125 2.6875,0.3125 13.51603,0 24.46875,-22.1456 24.46875,-49.46875 0,-27.32315 -10.95272,-49.5 -24.46875,-49.5 z"
         id="path10250-2-0" />
      <ellipse
         ry="53.431374"
         rx="31.862745"
         cy="323.44061"
         cx="138.72549"
         style="fill:#ffffff;fill-opacity:1;stroke:#000000;stroke-width:1.25;stroke-miterlimit:4;stroke-dasharray:none;stroke-dashoffset:0;stroke-opacity:1"
         id="path10250-2"
         transform="matrix(0.76807354,0,0,0.9259154,-6.5513815,302.88354)" />
    </g>
    <g
       inkscape:export-ydpi="600"
       inkscape:export-xdpi="600"
       inkscape:export-filename="D:\Dropbox\セミナー関連\技術情報協会\2019_5_レオロジー\fig\fig_5\応力.png"
       transform="translate(-162.29492,-344.01162)"
       id="g10522">
      <path
         style="fill:#ffffff;fill-opacity:1;stroke:#000000;stroke-width:1.05413699;stroke-miterlimit:4;stroke-dasharray:none;stroke-dashoffset:0;stroke-opacity:1"
         d="m 596,662.875 c -0.19004,0 -0.3735,0.0538 -0.5625,0.0625 v -0.0312 h -123.875 v 98.90625 h 123.875 v -0.0312 c 0.18924,0.009 0.37222,0.0625 0.5625,0.0625 13.51603,0 24.46875,-22.1456 24.46875,-49.46875 0,-27.32315 -10.95272,-49.5 -24.46875,-49.5 z"
         id="path10250-2-2"
         inkscape:connector-curvature="0" />
      <ellipse
         ry="53.431374"
         rx="31.862745"
         cy="323.44061"
         cx="138.72549"
         style="fill:#ffffff;fill-opacity:1;stroke:#000000;stroke-width:1.25;stroke-miterlimit:4;stroke-dasharray:none;stroke-dashoffset:0;stroke-opacity:1"
         id="path10250-2-4"
         transform="matrix(0.76807354,0,0,0.9259154,364.44862,412.88354)" />
    </g>
    <path
       inkscape:export-ydpi="600"
       inkscape:export-xdpi="600"
       inkscape:export-filename="D:\Dropbox\セミナー関連\技術情報協会\2019_5_レオロジー\fig\fig_5\応力.png"
       sodipodi:nodetypes="cccccccc"
       inkscape:connector-curvature="0"
       id="path5032-9-3"
       d="m -129.15796,278.90595 v 9.47195 h -57.93984 v 9.47191 l -57.93984,-14.20787 57.93984,-14.20801 v 9.47202 z"
       style="fill:#ffffff;fill-opacity:1;stroke:#000000;stroke-width:3.02435803px;stroke-linecap:butt;stroke-linejoin:miter;stroke-opacity:1" />
    <text
       inkscape:export-ydpi="600"
       inkscape:export-xdpi="600"
       inkscape:export-filename="D:\Dropbox\セミナー関連\技術情報協会\2019_5_レオロジー\fig\fig_5\応力.png"
       id="text10562"
       y="177.37515"
       x="502.98206"
       style="font-style:normal;font-variant:normal;font-weight:normal;font-stretch:normal;line-height:0%;font-family:'MS Gothic';-inkscape-font-specification:'MS Gothic';text-align:start;letter-spacing:0px;word-spacing:0px;writing-mode:lr-tb;text-anchor:start;fill:#000000;fill-opacity:1;stroke:none"
       xml:space="preserve"><tspan
         style="font-size:28px;line-height:1.25"
         y="177.37515"
         x="502.98206"
         id="tspan10564"
         sodipodi:role="line">内部で作用する応力</tspan></text>
    <path
       inkscape:export-ydpi="600"
       inkscape:export-xdpi="600"
       inkscape:export-filename="D:\Dropbox\セミナー関連\技術情報協会\2019_5_レオロジー\fig\fig_5\応力.png"
       sodipodi:nodetypes="cccccccc"
       inkscape:connector-curvature="0"
       id="path5032-9-7"
       d="m 894.92189,162.63139 v 9.47195 h -57.9399 v 9.47191 l -57.9398,-14.20787 57.9398,-14.20801 v 9.47202 z"
       style="fill:#ff0000;fill-opacity:1;stroke:#000000;stroke-width:3.02435803px;stroke-linecap:butt;stroke-linejoin:miter;stroke-opacity:1" />
    <path
       inkscape:export-ydpi="600"
       inkscape:export-xdpi="600"
       inkscape:export-filename="D:\Dropbox\セミナー関連\技術情報協会\2019_5_レオロジー\fig\fig_5\応力.png"
       sodipodi:nodetypes="cccccccc"
       inkscape:connector-curvature="0"
       id="path5032-0"
       d="m 907.47359,162.63139 v 9.47195 h 57.93981 v 9.47191 l 57.9399,-14.20787 -57.9399,-14.20801 v 9.47202 z"
       style="fill:#ff0000;fill-opacity:1;stroke:#000000;stroke-width:3.02435803px;stroke-linecap:butt;stroke-linejoin:miter;stroke-opacity:1" />
    <text
       inkscape:export-ydpi="600"
       inkscape:export-xdpi="600"
       inkscape:export-filename="D:\Dropbox\セミナー関連\技術情報協会\2019_5_レオロジー\fig\fig_5\応力.png"
       id="text10602"
       y="-22.609756"
       x="3.2344971"
       style="font-style:normal;font-variant:normal;font-weight:normal;font-stretch:normal;line-height:0%;font-family:'MS Gothic';-inkscape-font-specification:'MS Gothic';text-align:start;letter-spacing:0px;word-spacing:0px;writing-mode:lr-tb;text-anchor:start;fill:#000000;fill-opacity:1;stroke:none"
       xml:space="preserve"><tspan
         style="font-size:28px;line-height:1.25"
         y="-22.609756"
         x="3.2344971"
         id="tspan10604"
         sodipodi:role="line">A</tspan></text>
    <text
       inkscape:export-ydpi="600"
       inkscape:export-xdpi="600"
       inkscape:export-filename="D:\Dropbox\セミナー関連\技術情報協会\2019_5_レオロジー\fig\fig_5\応力.png"
       id="text10606"
       y="-30.609756"
       x="306.13647"
       style="font-style:normal;font-variant:normal;font-weight:normal;font-stretch:normal;line-height:0%;font-family:'MS Gothic';-inkscape-font-specification:'MS Gothic';text-align:start;letter-spacing:0px;word-spacing:0px;writing-mode:lr-tb;text-anchor:start;fill:#000000;fill-opacity:1;stroke:none"
       xml:space="preserve"><tspan
         style="font-size:28px;line-height:1.25"
         y="-30.609756"
         x="306.13647"
         id="tspan10608"
         sodipodi:role="line">B</tspan></text>
    <path
       inkscape:export-ydpi="600"
       inkscape:export-xdpi="600"
       inkscape:export-filename="D:\Dropbox\セミナー関連\技術情報協会\2019_5_レオロジー\fig\fig_5\応力.png"
       sodipodi:nodetypes="cccccccc"
       inkscape:connector-curvature="0"
       id="path5032-9"
       d="m -65.15796,-14.26771 v 9.47195 h -57.93984 v 9.47191 l -57.93984,-14.20787 57.93984,-14.20801 v 9.47202 z"
       style="fill:#ffffff;fill-opacity:1;stroke:#000000;stroke-width:3.02435803px;stroke-linecap:butt;stroke-linejoin:miter;stroke-opacity:1" />
    <text
       inkscape:export-ydpi="600"
       inkscape:export-xdpi="600"
       inkscape:export-filename="D:\Dropbox\セミナー関連\技術情報協会\2019_5_レオロジー\fig\fig_5\応力.png"
       id="text10562-0"
       y="131.04178"
       x="504.48627"
       style="font-style:normal;font-variant:normal;font-weight:normal;font-stretch:normal;line-height:0%;font-family:'MS Gothic';-inkscape-font-specification:'MS Gothic';text-align:start;letter-spacing:0px;word-spacing:0px;writing-mode:lr-tb;text-anchor:start;fill:#000000;fill-opacity:1;stroke:none"
       xml:space="preserve"><tspan
         style="font-size:28px;line-height:1.25"
         y="131.04178"
         x="504.48627"
         id="tspan10564-8"
         sodipodi:role="line">外から作用する力</tspan></text>
    <path
       inkscape:export-ydpi="600"
       inkscape:export-xdpi="600"
       inkscape:export-filename="D:\Dropbox\セミナー関連\技術情報協会\2019_5_レオロジー\fig\fig_5\応力.png"
       sodipodi:nodetypes="cccccccc"
       inkscape:connector-curvature="0"
       id="path5032-9-7-1"
       d="m 896.42609,116.29806 v 9.47195 h -57.9398 v 9.47191 l -57.9399,-14.20787 57.9399,-14.20801 v 9.47202 z"
       style="fill:none;stroke:#000000;stroke-width:3.02435803px;stroke-linecap:butt;stroke-linejoin:miter;stroke-opacity:1" />
    <path
       inkscape:export-ydpi="600"
       inkscape:export-xdpi="600"
       inkscape:export-filename="D:\Dropbox\セミナー関連\技術情報協会\2019_5_レオロジー\fig\fig_5\応力.png"
       sodipodi:nodetypes="cccccccc"
       inkscape:connector-curvature="0"
       id="path5032-0-8"
       d="m 908.97779,116.29806 v 9.47195 h 57.93981 v 9.47191 l 57.9399,-14.20787 -57.9399,-14.20801 v 9.47202 z"
       style="fill:none;stroke:#000000;stroke-width:3.02435803px;stroke-linecap:butt;stroke-linejoin:miter;stroke-opacity:1" />
    <path
       inkscape:export-ydpi="600"
       inkscape:export-xdpi="600"
       inkscape:export-filename="D:\Dropbox\セミナー関連\技術情報協会\2019_5_レオロジー\fig\fig_5\応力.png"
       sodipodi:nodetypes="cccccccc"
       inkscape:connector-curvature="0"
       id="path5032-9-7-0"
       d="m 215.03709,-14.26771 v 9.47195 H 157.09724 V 4.67615 L 99.157398,-9.53172 157.09724,-23.73973 v 9.47202 z"
       style="fill:#ff0000;fill-opacity:1;stroke:#000000;stroke-width:3.02435803px;stroke-linecap:butt;stroke-linejoin:miter;stroke-opacity:1" />
    <path
       inkscape:export-ydpi="600"
       inkscape:export-xdpi="600"
       inkscape:export-filename="D:\Dropbox\セミナー関連\技術情報協会\2019_5_レオロジー\fig\fig_5\応力.png"
       sodipodi:nodetypes="cccccccc"
       inkscape:connector-curvature="0"
       id="path5032-0-3"
       d="m 215.70643,-14.26771 v 9.47195 h 57.93984 v 9.47191 l 57.93984,-14.20787 -57.93984,-14.20801 v 9.47202 z"
       style="fill:#ff0000;fill-opacity:1;stroke:#000000;stroke-width:3.02435803px;stroke-linecap:butt;stroke-linejoin:miter;stroke-opacity:1" />
    <path
       inkscape:export-ydpi="600"
       inkscape:export-xdpi="600"
       inkscape:export-filename="D:\Dropbox\セミナー関連\技術情報協会\2019_5_レオロジー\fig\fig_5\応力.png"
       sodipodi:nodetypes="cccccccc"
       inkscape:connector-curvature="0"
       id="path5032-9-7-7"
       d="m 302.84206,363.61188 v 9.47195 H 244.9022 v 9.47191 l -57.93984,-14.20787 57.93984,-14.20801 v 9.47202 z"
       style="fill:#ff0000;fill-opacity:1;stroke:#000000;stroke-width:3.02435803px;stroke-linecap:butt;stroke-linejoin:miter;stroke-opacity:1" />
    <text
       inkscape:export-ydpi="600"
       inkscape:export-xdpi="600"
       inkscape:export-filename="D:\Dropbox\セミナー関連\技術情報協会\2019_5_レオロジー\fig\fig_5\応力.png"
       id="text10721"
       y="25.762337"
       x="-2.2557373"
       style="font-style:normal;font-variant:normal;font-weight:normal;font-stretch:normal;line-height:0%;font-family:'MS Gothic';-inkscape-font-specification:'MS Gothic';text-align:start;letter-spacing:0px;word-spacing:0px;writing-mode:lr-tb;text-anchor:start;fill:#000000;fill-opacity:1;stroke:none"
       xml:space="preserve"><tspan
         style="font-size:28px;line-height:1.25"
         y="25.762337"
         x="-2.2557373"
         id="tspan10723"
         sodipodi:role="line">Bが引張られる力</tspan></text>
    <text
       inkscape:export-ydpi="600"
       inkscape:export-xdpi="600"
       inkscape:export-filename="D:\Dropbox\セミナー関連\技術情報協会\2019_5_レオロジー\fig\fig_5\応力.png"
       id="text10602-8"
       y="291.54712"
       x="12.116835"
       style="font-style:normal;font-variant:normal;font-weight:normal;font-stretch:normal;line-height:0%;font-family:'MS Gothic';-inkscape-font-specification:'MS Gothic';text-align:start;letter-spacing:0px;word-spacing:0px;writing-mode:lr-tb;text-anchor:start;fill:#000000;fill-opacity:1;stroke:none"
       xml:space="preserve"><tspan
         style="font-size:28px;line-height:1.25"
         y="291.54712"
         x="12.116835"
         id="tspan10604-1"
         sodipodi:role="line">A</tspan></text>
    <text
       inkscape:export-ydpi="600"
       inkscape:export-xdpi="600"
       inkscape:export-filename="D:\Dropbox\セミナー関連\技術情報協会\2019_5_レオロジー\fig\fig_5\応力.png"
       id="text10606-3"
       y="380.0177"
       x="373.67825"
       style="font-style:normal;font-variant:normal;font-weight:normal;font-stretch:normal;line-height:0%;font-family:'MS Gothic';-inkscape-font-specification:'MS Gothic';text-align:start;letter-spacing:0px;word-spacing:0px;writing-mode:lr-tb;text-anchor:start;fill:#000000;fill-opacity:1;stroke:none"
       xml:space="preserve"><tspan
         style="font-size:28px;line-height:1.25"
         y="380.0177"
         x="373.67825"
         id="tspan10608-6"
         sodipodi:role="line">B</tspan></text>
    <text
       inkscape:export-ydpi="600"
       inkscape:export-xdpi="600"
       inkscape:export-filename="D:\Dropbox\セミナー関連\技術情報協会\2019_5_レオロジー\fig\fig_5\応力.png"
       id="text10721-7"
       y="376.31085"
       x="25.688368"
       style="font-style:normal;font-variant:normal;font-weight:normal;font-stretch:normal;line-height:0%;font-family:'MS Gothic';-inkscape-font-specification:'MS Gothic';text-align:start;letter-spacing:0px;word-spacing:0px;writing-mode:lr-tb;text-anchor:start;fill:#000000;fill-opacity:1;stroke:none"
       xml:space="preserve"><tspan
         style="font-size:28px;line-height:1.25"
         y="376.31085"
         x="25.688368"
         id="tspan10723-8"
         sodipodi:role="line">Aが引っ張る</tspan></text>
    <text
       inkscape:export-ydpi="600"
       inkscape:export-xdpi="600"
       inkscape:export-filename="D:\Dropbox\セミナー関連\技術情報協会\2019_5_レオロジー\fig\fig_5\応力.png"
       id="text10721-1"
       y="32.93837"
       x="241.93193"
       style="font-style:normal;font-variant:normal;font-weight:normal;font-stretch:normal;line-height:0%;font-family:'MS Gothic';-inkscape-font-specification:'MS Gothic';text-align:start;letter-spacing:0px;word-spacing:0px;writing-mode:lr-tb;text-anchor:start;fill:#000000;fill-opacity:1;stroke:none"
       xml:space="preserve"><tspan
         style="font-size:28px;line-height:1.25"
         y="32.93837"
         x="241.93193"
         id="tspan10723-7"
         sodipodi:role="line">Aが引張</tspan><tspan
         style="font-size:28px;line-height:1.25"
         id="tspan3041"
         y="67.93837"
         x="241.93193"
         sodipodi:role="line">られる力 </tspan></text>
    <text
       inkscape:export-ydpi="600"
       inkscape:export-xdpi="600"
       inkscape:export-filename="D:\Dropbox\セミナー関連\技術情報協会\2019_5_レオロジー\fig\fig_5\応力.png"
       id="text10721-7-3"
       y="260.82477"
       x="275.29239"
       style="font-style:normal;font-variant:normal;font-weight:normal;font-stretch:normal;line-height:0%;font-family:'MS Gothic';-inkscape-font-specification:'MS Gothic';text-align:start;letter-spacing:0px;word-spacing:0px;writing-mode:lr-tb;text-anchor:start;fill:#000000;fill-opacity:1;stroke:none"
       xml:space="preserve"><tspan
         style="font-size:28px;line-height:1.25"
         y="260.82477"
         x="275.29239"
         id="tspan10723-8-0"
         sodipodi:role="line">Bが引っ張る</tspan></text>
    <flowRoot
       style="font-style:normal;font-weight:normal;font-size:21.3333px;line-height:1.25;font-family:sans-serif;letter-spacing:0px;word-spacing:0px;fill:#000000;fill-opacity:1;stroke:none"
       id="flowRoot871"
       xml:space="preserve"><flowRegion
         id="flowRegion873"><rect
           y="419.50894"
           x="-604.9162"
           height="296.10013"
           width="635.79779"
           id="rect875" /></flowRegion><flowPara
         id="flowPara877" /></flowRoot>
    <rect
       inkscape:export-ydpi="600"
       inkscape:export-xdpi="600"
       inkscape:export-filename="D:\Dropbox\セミナー関連\技術情報協会\2019_5_レオロジー\fig\fig_5\ずり応力.png"
       y="900.89874"
       x="-232.52034"
       height="234.33691"
       width="1255.2466"
       id="rect879"
       style="fill:url(#linearGradient889);fill-opacity:1;stroke:none;stroke-width:4;stroke-miterlimit:4;stroke-dasharray:none;stroke-dashoffset:0;stroke-opacity:1" />
    <rect
       inkscape:export-ydpi="600"
       inkscape:export-xdpi="600"
       inkscape:export-filename="D:\Dropbox\セミナー関連\技術情報協会\2019_5_レオロジー\fig\fig_5\ずり応力.png"
       y="721.16382"
       x="14.532502"
       height="179.83995"
       width="250.68599"
       id="rect891"
       style="fill:#008080;fill-opacity:1;stroke:none;stroke-width:4;stroke-miterlimit:4;stroke-dasharray:none;stroke-dashoffset:0;stroke-opacity:1" />
    <rect
       inkscape:export-ydpi="300"
       inkscape:export-xdpi="300"
       inkscape:export-filename="D:\Dropbox\セミナー関連\技術情報協会\2019_5_レオロジー\fig\fig_5\ずり応力.png"
       transform="matrix(1,0,-0.25881905,0.96592583,0,0)"
       y="746.60376"
       x="700.1864"
       height="186.18402"
       width="250.68599"
       id="rect891-3"
       style="fill:#008080;fill-opacity:1;stroke:none;stroke-width:4.06994104;stroke-miterlimit:4;stroke-dasharray:none;stroke-dashoffset:0;stroke-opacity:1" />
    <path
       inkscape:export-ydpi="300"
       inkscape:export-xdpi="300"
       inkscape:export-filename="D:\Dropbox\セミナー関連\技術情報協会\2019_5_レオロジー\fig\fig_5\ずり応力.png"
       sodipodi:nodetypes="cccccccc"
       inkscape:connector-curvature="0"
       id="path5032-0-6"
       d="m 586.3843,719.72614 v 4.73598 h 28.9699 v 4.73595 l 28.9699,-7.10393 -28.9699,-7.10401 v 4.73601 z"
       style="fill:#ff0000;fill-opacity:1;stroke:#000000;stroke-width:1.51217902px;stroke-linecap:butt;stroke-linejoin:miter;stroke-opacity:1" />
    <path
       inkscape:export-ydpi="300"
       inkscape:export-xdpi="300"
       inkscape:export-filename="D:\Dropbox\セミナー関連\技術情報協会\2019_5_レオロジー\fig\fig_5\ずり応力.png"
       sodipodi:nodetypes="cccccccc"
       inkscape:connector-curvature="0"
       id="path5032-0-80"
       d="m 621.748,899.10471 v 4.73597 h -28.9699 v 4.73596 l -28.9699,-7.10394 28.9699,-7.104 v 4.73601 z"
       style="fill:#ff0000;fill-opacity:1;stroke:#000000;stroke-width:1.51217902px;stroke-linecap:butt;stroke-linejoin:miter;stroke-opacity:1" />
    <text
       inkscape:export-ydpi="300"
       inkscape:export-xdpi="300"
       inkscape:export-filename="D:\Dropbox\セミナー関連\技術情報協会\2019_5_レオロジー\fig\fig_5\ずり応力.png"
       id="text931"
       y="642.31134"
       x="431.25"
       style="font-style:normal;font-weight:normal;font-size:32px;line-height:1.25;font-family:sans-serif;letter-spacing:0px;word-spacing:0px;fill:#000000;fill-opacity:1;stroke:none"
       xml:space="preserve"><tspan
         y="642.31134"
         x="431.25"
         id="tspan929"
         sodipodi:role="line">面積 S</tspan></text>
    <text
       inkscape:export-ydpi="300"
       inkscape:export-xdpi="300"
       inkscape:export-filename="D:\Dropbox\セミナー関連\技術情報協会\2019_5_レオロジー\fig\fig_5\ずり応力.png"
       id="text935"
       y="708.97803"
       x="587.5"
       style="font-style:normal;font-weight:normal;font-size:32px;line-height:1.25;font-family:sans-serif;letter-spacing:0px;word-spacing:0px;fill:#000000;fill-opacity:1;stroke:none"
       xml:space="preserve"><tspan
         y="708.97803"
         x="587.5"
         id="tspan933"
         sodipodi:role="line">力 F</tspan></text>
    <path
       inkscape:export-ydpi="300"
       inkscape:export-xdpi="300"
       inkscape:export-filename="D:\Dropbox\セミナー関連\技術情報協会\2019_5_レオロジー\fig\fig_5\ずり応力.png"
       inkscape:connector-curvature="0"
       id="path937"
       d="m 484.375,649.60302 52.08333,69.79167"
       style="fill:none;stroke:#000000;stroke-width:1.33333337;stroke-linecap:butt;stroke-linejoin:miter;stroke-miterlimit:4;stroke-dasharray:none;stroke-opacity:1;marker-end:url(#Arrow1Lend)" />
    <g
       inkscape:export-ydpi="600"
       inkscape:export-xdpi="600"
       inkscape:export-filename="D:\Dropbox\セミナー関連\技術情報協会\2019_5_レオロジー\fig\fig_5\ずり応力.png"
       transform="matrix(4,0,0,4,-464.6039,556.2533)"
       ns1:version="0.10.1"
       ns1:texconverter="lualatex"
       ns1:pdfconverter="pdf2svg"
       ns1:text="\xe3\x81\x9a\xe3\x82\x8a\xe5\xbf\x9c\xe5\x8a\x9b\xef\xbc\x9a$\\sigma = \\dfrac{F}{S}$\n\n\xe5\xbf\x9c\xe5\x8a\x9b\xe3\x81\xae\xe5\x8d\x98\xe4\xbd\x8d\xef\xbc\x9a\xe3\x83\x91\xe3\x82\xb9\xe3\x82\xab\xe3\x83\xab$[\\mathrm{Pa}]=[\\mathrm{N/m}^2]$"
       ns1:preamble="C:\\Users\\h_sasaki\\AppData\\Roaming\\inkscape\\extensions\\textext\\luatex_gt.tex"
       ns1:scale="3.0"
       ns1:alignment="middle center"
       inkscapeversion="0.92.4"
       ns1:jacobian_sqrt="4.0"
       id="g1634">
      <g
         id="surface1">
        <g
           style="fill:#000000;fill-opacity:1"
           id="g1553">
          <path
             inkscape:connector-curvature="0"
             style="stroke:none;stroke-width:0"
             d="M 7.6875,-6.671875 C 7.445313,-7.203125 7.171875,-7.648438 6.859375,-8.015625 l 0.546875,-0.3125 c 0.332031,0.417969 0.617188,0.855469 0.859375,1.3125 z M 8.90625,-6.9375 c -0.25,-0.507813 -0.542969,-0.960938 -0.875,-1.359375 L 8.5625,-8.625 c 0.3125,0.367187 0.613281,0.796875 0.90625,1.296875 z m -3.71875,-1 h 0.78125 v 1.59375 C 6.289063,-6.363281 7.300781,-6.394531 9,-6.4375 v 0.703125 c -0.34375,0 -1.355469,0.011719 -3.03125,0.03125 V -3.84375 C 6.113281,-3.5 6.1875,-3.125 6.1875,-2.71875 6.1875,-1.863281 5.957031,-1.164063 5.5,-0.625 5.09375,-0.132813 4.460938,0.285156 3.609375,0.640625 L 3.03125,0.046875 c 1.375,-0.5 2.179688,-1.222656 2.421875,-2.171875 -0.25,0.34375 -0.605469,0.515625 -1.0625,0.515625 -0.386719,0 -0.730469,-0.144531 -1.03125,-0.4375 C 3.078125,-2.335938 2.9375,-2.722656 2.9375,-3.203125 c 0,-0.445313 0.148438,-0.820313 0.453125,-1.125 C 3.660156,-4.609375 4,-4.75 4.40625,-4.75 c 0.28125,0 0.539063,0.085937 0.78125,0.25 v -1.1875 c -0.335937,0.011719 -1.746094,0.058594 -4.234375,0.140625 v -0.6875 c 0.613281,-0.00781 1.394531,-0.023438 2.34375,-0.046875 1,-0.03125 1.628906,-0.046875 1.890625,-0.046875 z m 0.078125,4.75 c 0,-0.269531 -0.09375,-0.5 -0.28125,-0.6875 -0.148437,-0.132813 -0.3125,-0.203125 -0.5,-0.203125 -0.261719,0 -0.476562,0.105469 -0.640625,0.3125 -0.125,0.167969 -0.1875,0.335937 -0.1875,0.5 0,0.304687 0.070313,0.546875 0.21875,0.734375 0.15625,0.179687 0.351563,0.265625 0.59375,0.265625 0.53125,0 0.796875,-0.304688 0.796875,-0.921875 z m 0,0"
             transform="translate(148.712,138.35)"
             id="path1543" />
          <path
             inkscape:connector-curvature="0"
             style="stroke:none;stroke-width:0"
             d="M 4.5,-4.578125 C 4.101563,-3.910156 3.835938,-3.445313 3.703125,-3.1875 3.546875,-2.882813 3.4375,-2.582031 3.375,-2.28125 L 2.6875,-2.34375 C 2.46875,-3 2.359375,-3.828125 2.359375,-4.828125 c 0,-0.675781 0.078125,-1.601563 0.234375,-2.78125 l 0.8125,0.09375 C 3.21875,-6.191406 3.125,-5.257813 3.125,-4.71875 c 0,0.429687 0.015625,0.824219 0.046875,1.1875 0.082031,-0.15625 0.226563,-0.421875 0.4375,-0.796875 C 3.785156,-4.628906 3.925781,-4.875 4.03125,-5.0625 Z m -0.609375,4.375 c 1.082031,-0.382813 1.832031,-0.929688 2.25,-1.640625 0.3125,-0.550781 0.46875,-1.488281 0.46875,-2.8125 0,-0.925781 -0.058594,-1.941406 -0.171875,-3.046875 H 7.296875 C 7.390625,-6.515625 7.4375,-5.5 7.4375,-4.65625 c 0,1.523437 -0.210937,2.636719 -0.625,3.34375 -0.46875,0.773437 -1.257812,1.359375 -2.359375,1.765625 z m 0,0"
             transform="translate(158.29824,138.35)"
             id="path1545" />
          <path
             inkscape:connector-curvature="0"
             style="stroke:none;stroke-width:0"
             d="m 5.765625,-6.875 h 3.5 v 0.65625 h -7.125 v 1.671875 c 0,1.3125 -0.058594,2.324219 -0.171875,3.03125 C 1.820313,-0.742188 1.550781,-0.03125 1.15625,0.625 L 0.59375,0.015625 c 0.375,-0.632813 0.609375,-1.375 0.703125,-2.21875 0.070313,-0.5 0.109375,-1.203125 0.109375,-2.109375 V -6.875 H 5 V -8.1875 H 5.765625 Z M 2.21875,-0.515625 c 0.375,-0.800781 0.648438,-1.851563 0.828125,-3.15625 L 3.75,-3.484375 C 3.5625,-2.117188 3.269531,-0.988281 2.875,-0.09375 Z m 2.140625,-3.71875 H 5.0625 v 3.578125 c 0,0.210937 0.054688,0.339844 0.171875,0.390625 0.09375,0.042969 0.332031,0.0625 0.71875,0.0625 0.507813,0 0.804688,-0.054688 0.890625,-0.171875 C 6.9375,-0.519531 6.988281,-1.007813 7,-1.84375 v -0.1875 l 0.75,0.203125 C 7.695313,-0.703125 7.609375,-0.0507813 7.484375,0.125 7.296875,0.363281 6.785156,0.484375 5.953125,0.484375 5.335938,0.484375 4.910156,0.425781 4.671875,0.3125 4.460938,0.21875 4.359375,0.0351563 4.359375,-0.234375 Z M 6.21875,-3.84375 C 5.707031,-4.46875 5.15625,-5.003906 4.5625,-5.453125 l 0.5,-0.46875 c 0.550781,0.398437 1.117188,0.902344 1.703125,1.515625 z M 8.859375,-0.4375 C 8.316406,-1.78125 7.773438,-2.851563 7.234375,-3.65625 L 7.875,-4.015625 c 0.644531,0.980469 1.203125,2.023437 1.671875,3.125 z m 0,0"
             transform="translate(167.88448,138.35)"
             id="path1547" />
          <path
             inkscape:connector-curvature="0"
             style="stroke:none;stroke-width:0"
             d="m 5.15625,-6.15625 h 3.671875 c -0.03125,2.804687 -0.148437,4.667969 -0.34375,5.59375 -0.136719,0.6132813 -0.542969,0.921875 -1.21875,0.921875 -0.511719,0 -1.132812,-0.042969 -1.859375,-0.125 l -0.125,-0.890625 c 0.664063,0.167969 1.226563,0.25 1.6875,0.25 0.4375,0 0.691406,-0.1875 0.765625,-0.5625 0.164063,-0.925781 0.257813,-2.320313 0.28125,-4.1875 L 8.03125,-5.484375 H 5.140625 C 5.078125,-4.117188 4.789063,-2.957031 4.28125,-2 3.707031,-0.976563 2.738281,-0.09375 1.375,0.65625 L 0.828125,0.015625 c 2.269531,-1.007813 3.441406,-2.8125 3.515625,-5.40625 H 1 v -0.6875 h 3.34375 v -1.96875 h 0.8125 z m 0,0"
             transform="translate(177.47072,138.35)"
             id="path1549" />
          <path
             inkscape:connector-curvature="0"
             style="stroke:none;stroke-width:0"
             d="m 4.40625,-5.265625 h 1.1875 v 1.1875 h -1.1875 z m 0,3.578125 h 1.1875 v 1.171875 h -1.1875 z m 0,0"
             transform="translate(187.05696,138.35)"
             id="path1551" />
        </g>
        <g
           style="fill:#000000;fill-opacity:1"
           id="g1557">
          <path
             inkscape:connector-curvature="0"
             style="stroke:none;stroke-width:0"
             d="m 5.15625,-3.71875 c 0.140625,0 0.5,0 0.5,-0.34375 0,-0.234375 -0.21875,-0.234375 -0.390625,-0.234375 h -2.28125 c -1.5,0 -2.609375,1.640625 -2.609375,2.828125 0,0.875 0.59375,1.578125 1.5,1.578125 1.171875,0 2.5,-1.203125 2.5,-2.734375 0,-0.171875 0,-0.65625 -0.3125,-1.09375 z M 1.890625,-0.109375 C 1.390625,-0.109375 1,-0.46875 1,-1.1875 c 0,-0.296875 0.109375,-1.109375 0.46875,-1.703125 0.421875,-0.6875 1.015625,-0.828125 1.359375,-0.828125 0.828125,0 0.90625,0.65625 0.90625,0.96875 0,0.46875 -0.203125,1.28125 -0.53125,1.796875 -0.390625,0.578125 -0.9375,0.84375 -1.3125,0.84375 z m 0,0"
             transform="translate(196.644,138.35)"
             id="path1555" />
        </g>
        <g
           style="fill:#000000;fill-opacity:1"
           id="g1561">
          <path
             inkscape:connector-curvature="0"
             style="stroke:none;stroke-width:0"
             d="m 6.84375,-3.265625 c 0.15625,0 0.34375,0 0.34375,-0.1875 C 7.1875,-3.65625 7,-3.65625 6.859375,-3.65625 h -5.96875 c -0.140625,0 -0.328125,0 -0.328125,0.203125 0,0.1875 0.1875,0.1875 0.328125,0.1875 z m 0.015625,1.9375 c 0.140625,0 0.328125,0 0.328125,-0.203125 0,-0.1875 -0.1875,-0.1875 -0.34375,-0.1875 H 0.890625 c -0.140625,0 -0.328125,0 -0.328125,0.1875 0,0.203125 0.1875,0.203125 0.328125,0.203125 z m 0,0"
             transform="translate(205.461,138.35)"
             id="path1559" />
        </g>
        <g
           style="fill:#000000;fill-opacity:1"
           id="g1565">
          <path
             inkscape:connector-curvature="0"
             style="stroke:none;stroke-width:0"
             d="m 3.015625,-3.234375 h 0.96875 c 0.75,0 0.828125,0.15625 0.828125,0.4375 0,0.078125 0,0.1875 -0.0625,0.5 C 4.71875,-2.25 4.71875,-2.21875 4.71875,-2.1875 c 0,0.078125 0.0625,0.109375 0.109375,0.109375 0.109375,0 0.109375,-0.03125 0.15625,-0.203125 L 5.53125,-4.453125 C 5.5625,-4.5625 5.5625,-4.578125 5.5625,-4.609375 5.5625,-4.625 5.546875,-4.71875 5.4375,-4.71875 5.34375,-4.71875 5.328125,-4.671875 5.296875,-4.5 5.078125,-3.734375 4.859375,-3.546875 4,-3.546875 H 3.09375 l 0.640625,-2.53125 C 3.828125,-6.4375 3.84375,-6.46875 4.28125,-6.46875 h 1.3125 c 1.21875,0 1.453125,0.328125 1.453125,1.09375 0,0.234375 0,0.265625 -0.03125,0.546875 C 7,-4.703125 7,-4.6875 7,-4.65625 c 0,0.046875 0.03125,0.125 0.125,0.125 0.109375,0 0.109375,-0.0625 0.125,-0.25 L 7.453125,-6.515625 C 7.484375,-6.78125 7.4375,-6.78125 7.1875,-6.78125 H 2.296875 c -0.1875,0 -0.296875,0 -0.296875,0.203125 0,0.109375 0.09375,0.109375 0.28125,0.109375 0.375,0 0.65625,0 0.65625,0.171875 0,0.046875 0,0.0625 -0.0625,0.25 L 1.5625,-0.78125 c -0.09375,0.390625 -0.109375,0.46875 -0.90625,0.46875 -0.171875,0 -0.28125,0 -0.28125,0.1875 C 0.375,0 0.5,0 0.53125,0 0.8125,0 1.5625,-0.03125 1.84375,-0.03125 2.171875,-0.03125 3,0 3.328125,0 3.421875,0 3.53125,0 3.53125,-0.1875 3.53125,-0.265625 3.484375,-0.296875 3.484375,-0.296875 3.453125,-0.3125 3.421875,-0.3125 3.203125,-0.3125 c -0.21875,0 -0.265625,0 -0.515625,-0.015625 -0.296875,-0.03125 -0.328125,-0.078125 -0.328125,-0.203125 0,-0.015625 0,-0.078125 0.046875,-0.21875 z m 0,0"
             transform="translate(217.173,131.61)"
             id="path1563" />
        </g>
        <path
           inkscape:connector-curvature="0"
           style="fill:none;stroke:#000000;stroke-width:0.398;stroke-linecap:butt;stroke-linejoin:miter;stroke-miterlimit:10;stroke-opacity:1"
           d="M -0.001125,-3.75e-4 H 7.791844"
           transform="matrix(1,0,0,-1,217.173,135.859)"
           id="path1567" />
        <g
           style="fill:#000000;fill-opacity:1"
           id="g1571">
          <path
             inkscape:connector-curvature="0"
             style="stroke:none;stroke-width:0"
             d="m 6.4375,-6.921875 c 0,-0.03125 -0.03125,-0.109375 -0.125,-0.109375 -0.046875,0 -0.046875,0.015625 -0.171875,0.15625 L 5.65625,-6.3125 c -0.25,-0.46875 -0.765625,-0.71875 -1.421875,-0.71875 -1.265625,0 -2.453125,1.15625 -2.453125,2.359375 0,0.796875 0.515625,1.265625 1.03125,1.40625 l 1.0625,0.28125 c 0.375,0.09375 0.921875,0.25 0.921875,1.0625 0,0.890625 -0.8125,1.828125 -1.796875,1.828125 -0.640625,0 -1.75,-0.21875 -1.75,-1.453125 0,-0.234375 0.0625,-0.484375 0.0625,-0.53125 0.015625,-0.046875 0.015625,-0.0625 0.015625,-0.078125 0,-0.09375 -0.0625,-0.109375 -0.109375,-0.109375 -0.046875,0 -0.078125,0.015625 -0.109375,0.046875 -0.03125,0.03125 -0.59375,2.3125 -0.59375,2.34375 0,0.046875 0.046875,0.09375 0.109375,0.09375 0.046875,0 0.0625,-0.015625 0.1875,-0.15625 L 1.296875,-0.5 c 0.421875,0.578125 1.109375,0.71875 1.6875,0.71875 1.359375,0 2.53125,-1.328125 2.53125,-2.5625 0,-0.6875 -0.34375,-1.03125 -0.484375,-1.171875 C 4.796875,-3.734375 4.640625,-3.78125 3.765625,-4 3.53125,-4.0625 3.1875,-4.171875 3.09375,-4.1875 2.828125,-4.28125 2.484375,-4.5625 2.484375,-5.09375 c 0,-0.8125 0.796875,-1.65625 1.75,-1.65625 0.8125,0 1.421875,0.4375 1.421875,1.546875 0,0.3125 -0.03125,0.5 -0.03125,0.5625 0,0 0,0.09375 0.109375,0.09375 0.109375,0 0.125,-0.03125 0.15625,-0.203125 z m 0,0"
             transform="translate(217.726,145.183)"
             id="path1569" />
        </g>
        <g
           style="fill:#000000;fill-opacity:1"
           id="g1593">
          <path
             inkscape:connector-curvature="0"
             style="stroke:none;stroke-width:0"
             d="m 5.765625,-6.875 h 3.5 v 0.65625 h -7.125 v 1.671875 c 0,1.3125 -0.058594,2.324219 -0.171875,3.03125 C 1.820313,-0.742188 1.550781,-0.03125 1.15625,0.625 L 0.59375,0.015625 c 0.375,-0.632813 0.609375,-1.375 0.703125,-2.21875 0.070313,-0.5 0.109375,-1.203125 0.109375,-2.109375 V -6.875 H 5 V -8.1875 H 5.765625 Z M 2.21875,-0.515625 c 0.375,-0.800781 0.648438,-1.851563 0.828125,-3.15625 L 3.75,-3.484375 C 3.5625,-2.117188 3.269531,-0.988281 2.875,-0.09375 Z m 2.140625,-3.71875 H 5.0625 v 3.578125 c 0,0.210937 0.054688,0.339844 0.171875,0.390625 0.09375,0.042969 0.332031,0.0625 0.71875,0.0625 0.507813,0 0.804688,-0.054688 0.890625,-0.171875 C 6.9375,-0.519531 6.988281,-1.007813 7,-1.84375 v -0.1875 l 0.75,0.203125 C 7.695313,-0.703125 7.609375,-0.0507813 7.484375,0.125 7.296875,0.363281 6.785156,0.484375 5.953125,0.484375 5.335938,0.484375 4.910156,0.425781 4.671875,0.3125 4.460938,0.21875 4.359375,0.0351563 4.359375,-0.234375 Z M 6.21875,-3.84375 C 5.707031,-4.46875 5.15625,-5.003906 4.5625,-5.453125 l 0.5,-0.46875 c 0.550781,0.398437 1.117188,0.902344 1.703125,1.515625 z M 8.859375,-0.4375 C 8.316406,-1.78125 7.773438,-2.851563 7.234375,-3.65625 L 7.875,-4.015625 c 0.644531,0.980469 1.203125,2.023437 1.671875,3.125 z m 0,0"
             transform="translate(148.712,155.683)"
             id="path1573" />
          <path
             inkscape:connector-curvature="0"
             style="stroke:none;stroke-width:0"
             d="m 5.15625,-6.15625 h 3.671875 c -0.03125,2.804687 -0.148437,4.667969 -0.34375,5.59375 -0.136719,0.6132813 -0.542969,0.921875 -1.21875,0.921875 -0.511719,0 -1.132812,-0.042969 -1.859375,-0.125 l -0.125,-0.890625 c 0.664063,0.167969 1.226563,0.25 1.6875,0.25 0.4375,0 0.691406,-0.1875 0.765625,-0.5625 0.164063,-0.925781 0.257813,-2.320313 0.28125,-4.1875 L 8.03125,-5.484375 H 5.140625 C 5.078125,-4.117188 4.789063,-2.957031 4.28125,-2 3.707031,-0.976563 2.738281,-0.09375 1.375,0.65625 L 0.828125,0.015625 c 2.269531,-1.007813 3.441406,-2.8125 3.515625,-5.40625 H 1 v -0.6875 h 3.34375 v -1.96875 h 0.8125 z m 0,0"
             transform="translate(158.29824,155.683)"
             id="path1575" />
          <path
             inkscape:connector-curvature="0"
             style="stroke:none;stroke-width:0"
             d="m 4.875,-0.734375 c 2.25,-0.3125 3.375,-1.332031 3.375,-3.0625 0,-1.0625 -0.453125,-1.84375 -1.359375,-2.34375 C 6.503906,-6.335938 6.054688,-6.457031 5.546875,-6.5 5.378906,-4.800781 5.015625,-3.363281 4.453125,-2.1875 3.898438,-1.050781 3.3125,-0.484375 2.6875,-0.484375 c -0.355469,0 -0.6875,-0.1875 -1,-0.5625 C 1.195313,-1.640625 0.953125,-2.332031 0.953125,-3.125 c 0,-1.070313 0.410156,-2.003906 1.234375,-2.796875 C 3,-6.722656 4.054688,-7.125 5.359375,-7.125 c 0.914063,0 1.695313,0.230469 2.34375,0.6875 0.914063,0.636719 1.375,1.515625 1.375,2.640625 0,2.074219 -1.242187,3.335937 -3.71875,3.78125 z m -0.109375,-5.75 C 4.066406,-6.367188 3.460938,-6.101563 2.953125,-5.6875 2.128906,-5 1.71875,-4.140625 1.71875,-3.109375 c 0,0.648437 0.171875,1.171875 0.515625,1.578125 0.15625,0.179687 0.304688,0.265625 0.453125,0.265625 0.3125,0 0.675781,-0.425781 1.09375,-1.28125 0.507813,-1.050781 0.835938,-2.363281 0.984375,-3.9375 z m 0,0"
             transform="translate(167.88448,155.683)"
             id="path1577" />
          <path
             inkscape:connector-curvature="0"
             style="stroke:none;stroke-width:0"
             d="M 8.4375,-2.671875 H 5.328125 V -1.75 H 9.4375 v 0.640625 H 5.328125 v 1.8125 H 4.59375 v -1.8125 H 0.546875 V -1.75 H 4.59375 V -2.671875 H 1.546875 v -3.5 h 4.46875 C 6.472656,-6.773438 6.882813,-7.445313 7.25,-8.1875 l 0.765625,0.359375 c -0.367187,0.605469 -0.757812,1.15625 -1.171875,1.65625 H 8.4375 Z M 7.734375,-3.25 V -4.1875 H 5.3125 V -3.25 Z m 0,-1.484375 V -5.59375 H 5.3125 v 0.859375 z M 2.265625,-5.59375 v 0.859375 H 4.625 V -5.59375 Z m 0,1.40625 V -3.25 H 4.625 V -4.1875 Z M 4.6875,-6.34375 C 4.53125,-6.832031 4.300781,-7.347656 4,-7.890625 L 4.6875,-8.1875 c 0.28125,0.429687 0.535156,0.945312 0.765625,1.546875 z M 2.578125,-6.296875 C 2.367188,-6.847656 2.128906,-7.332031 1.859375,-7.75 l 0.6875,-0.296875 c 0.28125,0.367187 0.546875,0.851562 0.796875,1.453125 z m 0,0"
             transform="translate(177.47072,155.683)"
             id="path1579" />
          <path
             inkscape:connector-curvature="0"
             style="stroke:none;stroke-width:0"
             d="m 2.453125,-5.734375 v 6.4375 h -0.71875 v -4.96875 C 1.472656,-3.804688 1.175781,-3.351563 0.84375,-2.90625 L 0.453125,-3.515625 C 1.410156,-4.847656 2.085938,-6.40625 2.484375,-8.1875 l 0.6875,0.140625 c -0.199219,0.875 -0.4375,1.648437 -0.71875,2.3125 z M 6.375,-6.15625 h 2.671875 v 0.640625 H 3.1875 V -6.15625 H 5.625 v -1.828125 h 0.75 z M 6.296875,-0.359375 V -0.40625 c 0.445313,-1.382813 0.789063,-2.921875 1.03125,-4.609375 l 0.765625,0.1875 C 7.78125,-3.128906 7.414063,-1.640625 7,-0.359375 h 2.390625 v 0.65625 H 2.875 v -0.65625 z M 4.6875,-0.875 C 4.46875,-2.238281 4.171875,-3.503906 3.796875,-4.671875 L 4.515625,-4.875 c 0.351563,0.96875 0.675781,2.226562 0.96875,3.765625 z m 0,0"
             transform="translate(187.05696,155.683)"
             id="path1581" />
          <path
             inkscape:connector-curvature="0"
             style="stroke:none;stroke-width:0"
             d="m 4.40625,-5.265625 h 1.1875 v 1.1875 h -1.1875 z m 0,3.578125 h 1.1875 v 1.171875 h -1.1875 z m 0,0"
             transform="translate(196.6432,155.683)"
             id="path1583" />
          <path
             inkscape:connector-curvature="0"
             style="stroke:none;stroke-width:0"
             d="M 0.625,-1.40625 C 1.71875,-2.613281 2.523438,-4.164063 3.046875,-6.0625 l 0.8125,0.296875 c -0.585937,2 -1.417969,3.640625 -2.5,4.921875 z m 7.84375,0.359375 C 7.6875,-2.710938 6.769531,-4.300781 5.71875,-5.8125 l 0.71875,-0.375 c 0.945313,1.28125 1.890625,2.8125 2.828125,4.59375 z m -0.296875,-7.125 c 0.320313,0 0.59375,0.121094 0.8125,0.359375 0.1875,0.210937 0.28125,0.453125 0.28125,0.734375 0,0.324219 -0.121094,0.59375 -0.359375,0.8125 -0.210937,0.199219 -0.453125,0.296875 -0.734375,0.296875 -0.324219,0 -0.601562,-0.125 -0.828125,-0.375 -0.1875,-0.207031 -0.28125,-0.453125 -0.28125,-0.734375 0,-0.320313 0.117188,-0.59375 0.359375,-0.8125 0.21875,-0.1875 0.46875,-0.28125 0.75,-0.28125 z m 0,0.4375 c -0.199219,0 -0.367187,0.074219 -0.5,0.21875 C 7.554688,-7.390625 7.5,-7.242188 7.5,-7.078125 c 0,0.199219 0.070313,0.367187 0.21875,0.5 0.125,0.117187 0.273438,0.171875 0.453125,0.171875 0.1875,0 0.347656,-0.070313 0.484375,-0.21875 0.113281,-0.132813 0.171875,-0.285156 0.171875,-0.453125 0,-0.195313 -0.074219,-0.359375 -0.21875,-0.484375 -0.125,-0.113281 -0.273437,-0.171875 -0.4375,-0.171875 z m 0,0"
             transform="translate(206.22944,155.683)"
             id="path1585" />
          <path
             inkscape:connector-curvature="0"
             style="stroke:none;stroke-width:0"
             d="m 6.8125,-7 0.5625,0.515625 c -0.40625,1.125 -0.964844,2.167969 -1.671875,3.125 1.050781,0.75 2.097656,1.636719 3.140625,2.65625 L 8.171875,-0.03125 C 7.160156,-1.144531 6.179688,-2.0625 5.234375,-2.78125 4.210938,-1.550781 3.007813,-0.609375 1.625,0.046875 L 1.015625,-0.625 C 3.597656,-1.71875 5.394531,-3.59375 6.40625,-6.25 L 1.9375,-6.1875 1.921875,-6.953125 Z m 0,0"
             transform="translate(215.81568,155.683)"
             id="path1587" />
          <path
             inkscape:connector-curvature="0"
             style="stroke:none;stroke-width:0"
             d="m 4.265625,-7.78125 h 0.8125 v 2.015625 h 3.125 v 0.40625 c 0,2.1875 -0.121094,3.714844 -0.359375,4.578125 C 7.675781,-0.175781 7.300781,0.125 6.71875,0.125 6.1875,0.125 5.640625,-0.00390625 5.078125,-0.265625 l -0.03125,-0.875 c 0.65625,0.304687 1.160156,0.453125 1.515625,0.453125 0.289063,0 0.472656,-0.164063 0.546875,-0.5 C 7.273438,-1.9375 7.375,-3.222656 7.40625,-5.046875 H 5.015625 c -0.1875,2.417969 -1.257812,4.167969 -3.203125,5.25 L 1.203125,-0.40625 C 3.023438,-1.3125 4.03125,-2.847656 4.21875,-5.015625 H 1.4375 v -0.71875 h 2.828125 z m 0,0"
             transform="translate(225.40192,155.683)"
             id="path1589" />
          <path
             inkscape:connector-curvature="0"
             style="stroke:none;stroke-width:0"
             d="m 0.546875,-0.515625 c 1,-0.6875 1.617188,-1.566406 1.859375,-2.640625 C 2.550781,-3.8125 2.625,-5.050781 2.625,-6.875 h 0.8125 v 0.4375 c 0,1.9375 -0.140625,3.308594 -0.421875,4.109375 C 2.691406,-1.390625 2.070313,-0.59375 1.15625,0.0625 Z m 4.34375,-6.78125 h 0.8125 v 6.09375 c 1.28125,-0.75 2.332031,-1.769531 3.15625,-3.0625 L 9.375,-3.5625 C 8.414063,-2.195313 7.125,-1.039063 5.5,-0.09375 L 4.890625,-0.5625 Z m 0,0"
             transform="translate(234.98816,155.683)"
             id="path1591" />
        </g>
        <g
           style="fill:#000000;fill-opacity:1"
           id="g1599">
          <path
             inkscape:connector-curvature="0"
             style="stroke:none;stroke-width:0"
             d="M 2.546875,2.5 V 2.09375 h -0.96875 v -9.171875 h 0.96875 v -0.40625 h -1.375 V 2.5 Z m 0,0"
             transform="translate(246.971,155.683)"
             id="path1595" />
          <path
             inkscape:connector-curvature="0"
             style="stroke:none;stroke-width:0"
             d="m 2.265625,-3.15625 h 1.6875 c 1.1875,0 2.265625,-0.796875 2.265625,-1.796875 C 6.21875,-5.9375 5.234375,-6.8125 3.875,-6.8125 H 0.34375 V -6.5 h 0.25 c 0.765625,0 0.78125,0.109375 0.78125,0.46875 v 5.25 c 0,0.359375 -0.015625,0.46875 -0.78125,0.46875 h -0.25 V 0 c 0.359375,-0.03125 1.09375,-0.03125 1.46875,-0.03125 0.375,0 1.125,0 1.484375,0.03125 v -0.3125 h -0.25 c -0.765625,0 -0.78125,-0.109375 -0.78125,-0.46875 z m -0.03125,-0.25 v -2.6875 C 2.234375,-6.4375 2.25,-6.5 2.71875,-6.5 h 0.890625 c 1.578125,0 1.578125,1.0625 1.578125,1.546875 0,0.46875 0,1.546875 -1.578125,1.546875 z m 0,0"
             transform="translate(249.73862,155.683)"
             id="path1597" />
        </g>
        <g
           style="fill:#000000;fill-opacity:1"
           id="g1605">
          <path
             inkscape:connector-curvature="0"
             style="stroke:none;stroke-width:0"
             d="m 3.3125,-0.75 c 0.046875,0.390625 0.3125,0.8125 0.78125,0.8125 0.21875,0 0.828125,-0.140625 0.828125,-0.953125 v -0.5625 h -0.25 v 0.5625 c 0,0.578125 -0.25,0.640625 -0.359375,0.640625 -0.328125,0 -0.375,-0.453125 -0.375,-0.5 v -1.984375 c 0,-0.421875 0,-0.8125 -0.359375,-1.1875 C 3.1875,-4.3125 2.6875,-4.46875 2.21875,-4.46875 c -0.828125,0 -1.515625,0.46875 -1.515625,1.125 0,0.296875 0.203125,0.46875 0.46875,0.46875 0.28125,0 0.453125,-0.203125 0.453125,-0.453125 0,-0.125 -0.046875,-0.453125 -0.515625,-0.453125 C 1.390625,-4.140625 1.875,-4.25 2.1875,-4.25 c 0.5,0 1.0625,0.390625 1.0625,1.28125 v 0.359375 c -0.515625,0.03125 -1.203125,0.0625 -1.828125,0.359375 -0.75,0.34375 -1,0.859375 -1,1.296875 0,0.8125 0.96875,1.0625 1.59375,1.0625 0.65625,0 1.109375,-0.40625 1.296875,-0.859375 z M 3.25,-2.390625 v 1 c 0,0.9375 -0.71875,1.28125 -1.171875,1.28125 -0.484375,0 -0.890625,-0.34375 -0.890625,-0.84375 0,-0.546875 0.421875,-1.375 2.0625,-1.4375 z m 0,0"
             transform="translate(256.2502,155.683)"
             id="path1601" />
          <path
             inkscape:connector-curvature="0"
             style="stroke:none;stroke-width:0"
             d="M 1.578125,-7.484375 H 0.21875 v 0.40625 H 1.1875 V 2.09375 H 0.21875 V 2.5 h 1.359375 z m 0,0"
             transform="translate(261.23152,155.683)"
             id="path1603" />
        </g>
        <g
           style="fill:#000000;fill-opacity:1"
           id="g1609">
          <path
             inkscape:connector-curvature="0"
             style="stroke:none;stroke-width:0"
             d="m 6.84375,-3.265625 c 0.15625,0 0.34375,0 0.34375,-0.1875 C 7.1875,-3.65625 7,-3.65625 6.859375,-3.65625 h -5.96875 c -0.140625,0 -0.328125,0 -0.328125,0.203125 0,0.1875 0.1875,0.1875 0.328125,0.1875 z m 0.015625,1.9375 c 0.140625,0 0.328125,0 0.328125,-0.203125 0,-0.1875 -0.1875,-0.1875 -0.34375,-0.1875 H 0.890625 c -0.140625,0 -0.328125,0 -0.328125,0.1875 0,0.203125 0.1875,0.203125 0.328125,0.203125 z m 0,0"
             transform="translate(266.74883,155.683)"
             id="path1607" />
        </g>
        <g
           style="fill:#000000;fill-opacity:1"
           id="g1615">
          <path
             inkscape:connector-curvature="0"
             style="stroke:none;stroke-width:0"
             d="M 2.546875,2.5 V 2.09375 h -0.96875 v -9.171875 h 0.96875 v -0.40625 h -1.375 V 2.5 Z m 0,0"
             transform="translate(277.26739,155.683)"
             id="path1611" />
          <path
             inkscape:connector-curvature="0"
             style="stroke:none;stroke-width:0"
             d="M 2.3125,-6.671875 C 2.21875,-6.796875 2.21875,-6.8125 2.03125,-6.8125 H 0.328125 V -6.5 H 0.625 c 0.140625,0 0.34375,0.015625 0.484375,0.015625 0.234375,0.03125 0.25,0.046875 0.25,0.234375 v 5.203125 c 0,0.265625 0,0.734375 -1.03125,0.734375 V 0 C 0.671875,-0.015625 1.171875,-0.03125 1.5,-0.03125 c 0.328125,0 0.8125,0.015625 1.15625,0.03125 v -0.3125 c -1.015625,0 -1.015625,-0.46875 -1.015625,-0.734375 v -5.1875 c 0.046875,0.046875 0.046875,0.0625 0.09375,0.125 L 5.796875,-0.125 C 5.890625,-0.015625 5.90625,0 5.96875,0 6.109375,0 6.109375,-0.0625 6.109375,-0.265625 v -5.5 c 0,-0.265625 0,-0.734375 1.03125,-0.734375 v -0.3125 c -0.359375,0.015625 -0.84375,0.03125 -1.171875,0.03125 -0.328125,0 -0.8125,-0.015625 -1.15625,-0.03125 V -6.5 c 1.015625,0 1.015625,0.46875 1.015625,0.734375 V -1.5 Z m 0,0"
             transform="translate(280.03501,155.683)"
             id="path1613" />
        </g>
        <g
           style="fill:#000000;fill-opacity:1"
           id="g1619">
          <path
             inkscape:connector-curvature="0"
             style="stroke:none;stroke-width:0"
             d="m 4.375,-7.09375 c 0.046875,-0.140625 0.046875,-0.171875 0.046875,-0.1875 0,-0.109375 -0.078125,-0.203125 -0.1875,-0.203125 -0.078125,0 -0.140625,0.03125 -0.171875,0.09375 l -3.46875,9.5 C 0.546875,2.25 0.546875,2.28125 0.546875,2.296875 0.546875,2.40625 0.640625,2.5 0.75,2.5 0.875,2.5 0.90625,2.421875 0.96875,2.25 Z m 0,0"
             transform="translate(287.514,155.683)"
             id="path1617" />
        </g>
        <g
           style="fill:#000000;fill-opacity:1"
           id="g1623">
          <path
             inkscape:connector-curvature="0"
             style="stroke:none;stroke-width:0"
             d="M 1.09375,-3.421875 V -0.75 c 0,0.4375 -0.109375,0.4375 -0.78125,0.4375 V 0 c 0.359375,-0.015625 0.859375,-0.03125 1.140625,-0.03125 0.25,0 0.765625,0.015625 1.109375,0.03125 v -0.3125 c -0.671875,0 -0.78125,0 -0.78125,-0.4375 V -2.59375 C 1.78125,-3.625 2.5,-4.1875 3.125,-4.1875 c 0.640625,0 0.75,0.53125 0.75,1.109375 V -0.75 c 0,0.4375 -0.109375,0.4375 -0.78125,0.4375 V 0 c 0.34375,-0.015625 0.859375,-0.03125 1.125,-0.03125 0.25,0 0.78125,0.015625 1.109375,0.03125 v -0.3125 c -0.65625,0 -0.765625,0 -0.765625,-0.4375 v -1.84375 c 0,-1.03125 0.703125,-1.59375 1.34375,-1.59375 0.625,0 0.734375,0.53125 0.734375,1.109375 V -0.75 c 0,0.4375 -0.109375,0.4375 -0.78125,0.4375 V 0 c 0.34375,-0.015625 0.859375,-0.03125 1.125,-0.03125 0.265625,0 0.78125,0.015625 1.125,0.03125 v -0.3125 c -0.515625,0 -0.765625,0 -0.78125,-0.296875 v -1.90625 c 0,-0.859375 0,-1.15625 -0.3125,-1.515625 -0.140625,-0.171875 -0.46875,-0.375 -1.046875,-0.375 -0.828125,0 -1.28125,0.59375 -1.4375,0.984375 C 4.390625,-4.296875 3.65625,-4.40625 3.203125,-4.40625 2.46875,-4.40625 2,-3.984375 1.71875,-3.359375 V -4.40625 L 0.3125,-4.296875 v 0.3125 c 0.703125,0 0.78125,0.0625 0.78125,0.5625 z m 0,0"
             transform="translate(292.495,155.683)"
             id="path1621" />
        </g>
        <g
           style="fill:#000000;fill-opacity:1"
           id="g1627">
          <path
             inkscape:connector-curvature="0"
             style="stroke:none;stroke-width:0"
             d="M 3.515625,-1.265625 H 3.28125 c -0.015625,0.15625 -0.09375,0.5625 -0.1875,0.625 C 3.046875,-0.59375 2.515625,-0.59375 2.40625,-0.59375 H 1.125 c 0.734375,-0.640625 0.984375,-0.84375 1.390625,-1.171875 0.515625,-0.40625 1,-0.84375 1,-1.5 0,-0.84375 -0.734375,-1.359375 -1.625,-1.359375 -0.859375,0 -1.453125,0.609375 -1.453125,1.25 0,0.34375 0.296875,0.390625 0.375,0.390625 0.15625,0 0.359375,-0.125 0.359375,-0.375 0,-0.125 -0.046875,-0.375 -0.40625,-0.375 C 0.984375,-4.21875 1.453125,-4.375 1.78125,-4.375 c 0.703125,0 1.0625,0.546875 1.0625,1.109375 0,0.609375 -0.4375,1.078125 -0.65625,1.328125 L 0.515625,-0.265625 C 0.4375,-0.203125 0.4375,-0.1875 0.4375,0 h 2.875 z m 0,0"
             transform="translate(300.797,150.674)"
             id="path1625" />
        </g>
        <g
           style="fill:#000000;fill-opacity:1"
           id="g1631">
          <path
             inkscape:connector-curvature="0"
             style="stroke:none;stroke-width:0"
             d="M 1.578125,-7.484375 H 0.21875 v 0.40625 H 1.1875 V 2.09375 H 0.21875 V 2.5 h 1.359375 z m 0,0"
             transform="translate(305.267,155.683)"
             id="path1629" />
        </g>
      </g>
    </g>
    <g
       inkscape:export-ydpi="600"
       inkscape:export-xdpi="600"
       inkscape:export-filename="D:\Dropbox\セミナー関連\技術情報協会\2019_5_レオロジー\fig\fig_5\応力.png"
       transform="matrix(4,0,0,4,67.03299,-253.69644)"
       ns1:version="0.10.1"
       ns1:texconverter="lualatex"
       ns1:pdfconverter="pdf2svg"
       ns1:text="$\\text{\xe5\xbf\x9c\xe5\x8a\x9b}=\\dfrac{\\text{\xe5\x8a\x9b}}{\\text{\xe9\x9d\xa2\xe7\xa9\x8d}}$"
       ns1:preamble="C:\\Users\\h_sasaki\\AppData\\Roaming\\inkscape\\extensions\\textext\\luatex_gt.tex"
       ns1:scale="3.0"
       ns1:alignment="middle center"
       inkscapeversion="0.92.4"
       ns1:jacobian_sqrt="4.0"
       id="g1824">
      <g
         id="g1822">
        <g
           style="fill:#000000;fill-opacity:1"
           id="g1804">
          <path
             inkscape:connector-curvature="0"
             style="stroke:none;stroke-width:0"
             d="m 5.765625,-6.875 h 3.5 v 0.65625 h -7.125 v 1.671875 c 0,1.3125 -0.058594,2.324219 -0.171875,3.03125 C 1.820313,-0.742188 1.550781,-0.03125 1.15625,0.625 L 0.59375,0.015625 c 0.375,-0.632813 0.609375,-1.375 0.703125,-2.21875 0.070313,-0.5 0.109375,-1.203125 0.109375,-2.109375 V -6.875 H 5 V -8.1875 H 5.765625 Z M 2.21875,-0.515625 c 0.375,-0.800781 0.648438,-1.851563 0.828125,-3.15625 L 3.75,-3.484375 C 3.5625,-2.117188 3.269531,-0.988281 2.875,-0.09375 Z m 2.140625,-3.71875 H 5.0625 v 3.578125 c 0,0.210937 0.054688,0.339844 0.171875,0.390625 0.09375,0.042969 0.332031,0.0625 0.71875,0.0625 0.507813,0 0.804688,-0.054688 0.890625,-0.171875 C 6.9375,-0.519531 6.988281,-1.007813 7,-1.84375 v -0.1875 l 0.75,0.203125 C 7.695313,-0.703125 7.609375,-0.0507813 7.484375,0.125 7.296875,0.363281 6.785156,0.484375 5.953125,0.484375 5.335938,0.484375 4.910156,0.425781 4.671875,0.3125 4.460938,0.21875 4.359375,0.0351563 4.359375,-0.234375 Z M 6.21875,-3.84375 C 5.707031,-4.46875 5.15625,-5.003906 4.5625,-5.453125 l 0.5,-0.46875 c 0.550781,0.398437 1.117188,0.902344 1.703125,1.515625 z M 8.859375,-0.4375 C 8.316406,-1.78125 7.773438,-2.851563 7.234375,-3.65625 L 7.875,-4.015625 c 0.644531,0.980469 1.203125,2.023437 1.671875,3.125 z m 0,0"
             transform="translate(148.712,139.978)"
             id="path1800" />
          <path
             inkscape:connector-curvature="0"
             style="stroke:none;stroke-width:0"
             d="m 5.15625,-6.15625 h 3.671875 c -0.03125,2.804687 -0.148437,4.667969 -0.34375,5.59375 -0.136719,0.6132813 -0.542969,0.921875 -1.21875,0.921875 -0.511719,0 -1.132812,-0.042969 -1.859375,-0.125 l -0.125,-0.890625 c 0.664063,0.167969 1.226563,0.25 1.6875,0.25 0.4375,0 0.691406,-0.1875 0.765625,-0.5625 0.164063,-0.925781 0.257813,-2.320313 0.28125,-4.1875 L 8.03125,-5.484375 H 5.140625 C 5.078125,-4.117188 4.789063,-2.957031 4.28125,-2 3.707031,-0.976563 2.738281,-0.09375 1.375,0.65625 L 0.828125,0.015625 c 2.269531,-1.007813 3.441406,-2.8125 3.515625,-5.40625 H 1 v -0.6875 h 3.34375 v -1.96875 h 0.8125 z m 0,0"
             transform="translate(158.29824,139.978)"
             id="path1802" />
        </g>
        <g
           style="fill:#000000;fill-opacity:1"
           id="g1808">
          <path
             inkscape:connector-curvature="0"
             style="stroke:none;stroke-width:0"
             d="m 6.84375,-3.265625 c 0.15625,0 0.34375,0 0.34375,-0.1875 C 7.1875,-3.65625 7,-3.65625 6.859375,-3.65625 h -5.96875 c -0.140625,0 -0.328125,0 -0.328125,0.203125 0,0.1875 0.1875,0.1875 0.328125,0.1875 z m 0.015625,1.9375 c 0.140625,0 0.328125,0 0.328125,-0.203125 0,-0.1875 -0.1875,-0.1875 -0.34375,-0.1875 H 0.890625 c -0.140625,0 -0.328125,0 -0.328125,0.1875 0,0.203125 0.1875,0.203125 0.328125,0.203125 z m 0,0"
             transform="translate(170.652,139.978)"
             id="path1806" />
        </g>
        <g
           style="fill:#000000;fill-opacity:1"
           id="g1812">
          <path
             inkscape:connector-curvature="0"
             style="stroke:none;stroke-width:0"
             d="m 5.15625,-6.15625 h 3.671875 c -0.03125,2.804687 -0.148437,4.667969 -0.34375,5.59375 -0.136719,0.6132813 -0.542969,0.921875 -1.21875,0.921875 -0.511719,0 -1.132812,-0.042969 -1.859375,-0.125 l -0.125,-0.890625 c 0.664063,0.167969 1.226563,0.25 1.6875,0.25 0.4375,0 0.691406,-0.1875 0.765625,-0.5625 0.164063,-0.925781 0.257813,-2.320313 0.28125,-4.1875 L 8.03125,-5.484375 H 5.140625 C 5.078125,-4.117188 4.789063,-2.957031 4.28125,-2 3.707031,-0.976563 2.738281,-0.09375 1.375,0.65625 L 0.828125,0.015625 c 2.269531,-1.007813 3.441406,-2.8125 3.515625,-5.40625 H 1 v -0.6875 h 3.34375 v -1.96875 h 0.8125 z m 0,0"
             transform="translate(187.157,133.238)"
             id="path1810" />
        </g>
        <path
           inkscape:connector-curvature="0"
           style="fill:none;stroke:#000000;stroke-width:0.398;stroke-linecap:butt;stroke-linejoin:miter;stroke-miterlimit:10;stroke-opacity:1"
           d="M -7.1875e-4,-0.00128125 H 19.171156"
           transform="matrix(1,0,0,-1,182.364,137.487)"
           id="path1814" />
        <g
           style="fill:#000000;fill-opacity:1"
           id="g1820">
          <path
             inkscape:connector-curvature="0"
             style="stroke:none;stroke-width:0"
             d="M 4.78125,-5.65625 H 8.796875 V 0.703125 H 8.09375 V 0.15625 H 1.90625 V 0.703125 H 1.203125 V -5.65625 H 4.09375 c 0.164063,-0.425781 0.296875,-0.847656 0.390625,-1.265625 h -3.9375 V -7.59375 H 9.4375 v 0.671875 H 5.28125 L 5.265625,-6.875 c -0.15625,0.460937 -0.320312,0.867187 -0.484375,1.21875 z m -1.375,0.625 h -1.5 v 4.5625 h 1.5 z m 0.65625,0 v 1.109375 H 5.890625 V -5.03125 Z m 2.484375,0 v 4.5625 H 8.09375 v -4.5625 z M 4.0625,-3.34375 v 1.109375 H 5.890625 V -3.34375 Z m 0,1.6875 v 1.1875 h 1.828125 v -1.1875 z m 0,0"
             transform="translate(182.364,147.318)"
             id="path1816" />
          <path
             inkscape:connector-curvature="0"
             style="stroke:none;stroke-width:0"
             d="M 3.703125,-5.484375 H 6.21875 v -0.5 h -2.0625 v -0.5 h 2.0625 v -0.46875 H 3.859375 v -0.53125 H 6.21875 v -0.8125 H 6.875 v 0.8125 h 2.453125 v 0.53125 H 6.875 v 0.46875 h 2.109375 v 0.5 H 6.875 v 0.5 H 9.5 v 0.53125 H 3.609375 V -5.15625 H 2.625 v 0.921875 C 3.050781,-3.878906 3.484375,-3.46875 3.921875,-3 l -0.4375,0.625 C 3.234375,-2.75 2.945313,-3.117188 2.625,-3.484375 v 4.1875 H 1.96875 v -4.5 C 1.625,-2.753906 1.203125,-1.875 0.703125,-1.15625 L 0.375,-1.84375 c 0.71875,-1.0625 1.21875,-2.164063 1.5,-3.3125 H 0.515625 v -0.625 H 1.96875 V -7.109375 C 1.550781,-7.023438 1.164063,-6.957031 0.8125,-6.90625 L 0.53125,-7.484375 C 1.507813,-7.617188 2.410156,-7.84375 3.234375,-8.15625 l 0.484375,0.5625 c -0.367187,0.125 -0.730469,0.234375 -1.09375,0.328125 v 1.484375 h 1.078125 z m 1.953125,4.578125 0.515625,0.421875 c -0.699219,0.5507813 -1.414062,0.96875 -2.140625,1.25 L 3.5625,0.21875 c 0.71875,-0.2382813 1.414063,-0.613281 2.09375,-1.125 H 4.359375 v -3.546875 h 4.46875 V -0.90625 Z M 4.984375,-3.9375 v 0.515625 H 8.1875 V -3.9375 Z m 0,0.984375 v 0.5 H 8.1875 v -0.5 z m 0,0.96875 V -1.4375 H 8.1875 v -0.546875 z m 4.0625,2.640625 c -0.65625,-0.449219 -1.34375,-0.816406 -2.0625,-1.109375 l 0.46875,-0.4375 c 0.6875,0.242187 1.394531,0.574219 2.125,1 z m 0,0"
             transform="translate(191.95024,147.318)"
             id="path1818" />
        </g>
      </g>
    </g>
  </g>
</svg>
