<?xml version="1.0" encoding="UTF-8" standalone="no"?>
<svg
   xmlns:dc="http://purl.org/dc/elements/1.1/"
   xmlns:cc="http://creativecommons.org/ns#"
   xmlns:rdf="http://www.w3.org/1999/02/22-rdf-syntax-ns#"
   xmlns:svg="http://www.w3.org/2000/svg"
   xmlns="http://www.w3.org/2000/svg"
   xmlns:sodipodi="http://sodipodi.sourceforge.net/DTD/sodipodi-0.dtd"
   xmlns:inkscape="http://www.inkscape.org/namespaces/inkscape"
   inkscape:version="1.0 (4035a4fb49, 2020-05-01)"
   sodipodi:docname="walk.svg"
   viewBox="0 0 1066.6667 1066.6667"
   height="1066.6667"
   width="1066.6667"
   xml:space="preserve"
   id="svg2"
   version="1.1"><metadata
     id="metadata8"><rdf:RDF><cc:Work
         rdf:about=""><dc:format>image/svg+xml</dc:format><dc:type
           rdf:resource="http://purl.org/dc/dcmitype/StillImage" /><dc:title></dc:title></cc:Work></rdf:RDF></metadata><defs
     id="defs6"><clipPath
       id="clipPath18"
       clipPathUnits="userSpaceOnUse"><path
         id="path16"
         d="M 0,800 H 800 V 0 H 0 Z" /></clipPath></defs><sodipodi:namedview
     inkscape:current-layer="g10"
     inkscape:window-maximized="1"
     inkscape:window-y="101"
     inkscape:window-x="1192"
     inkscape:cy="533.33337"
     inkscape:cx="533.33337"
     inkscape:zoom="0.68906245"
     showgrid="false"
     id="namedview4"
     inkscape:window-height="1017"
     inkscape:window-width="1920"
     inkscape:pageshadow="2"
     inkscape:pageopacity="0"
     guidetolerance="10"
     gridtolerance="10"
     objecttolerance="10"
     borderopacity="1"
     bordercolor="#666666"
     pagecolor="#ffffff" /><g
     transform="matrix(1.3333333,0,0,-1.3333333,0,1066.6667)"
     inkscape:label="43303"
     inkscape:groupmode="layer"
     id="g10"><g
       id="g12"><g
         clip-path="url(#clipPath18)"
         id="g14"><g
           transform="translate(594.9658,467.9829)"
           id="g20"><path
             id="path22"
             style="fill:#231916;fill-opacity:1;fill-rule:nonzero;stroke:none"
             d="m 0,0 -35.401,75.529 c -2.631,5.651 -7.272,10.446 -13.43,13.144 0,0 -55.78,20.306 -90.385,34.672 -39.353,16.337 -98.74,12.936 -120.033,-12.873 -6.456,-7.826 -11.279,-17.551 -17.094,-27.347 l -34.199,-65.997 -67.778,-34.696 c -11.317,-5.778 -16.957,-19.147 -12.709,-31.511 4.654,-13.546 19.407,-20.754 32.953,-16.099 l 83.864,28.816 c 5.753,1.984 10.886,5.978 14.181,11.654 l 22.097,38.065 24.361,-78.636 -103.165,-283.866 c -5.662,-15.732 1.456,-33.605 16.903,-40.822 16.373,-7.65 35.847,-0.578 43.496,15.795 l 91.806,196.493 c 0.24,-0.619 65.123,-190.792 65.123,-190.792 4.614,-16.938 21.722,-27.643 39.128,-23.991 18.065,3.791 29.637,21.507 25.847,39.574 l -46.612,226.25 -37.059,170.681 34.665,-15.186 36.495,-55.098 c 7.232,-10.943 21.571,-15.259 33.832,-9.572 C 0.396,-29.544 6.269,-13.511 0,0" /></g><g
           transform="translate(345.3032,614.0947)"
           id="g24"><path
             id="path26"
             style="fill:#231916;fill-opacity:1;fill-rule:nonzero;stroke:none"
             d="M 0,0 C 30.263,-7.114 60.563,11.653 67.676,41.916 74.791,72.179 56.024,102.479 25.76,109.593 -4.503,116.706 -34.803,97.94 -41.916,67.676 -49.03,37.413 -30.263,7.113 0,0" /></g></g></g></g></svg>
