<?xml version="1.0" encoding="UTF-8" standalone="no"?>
<!-- Created with Inkscape (http://www.inkscape.org/) -->

<svg
   xmlns:ns1="http://www.iki.fi/pav/software/textext/"
   xmlns:dc="http://purl.org/dc/elements/1.1/"
   xmlns:cc="http://creativecommons.org/ns#"
   xmlns:rdf="http://www.w3.org/1999/02/22-rdf-syntax-ns#"
   xmlns:svg="http://www.w3.org/2000/svg"
   xmlns="http://www.w3.org/2000/svg"
   xmlns:sodipodi="http://sodipodi.sourceforge.net/DTD/sodipodi-0.dtd"
   xmlns:inkscape="http://www.inkscape.org/namespaces/inkscape"
   width="297mm"
   height="160mm"
   viewBox="0 0 297 160"
   version="1.1"
   id="SVGRoot"
   inkscape:version="0.92.4 (5da689c313, 2019-01-14)"
   sodipodi:docname="数式＿２.svg"
   inkscape:export-filename="D:\Dropbox\セミナー関連\技術情報協会\2019_5_レオロジー\fig\fig_2\ウェーバー比.png"
   inkscape:export-xdpi="600"
   inkscape:export-ydpi="600">
  <defs
     id="defs5274" />
  <sodipodi:namedview
     id="base"
     pagecolor="#ffffff"
     bordercolor="#666666"
     borderopacity="1.0"
     inkscape:pageopacity="1"
     inkscape:pageshadow="2"
     inkscape:zoom="0.99674932"
     inkscape:cx="393.71521"
     inkscape:cy="396.85039"
     inkscape:document-units="mm"
     inkscape:current-layer="layer1"
     showgrid="false"
     inkscape:window-width="1600"
     inkscape:window-height="1137"
     inkscape:window-x="-8"
     inkscape:window-y="-8"
     inkscape:window-maximized="1"
     inkscape:pagecheckerboard="false" />
  <metadata
     id="metadata5277">
    <rdf:RDF>
      <cc:Work
         rdf:about="">
        <dc:format>image/svg+xml</dc:format>
        <dc:type
           rdf:resource="http://purl.org/dc/dcmitype/StillImage" />
        <dc:title></dc:title>
      </cc:Work>
    </rdf:RDF>
  </metadata>
  <g
     inkscape:label="レイヤー 1"
     inkscape:groupmode="layer"
     id="layer1"
     transform="translate(0,-50)">
    <g
       id="g870"
       ns1:jacobian_sqrt="1.411111"
       inkscapeversion="0.92.4"
       ns1:alignment="middle center"
       ns1:scale="4.0"
       ns1:preamble="C:\\Users\\h_sasaki\\AppData\\Roaming\\inkscape\\extensions\\textext\\luatex.tex"
       ns1:text="$\\text{\xe3\x82\xa6\xe3\x82\xa7\xe3\x83\xbc\xe3\x83\x90\xe3\x83\xbc\xe6\xaf\x94} = \\dfrac{\\Delta R}{R} = \\dfrac{\\text{\xe5\xa2\x97\xe5\x8a\xa0\xe9\x87\x8f}}{\\text{\xe5\x88\x9d\xe6\x9c\x9f\xe5\x80\xa4}}$"
       ns1:pdfconverter="pdf2svg"
       ns1:texconverter="lualatex"
       ns1:version="0.10.1"
       transform="matrix(1.411111,0,0,1.411111,-155.4391,-65.318542)"
       inkscape:export-xdpi="600"
       inkscape:export-ydpi="600">
      <g
         id="surface1">
        <g
           id="g827"
           style="fill:#000000;fill-opacity:1">
          <path
             id="path815"
             transform="translate(148.712,139.978)"
             d="m 4.71875,-6.015625 c 0,-0.550781 -0.015625,-0.953125 -0.046875,-1.203125 -0.03125,-0.164063 -0.210937,-0.289063 -0.53125,-0.375 L 4.1875,-7.90625 C 5,-7.875 5.40625,-7.703125 5.40625,-7.390625 c 0,0.0625 -0.015625,0.15625 -0.046875,0.28125 -0.054687,0.335937 -0.085937,0.6875 -0.09375,1.0625 C 5.460938,-6.054688 5.78125,-6.070313 6.21875,-6.09375 6.476563,-6.113281 6.664063,-6.128906 6.78125,-6.140625 7.0625,-6.179688 7.257813,-6.253906 7.375,-6.359375 7.4375,-6.410156 7.492188,-6.4375 7.546875,-6.4375 c 0.09375,0 0.25,0.117187 0.46875,0.34375 0.21875,0.199219 0.328125,0.367187 0.328125,0.5 0,0.074219 -0.039062,0.132812 -0.109375,0.171875 -0.136719,0.0625 -0.246094,0.257812 -0.328125,0.578125 -0.3125,1.28125 -0.789062,2.304687 -1.421875,3.0625 C 5.796875,-0.976563 4.84375,-0.320313 3.625,0.1875 L 3.484375,-0.078125 c 1.28125,-0.675781 2.238281,-1.515625 2.875,-2.515625 0.550781,-0.882813 0.867188,-1.929688 0.953125,-3.140625 -1.242187,0.0625 -2.699219,0.15625 -4.375,0.28125 0,0.542969 0.00391,1.046875 0.015625,1.515625 0,0.148437 0,0.265625 0,0.359375 0,0.167969 -0.039062,0.308594 -0.109375,0.421875 -0.074219,0.117187 -0.15625,0.171875 -0.25,0.171875 -0.21875,0 -0.328125,-0.128906 -0.328125,-0.390625 0,-0.00781 0.00781,-0.128906 0.03125,-0.359375 0.019531,-0.425781 0.03125,-0.785156 0.03125,-1.078125 0,-0.425781 -0.023437,-0.707031 -0.0625,-0.84375 -0.074219,-0.175781 -0.25,-0.320313 -0.53125,-0.4375 L 1.84375,-6.359375 C 2.320313,-6.304688 2.660156,-6.15625 2.859375,-5.90625 3.554688,-5.9375 4.175781,-5.972656 4.71875,-6.015625 Z m 0,0"
             style="stroke:none;stroke-width:0"
             inkscape:connector-curvature="0" />
          <path
             id="path817"
             transform="translate(158.29824,139.978)"
             d="m 5.265625,-4.15625 v 2.875 c 0.039063,0 0.546875,-0.019531 1.515625,-0.0625 0.164063,-0.00781 0.300781,-0.03125 0.40625,-0.0625 0.132813,-0.050781 0.25,-0.078125 0.34375,-0.078125 0.21875,0 0.410156,0.054687 0.578125,0.15625 0.144531,0.085937 0.21875,0.179687 0.21875,0.28125 0,0.167969 -0.085937,0.25 -0.25,0.25 -0.167969,0 -0.382812,-0.007813 -0.640625,-0.03125 C 7.03125,-0.859375 6.738281,-0.875 6.5625,-0.875 c -0.992187,0 -2.140625,0.070312 -3.453125,0.203125 -0.179687,0.03125 -0.292969,0.058594 -0.34375,0.078125 -0.105469,0.042969 -0.1875,0.0625 -0.25,0.0625 -0.136719,0 -0.28125,-0.070313 -0.4375,-0.21875 -0.15625,-0.144531 -0.292969,-0.332031 -0.40625,-0.5625 L 1.84375,-1.484375 c 0.175781,0.15625 0.34375,0.257812 0.5,0.296875 0.113281,0.042969 0.28125,0.0625 0.5,0.0625 0.132813,0 0.394531,-0.00781 0.78125,-0.03125 0.457031,-0.039063 0.820313,-0.066406 1.09375,-0.078125 L 4.703125,-4.09375 4.375,-4.0625 C 3.664063,-4 3.300781,-3.96875 3.28125,-3.96875 3.082031,-3.96875 2.925781,-4.015625 2.8125,-4.109375 2.71875,-4.191406 2.597656,-4.351563 2.453125,-4.59375 l 0.203125,-0.1875 c 0.15625,0.15625 0.285156,0.25 0.390625,0.28125 0.09375,0.03125 0.238281,0.046875 0.4375,0.046875 0.332031,0 0.882813,-0.039063 1.65625,-0.125 L 5.96875,-4.65625 c 0.175781,-0.03125 0.347656,-0.078125 0.515625,-0.140625 0.15625,-0.0625 0.289063,-0.09375 0.40625,-0.09375 0.1875,0 0.347656,0.046875 0.484375,0.140625 0.113281,0.0625 0.171875,0.148437 0.171875,0.25 0,0.15625 -0.125,0.234375 -0.375,0.234375 -0.40625,0 -1.042969,0.039062 -1.90625,0.109375 z m 0,0"
             style="stroke:none;stroke-width:0"
             inkscape:connector-curvature="0" />
          <path
             id="path819"
             transform="translate(167.88448,139.978)"
             d="m 1.21875,-4.4375 c 0.3125,0.335937 0.644531,0.5 1,0.5 0.59375,0 1.179688,-0.015625 1.765625,-0.046875 0.695313,-0.03125 1.695313,-0.085938 3,-0.171875 0.382813,-0.019531 0.644531,-0.050781 0.78125,-0.09375 0.101563,-0.039063 0.195313,-0.0625 0.28125,-0.0625 0.175781,0 0.351563,0.046875 0.53125,0.140625 0.195313,0.09375 0.296875,0.214844 0.296875,0.359375 0,0.199219 -0.132812,0.296875 -0.390625,0.296875 -0.074219,0 -0.242187,-0.00781 -0.5,-0.03125 C 7.710938,-3.554688 7.410156,-3.5625 7.078125,-3.5625 6.265625,-3.5625 4.78125,-3.488281 2.625,-3.34375 2.488281,-3.332031 2.363281,-3.3125 2.25,-3.28125 2.15625,-3.257813 2.078125,-3.25 2.015625,-3.25 c -0.355469,0 -0.6875,-0.335938 -1,-1.015625 z m 0,0"
             style="stroke:none;stroke-width:0"
             inkscape:connector-curvature="0" />
          <path
             id="path821"
             transform="translate(177.47072,139.978)"
             d="m 0.625,-1.25 c 0.613281,-0.488281 1.113281,-0.957031 1.5,-1.40625 0.375,-0.445313 0.707031,-0.960938 1,-1.546875 0.226563,-0.4375 0.34375,-0.753906 0.34375,-0.953125 0,-0.15625 -0.179687,-0.296875 -0.53125,-0.421875 l 0.109375,-0.25 c 0.382813,0.03125 0.710938,0.125 0.984375,0.28125 0.195313,0.105469 0.296875,0.203125 0.296875,0.296875 0,0.085937 -0.023437,0.152344 -0.0625,0.203125 -0.0625,0.074219 -0.132812,0.199219 -0.203125,0.375 C 3.707031,-3.835938 3.242188,-3.113281 2.671875,-2.5 c -0.5,0.53125 -1.117187,1.027344 -1.84375,1.484375 z M 5.9375,-5.90625 C 6.757813,-5.375 7.457031,-4.703125 8.03125,-3.890625 8.601563,-3.085938 8.890625,-2.457031 8.890625,-2 c 0,0.355469 -0.117187,0.53125 -0.34375,0.53125 -0.1875,0 -0.320312,-0.160156 -0.390625,-0.484375 C 7.800781,-3.367188 7,-4.613281 5.75,-5.6875 Z M 7.0625,-7 c 0.425781,0.148437 0.765625,0.328125 1.015625,0.546875 0.207031,0.199219 0.3125,0.390625 0.3125,0.578125 0,0.242187 -0.101562,0.359375 -0.296875,0.359375 -0.136719,0 -0.246094,-0.101563 -0.328125,-0.3125 C 7.609375,-6.203125 7.320313,-6.53125 6.90625,-6.8125 Z m 0.921875,-0.703125 c 0.425781,0.125 0.769531,0.308594 1.03125,0.546875 0.21875,0.199219 0.328125,0.390625 0.328125,0.578125 0,0.230469 -0.101562,0.34375 -0.296875,0.34375 -0.125,0 -0.234375,-0.109375 -0.328125,-0.328125 C 8.5625,-6.882813 8.265625,-7.195313 7.828125,-7.5 Z m 0,0"
             style="stroke:none;stroke-width:0"
             inkscape:connector-curvature="0" />
          <path
             id="path823"
             transform="translate(187.05696,139.978)"
             d="m 1.21875,-4.4375 c 0.3125,0.335937 0.644531,0.5 1,0.5 0.59375,0 1.179688,-0.015625 1.765625,-0.046875 0.695313,-0.03125 1.695313,-0.085938 3,-0.171875 0.382813,-0.019531 0.644531,-0.050781 0.78125,-0.09375 0.101563,-0.039063 0.195313,-0.0625 0.28125,-0.0625 0.175781,0 0.351563,0.046875 0.53125,0.140625 0.195313,0.09375 0.296875,0.214844 0.296875,0.359375 0,0.199219 -0.132812,0.296875 -0.390625,0.296875 -0.074219,0 -0.242187,-0.00781 -0.5,-0.03125 C 7.710938,-3.554688 7.410156,-3.5625 7.078125,-3.5625 6.265625,-3.5625 4.78125,-3.488281 2.625,-3.34375 2.488281,-3.332031 2.363281,-3.3125 2.25,-3.28125 2.15625,-3.257813 2.078125,-3.25 2.015625,-3.25 c -0.355469,0 -0.6875,-0.335938 -1,-1.015625 z m 0,0"
             style="stroke:none;stroke-width:0"
             inkscape:connector-curvature="0" />
          <path
             id="path825"
             transform="translate(196.6432,139.978)"
             d="M 2.484375,-4.453125 V -0.84375 C 3.140625,-0.976563 3.957031,-1.207031 4.9375,-1.53125 L 5,-1.28125 C 3.757813,-0.75 2.484375,-0.300781 1.171875,0.0625 1.117188,0.320313 1.054688,0.453125 0.984375,0.453125 c -0.136719,0 -0.292969,-0.304687 -0.46875,-0.90625 0.132813,-0.019531 0.585938,-0.101563 1.359375,-0.25 V -7.875 c 0.71875,0.011719 1.078125,0.101562 1.078125,0.265625 0,0.09375 -0.15625,0.199219 -0.46875,0.3125 v 2.59375 h 1.34375 l 0.5,-0.6875 c 0.1875,0.199219 0.375,0.414062 0.5625,0.640625 l 0.078125,0.109375 -0.109375,0.1875 z m 3.625,0.296875 c 0.851563,-0.5625 1.597656,-1.226563 2.234375,-2 0.476563,0.324219 0.71875,0.5625 0.71875,0.71875 0,0.074219 -0.0625,0.109375 -0.1875,0.109375 -0.085937,0 -0.183594,-0.00781 -0.296875,-0.03125 -0.71875,0.574219 -1.542969,1.089844 -2.46875,1.546875 v 3.265625 c 0,0.1875 0.070313,0.296875 0.21875,0.328125 0.101563,0.03125 0.363281,0.046875 0.78125,0.046875 0.632813,0 1.019531,-0.023438 1.15625,-0.078125 C 8.441406,-0.300781 8.550781,-0.441406 8.59375,-0.671875 8.6875,-1.128906 8.75,-1.660156 8.78125,-2.265625 L 9.0625,-2.15625 c 0,0.886719 0.03125,1.417969 0.09375,1.59375 0.050781,0.148437 0.160156,0.21875 0.328125,0.21875 -0.011719,0.3125 -0.15625,0.503906 -0.4375,0.578125 -0.28125,0.0625 -0.960937,0.09375 -2.03125,0.09375 -0.761719,0 -1.210937,-0.0625 -1.34375,-0.1875 C 5.554688,0.0234375 5.5,-0.1875 5.5,-0.5 v -7.359375 c 0.71875,0.03125 1.078125,0.125 1.078125,0.28125 0,0.085937 -0.15625,0.183594 -0.46875,0.296875 z m 0,0"
             style="stroke:none;stroke-width:0"
             inkscape:connector-curvature="0" />
        </g>
        <g
           id="g831"
           style="fill:#000000;fill-opacity:1">
          <path
             id="path829"
             transform="translate(208.997,139.978)"
             d="m 6.84375,-3.265625 c 0.15625,0 0.34375,0 0.34375,-0.1875 C 7.1875,-3.65625 7,-3.65625 6.859375,-3.65625 h -5.96875 c -0.140625,0 -0.328125,0 -0.328125,0.203125 0,0.1875 0.1875,0.1875 0.328125,0.1875 z m 0.015625,1.9375 c 0.140625,0 0.328125,0 0.328125,-0.203125 0,-0.1875 -0.1875,-0.1875 -0.34375,-0.1875 H 0.890625 c -0.140625,0 -0.328125,0 -0.328125,0.1875 0,0.203125 0.1875,0.203125 0.328125,0.203125 z m 0,0"
             style="stroke:none;stroke-width:0"
             inkscape:connector-curvature="0" />
        </g>
        <g
           id="g835"
           style="fill:#000000;fill-opacity:1">
          <path
             id="path833"
             transform="translate(220.709,133.238)"
             d="m 4.40625,-6.953125 c -0.0625,-0.140625 -0.09375,-0.1875 -0.265625,-0.1875 -0.15625,0 -0.1875,0.046875 -0.25,0.1875 l -3.375,6.75 C 0.46875,-0.109375 0.46875,-0.09375 0.46875,-0.078125 0.46875,0 0.53125,0 0.6875,0 h 6.921875 c 0.15625,0 0.21875,0 0.21875,-0.078125 0,-0.015625 0,-0.03125 -0.046875,-0.125 z m -0.578125,0.8125 2.6875,5.390625 h -5.375 z m 0,0"
             style="stroke:none;stroke-width:0"
             inkscape:connector-curvature="0" />
        </g>
        <g
           id="g839"
           style="fill:#000000;fill-opacity:1">
          <path
             id="path837"
             transform="translate(229.011,133.238)"
             d="m 3.734375,-6.125 c 0.0625,-0.234375 0.09375,-0.328125 0.28125,-0.359375 C 4.109375,-6.5 4.421875,-6.5 4.625,-6.5 c 0.703125,0 1.8125,0 1.8125,0.984375 0,0.34375 -0.15625,1.03125 -0.546875,1.421875 -0.265625,0.25 -0.78125,0.578125 -1.6875,0.578125 H 3.09375 Z m 1.4375,2.734375 c 1.015625,-0.21875 2.1875,-0.921875 2.1875,-1.921875 0,-0.859375 -0.890625,-1.5 -2.203125,-1.5 H 2.328125 c -0.203125,0 -0.296875,0 -0.296875,0.203125 C 2.03125,-6.5 2.125,-6.5 2.3125,-6.5 c 0.015625,0 0.203125,0 0.375,0.015625 0.1875,0.03125 0.265625,0.03125 0.265625,0.171875 0,0.03125 0,0.0625 -0.03125,0.1875 l -1.34375,5.34375 C 1.484375,-0.390625 1.46875,-0.3125 0.671875,-0.3125 0.5,-0.3125 0.40625,-0.3125 0.40625,-0.109375 0.40625,0 0.53125,0 0.546875,0 c 0.28125,0 0.984375,-0.03125 1.25,-0.03125 0.28125,0 1,0.03125 1.28125,0.03125 0.078125,0 0.1875,0 0.1875,-0.203125 0,-0.109375 -0.078125,-0.109375 -0.28125,-0.109375 -0.359375,0 -0.640625,0 -0.640625,-0.171875 0,-0.0625 0.015625,-0.109375 0.03125,-0.171875 l 0.65625,-2.640625 h 1.1875 c 0.90625,0 1.078125,0.5625 1.078125,0.90625 0,0.140625 -0.078125,0.453125 -0.140625,0.6875 C 5.09375,-1.421875 5,-1.0625 5,-0.859375 5,0.21875 6.203125,0.21875 6.328125,0.21875 c 0.84375,0 1.203125,-1 1.203125,-1.140625 0,-0.125 -0.109375,-0.125 -0.125,-0.125 -0.09375,0 -0.109375,0.0625 -0.125,0.140625 C 7.03125,-0.171875 6.59375,0 6.375,0 6.046875,0 5.96875,-0.21875 5.96875,-0.609375 c 0,-0.3125 0.0625,-0.8125 0.109375,-1.140625 0.015625,-0.140625 0.03125,-0.328125 0.03125,-0.46875 0,-0.765625 -0.671875,-1.078125 -0.9375,-1.171875 z m 0,0"
             style="stroke:none;stroke-width:0"
             inkscape:connector-curvature="0" />
        </g>
        <path
           id="path841"
           transform="matrix(1,0,0,-1,220.709,137.487)"
           d="M 0.0019375,-0.00128125 H 15.943344"
           style="fill:none;stroke:#000000;stroke-width:0.398;stroke-linecap:butt;stroke-linejoin:miter;stroke-miterlimit:10;stroke-opacity:1"
           inkscape:connector-curvature="0" />
        <g
           id="g845"
           style="fill:#000000;fill-opacity:1">
          <path
             id="path843"
             transform="translate(224.86,146.812)"
             d="m 3.734375,-6.125 c 0.0625,-0.234375 0.09375,-0.328125 0.28125,-0.359375 C 4.109375,-6.5 4.421875,-6.5 4.625,-6.5 c 0.703125,0 1.8125,0 1.8125,0.984375 0,0.34375 -0.15625,1.03125 -0.546875,1.421875 -0.265625,0.25 -0.78125,0.578125 -1.6875,0.578125 H 3.09375 Z m 1.4375,2.734375 c 1.015625,-0.21875 2.1875,-0.921875 2.1875,-1.921875 0,-0.859375 -0.890625,-1.5 -2.203125,-1.5 H 2.328125 c -0.203125,0 -0.296875,0 -0.296875,0.203125 C 2.03125,-6.5 2.125,-6.5 2.3125,-6.5 c 0.015625,0 0.203125,0 0.375,0.015625 0.1875,0.03125 0.265625,0.03125 0.265625,0.171875 0,0.03125 0,0.0625 -0.03125,0.1875 l -1.34375,5.34375 C 1.484375,-0.390625 1.46875,-0.3125 0.671875,-0.3125 0.5,-0.3125 0.40625,-0.3125 0.40625,-0.109375 0.40625,0 0.53125,0 0.546875,0 c 0.28125,0 0.984375,-0.03125 1.25,-0.03125 0.28125,0 1,0.03125 1.28125,0.03125 0.078125,0 0.1875,0 0.1875,-0.203125 0,-0.109375 -0.078125,-0.109375 -0.28125,-0.109375 -0.359375,0 -0.640625,0 -0.640625,-0.171875 0,-0.0625 0.015625,-0.109375 0.03125,-0.171875 l 0.65625,-2.640625 h 1.1875 c 0.90625,0 1.078125,0.5625 1.078125,0.90625 0,0.140625 -0.078125,0.453125 -0.140625,0.6875 C 5.09375,-1.421875 5,-1.0625 5,-0.859375 5,0.21875 6.203125,0.21875 6.328125,0.21875 c 0.84375,0 1.203125,-1 1.203125,-1.140625 0,-0.125 -0.109375,-0.125 -0.125,-0.125 -0.09375,0 -0.109375,0.0625 -0.125,0.140625 C 7.03125,-0.171875 6.59375,0 6.375,0 6.046875,0 5.96875,-0.21875 5.96875,-0.609375 c 0,-0.3125 0.0625,-0.8125 0.109375,-1.140625 0.015625,-0.140625 0.03125,-0.328125 0.03125,-0.46875 0,-0.765625 -0.671875,-1.078125 -0.9375,-1.171875 z m 0,0"
             style="stroke:none;stroke-width:0"
             inkscape:connector-curvature="0" />
        </g>
        <g
           id="g849"
           style="fill:#000000;fill-opacity:1">
          <path
             id="path847"
             transform="translate(240.615,139.978)"
             d="m 6.84375,-3.265625 c 0.15625,0 0.34375,0 0.34375,-0.1875 C 7.1875,-3.65625 7,-3.65625 6.859375,-3.65625 h -5.96875 c -0.140625,0 -0.328125,0 -0.328125,0.203125 0,0.1875 0.1875,0.1875 0.328125,0.1875 z m 0.015625,1.9375 c 0.140625,0 0.328125,0 0.328125,-0.203125 0,-0.1875 -0.1875,-0.1875 -0.34375,-0.1875 H 0.890625 c -0.140625,0 -0.328125,0 -0.328125,0.1875 0,0.203125 0.1875,0.203125 0.328125,0.203125 z m 0,0"
             style="stroke:none;stroke-width:0"
             inkscape:connector-curvature="0" />
        </g>
        <g
           id="g857"
           style="fill:#000000;fill-opacity:1">
          <path
             id="path851"
             transform="translate(252.327,133.238)"
             d="m 4.484375,-6.453125 h 2.4375 c 0.25,-0.476563 0.492188,-1.109375 0.734375,-1.890625 0.601563,0.21875 0.90625,0.390625 0.90625,0.515625 0,0.085937 -0.136719,0.140625 -0.40625,0.171875 -0.273437,0.4375 -0.5625,0.839844 -0.875,1.203125 h 1.1875 l 0.375,-0.5 c 0.414063,0.34375 0.625,0.558594 0.625,0.640625 0,0.042969 -0.03125,0.078125 -0.09375,0.109375 l -0.25,0.15625 v 2.84375 H 8.5625 V -3.5 H 4.375 v 0.328125 H 3.8125 v -3.59375 c 0.226563,0.085937 0.453125,0.1875 0.671875,0.3125 z M 4.375,-6.21875 v 1.0625 h 1.765625 v -1.0625 z M 8.5625,-3.75 V -4.90625 H 6.6875 V -3.75 Z m 0,-1.40625 v -1.0625 h -1.875 v 1.0625 z m -2.421875,0.25 H 4.375 V -3.75 H 6.140625 Z M 5.0625,-2.671875 h 2.796875 l 0.359375,-0.4375 c 0.414063,0.3125 0.625,0.511719 0.625,0.59375 0,0.042969 -0.027344,0.078125 -0.078125,0.109375 l -0.28125,0.171875 V 0.71875 H 7.9375 V 0.203125 H 4.96875 V 0.71875 h -0.5625 v -3.6875 c 0.1875,0.074219 0.40625,0.171875 0.65625,0.296875 z m -0.09375,0.25 V -1.40625 H 7.9375 v -1.015625 z m 2.96875,2.375 V -1.15625 H 4.96875 v 1.109375 z m -5.578125,-5.28125 v 3.40625 l 0.125,-0.046875 c 0.28125,-0.082031 0.691406,-0.234375 1.234375,-0.453125 l 0.0625,0.265625 C 2.757813,-1.625 1.867188,-1.203125 1.109375,-0.890625 1.078125,-0.648438 1.019531,-0.53125 0.9375,-0.53125 c -0.125,0 -0.289062,-0.289063 -0.484375,-0.875 C 0.960938,-1.507813 1.410156,-1.625 1.796875,-1.75 V -5.328125 H 0.625 l -0.078125,-0.25 h 1.25 V -8.15625 c 0.664063,0.011719 1,0.09375 1,0.25 0,0.085937 -0.148437,0.179687 -0.4375,0.28125 v 2.046875 h 0.34375 l 0.453125,-0.65625 c 0.164063,0.167969 0.359375,0.40625 0.578125,0.71875 L 3.625,-5.328125 Z M 4.59375,-8.25 c 0.882813,0.40625 1.328125,0.851562 1.328125,1.328125 0,0.261719 -0.132812,0.390625 -0.390625,0.390625 -0.15625,0 -0.261719,-0.125 -0.3125,-0.375 C 5.125,-7.320313 4.878906,-7.710938 4.484375,-8.078125 Z m 0,0"
             style="stroke:none;stroke-width:0"
             inkscape:connector-curvature="0" />
          <path
             id="path853"
             transform="translate(261.91324,133.238)"
             d="m 6.625,-6.671875 h 1.703125 l 0.390625,-0.5 c 0.414063,0.34375 0.625,0.5625 0.625,0.65625 0,0.03125 -0.023437,0.0625 -0.0625,0.09375 l -0.265625,0.1875 v 6.4375 H 8.4375 V -0.65625 H 6.515625 v 1 H 5.921875 V -7 c 0.226563,0.085937 0.460938,0.195312 0.703125,0.328125 z m -0.109375,0.25 V -0.90625 H 8.4375 v -5.515625 z m -4.21875,0.625 H 0.6875 l -0.078125,-0.25 h 1.6875 V -8.25 c 0.675781,0.023437 1.015625,0.109375 1.015625,0.265625 0,0.09375 -0.140625,0.1875 -0.421875,0.28125 V -6.09375 H 4.1875 l 0.390625,-0.515625 c 0.40625,0.355469 0.609375,0.574219 0.609375,0.65625 0,0.042969 -0.027344,0.085937 -0.078125,0.125 L 4.84375,-5.671875 V -5.15625 C 4.832031,-2.550781 4.71875,-0.945313 4.5,-0.34375 4.300781,0.175781 3.90625,0.429688 3.3125,0.421875 3.300781,0.242188 3.226563,0.113281 3.09375,0.03125 2.945313,-0.0507813 2.65625,-0.140625 2.21875,-0.234375 V -0.5 c 0.5,0.085937 0.898438,0.125 1.203125,0.125 0.320313,0 0.519531,-0.15625 0.59375,-0.46875 0.164063,-0.8125 0.253906,-2.285156 0.265625,-4.421875 V -5.84375 H 2.890625 c 0.00781,2.929687 -0.75,5.070312 -2.28125,6.421875 L 0.421875,0.40625 c 0.875,-1.070313 1.441406,-2.367188 1.703125,-3.890625 0.09375,-0.601563 0.148438,-1.375 0.171875,-2.3125 z m 0,0"
             style="stroke:none;stroke-width:0"
             inkscape:connector-curvature="0" />
          <path
             id="path855"
             transform="translate(271.49948,133.238)"
             d="M 2.828125,-7.75 H 7.125 l 0.34375,-0.421875 c 0.382813,0.292969 0.578125,0.480469 0.578125,0.5625 0,0.042969 -0.027344,0.085937 -0.078125,0.125 l -0.234375,0.15625 v 2.03125 H 7.1875 v -0.25 H 2.734375 V -5.25 h -0.5625 v -2.828125 c 0.125,0.054687 0.34375,0.164062 0.65625,0.328125 z m -0.09375,0.25 v 0.671875 H 7.1875 V -7.5 Z M 7.1875,-5.796875 v -0.78125 H 2.734375 v 0.78125 z M 7.40625,-1.84375 H 5.203125 v 0.828125 h 2.40625 l 0.46875,-0.5 c 0.207031,0.15625 0.414063,0.351562 0.625,0.578125 L 8.59375,-0.765625 H 5.203125 V 0.09375 H 8.34375 L 8.828125,-0.5 c 0.25,0.210937 0.46875,0.421875 0.65625,0.640625 L 9.375,0.34375 h -8.75 l -0.109375,-0.25 h 4.125 V -0.765625 H 1.375 l -0.109375,-0.25 h 3.375 V -1.84375 h -2.125 v 0.375 H 1.96875 V -4.359375 C 2.1875,-4.273438 2.40625,-4.175781 2.625,-4.0625 h 4.703125 l 0.34375,-0.359375 c 0.40625,0.273437 0.609375,0.460937 0.609375,0.5625 0,0.042969 -0.03125,0.078125 -0.09375,0.109375 l -0.234375,0.140625 v 2.0625 H 7.40625 Z M 4.640625,-3.8125 h -2.125 v 0.6875 h 2.125 z m 0.5625,0 V -3.125 H 7.40625 V -3.8125 Z M 7.40625,-2.875 H 5.203125 v 0.78125 H 7.40625 Z m -4.890625,0 v 0.78125 h 2.125 V -2.875 Z m 5.71875,-2.03125 0.46875,-0.59375 0.25,0.21875 c 0.070313,0.074219 0.203125,0.21875 0.390625,0.4375 l -0.109375,0.1875 H 0.71875 l -0.078125,-0.25 z m 0,0"
             style="stroke:none;stroke-width:0"
             inkscape:connector-curvature="0" />
        </g>
        <path
           id="path859"
           transform="matrix(1,0,0,-1,252.327,137.487)"
           d="M 0.001125,-0.00128125 H 28.758937"
           style="fill:none;stroke:#000000;stroke-width:0.398;stroke-linecap:butt;stroke-linejoin:miter;stroke-miterlimit:10;stroke-opacity:1"
           inkscape:connector-curvature="0" />
        <g
           id="g867"
           style="fill:#000000;fill-opacity:1">
          <path
             id="path861"
             transform="translate(252.327,147.318)"
             d="m 6.46875,-7.015625 v 0.671875 c 0,1.824219 -0.234375,3.296875 -0.703125,4.421875 -0.449219,1.085937 -1.171875,1.9570313 -2.171875,2.625 l -0.1875,-0.1875 c 1.0625,-0.925781 1.765625,-2.125 2.109375,-3.59375 0.21875,-0.9375 0.328125,-2.03125 0.328125,-3.28125 v -0.65625 H 4.265625 l -0.109375,-0.25 H 8.265625 L 8.65625,-7.78125 c 0.425781,0.355469 0.640625,0.574219 0.640625,0.65625 0,0.042969 -0.03125,0.078125 -0.09375,0.109375 l -0.265625,0.1875 c -0.011719,3.960937 -0.171875,6.230469 -0.484375,6.8125 -0.230469,0.457031 -0.648437,0.679688 -1.25,0.671875 0,-0.199219 -0.085937,-0.339844 -0.25,-0.421875 -0.15625,-0.074219 -0.542969,-0.1679687 -1.15625,-0.28125 v -0.28125 c 0.601563,0.085937 1.097656,0.125 1.484375,0.125 0.4375,0 0.691406,-0.207031 0.765625,-0.625 0.1875,-0.914063 0.285156,-2.710938 0.296875,-5.390625 V -7.015625 Z M 2.625,-4.03125 V -4 c 0.34375,0.15625 0.597656,0.28125 0.765625,0.375 0.257813,-0.40625 0.472656,-0.828125 0.640625,-1.265625 0.488281,0.230469 0.734375,0.402344 0.734375,0.515625 0,0.085937 -0.132812,0.125 -0.390625,0.125 -0.261719,0.3125 -0.515625,0.574219 -0.765625,0.78125 0.550781,0.386719 0.828125,0.71875 0.828125,1 0,0.230469 -0.105469,0.34375 -0.3125,0.34375 -0.117187,0 -0.234375,-0.101563 -0.359375,-0.3125 C 3.523438,-2.882813 3.144531,-3.304688 2.625,-3.703125 V 0.71875 H 2.03125 V -3.359375 C 1.582031,-2.890625 1.09375,-2.4375 0.5625,-2 L 0.390625,-2.21875 C 1.492188,-3.207031 2.476563,-4.507813 3.34375,-6.125 H 0.625 L 0.53125,-6.375 H 2 v -1.890625 c 0.65625,0.023437 0.984375,0.105469 0.984375,0.25 0,0.074219 -0.136719,0.164062 -0.40625,0.265625 v 1.375 H 3.3125 l 0.375,-0.5 c 0.40625,0.355469 0.609375,0.574219 0.609375,0.65625 0,0.054687 -0.03125,0.09375 -0.09375,0.125 L 3.9375,-5.953125 C 3.46875,-5.171875 3.03125,-4.53125 2.625,-4.03125 Z m 0,0"
             style="stroke:none;stroke-width:0"
             inkscape:connector-curvature="0" />
          <path
             id="path863"
             transform="translate(261.91324,147.318)"
             d="m 6.625,-7.640625 h 1.640625 l 0.40625,-0.46875 C 9.054688,-7.785156 9.25,-7.570313 9.25,-7.46875 c 0,0.042969 -0.015625,0.074219 -0.046875,0.09375 l -0.25,0.15625 v 6.90625 c 0,0.601563 -0.339844,0.90625 -1.015625,0.90625 0,-0.1875 -0.101562,-0.328125 -0.296875,-0.421875 C 7.484375,0.0976563 7.171875,0.0195313 6.703125,-0.0625 v -0.265625 c 0.445313,0.0625 0.890625,0.09375 1.328125,0.09375 0.226563,0 0.34375,-0.097656 0.34375,-0.296875 V -2.859375 H 6.46875 c -0.1875,1.59375 -0.828125,2.78125 -1.921875,3.5625 L 4.359375,0.5 C 5.429688,-0.488281 5.96875,-2.050781 5.96875,-4.1875 v -3.75 c 0.226563,0.085937 0.445313,0.183594 0.65625,0.296875 z m -0.09375,0.25 v 1.96875 H 8.375 v -1.96875 z M 6.484375,-3.09375 H 8.375 V -5.171875 H 6.53125 v 0.96875 c 0,0.398437 -0.011719,0.742187 -0.03125,1.03125 z M 4.34375,-6.265625 v 4.03125 H 4.515625 L 4.953125,-2.875 c 0.21875,0.273437 0.394531,0.511719 0.53125,0.71875 L 5.375,-1.984375 H 0.515625 l -0.078125,-0.25 h 1.21875 v -4.03125 h -1.0625 l -0.078125,-0.25 H 1.65625 V -8.25 c 0.644531,0.023437 0.96875,0.101562 0.96875,0.234375 0,0.085937 -0.136719,0.167969 -0.40625,0.25 v 1.25 H 3.796875 V -8.25 c 0.644531,0.023437 0.96875,0.101562 0.96875,0.234375 0,0.085937 -0.140625,0.167969 -0.421875,0.25 v 1.25 h 0.203125 l 0.40625,-0.625 c 0.207031,0.242187 0.378906,0.464844 0.515625,0.671875 l -0.109375,0.203125 z m -2.125,1.03125 h 1.578125 v -1.03125 H 2.21875 Z m 1.578125,0.25 H 2.21875 V -3.8125 h 1.578125 z m 0,1.421875 H 2.21875 v 1.328125 h 1.578125 z m -0.4375,1.765625 c 1.050781,0.40625 1.578125,0.835937 1.578125,1.28125 0,0.230469 -0.117187,0.34375 -0.34375,0.34375 -0.136719,0 -0.246094,-0.101563 -0.328125,-0.3125 C 4.117188,-0.835938 3.78125,-1.210938 3.25,-1.609375 Z M 0.4375,0.5 c 0.625,-0.5625 1.132813,-1.296875 1.53125,-2.203125 0.539063,0.25 0.8125,0.4375 0.8125,0.5625 0,0.085937 -0.089844,0.125 -0.265625,0.125 -0.0625,0 -0.121094,-0.00391 -0.171875,-0.015625 -0.386719,0.667969 -0.964844,1.242188 -1.734375,1.734375 z m 0,0"
             style="stroke:none;stroke-width:0"
             inkscape:connector-curvature="0" />
          <path
             id="path865"
             transform="translate(271.49948,147.318)"
             d="M 5.5625,-5.6875 H 6 C 6.007813,-5.707031 6.015625,-5.738281 6.015625,-5.78125 6.046875,-5.945313 6.082031,-6.253906 6.125,-6.703125 H 3.5625 l -0.09375,-0.25 H 6.140625 L 6.15625,-7.109375 C 6.1875,-7.535156 6.210938,-7.914063 6.234375,-8.25 c 0.65625,0 0.984375,0.078125 0.984375,0.234375 0,0.074219 -0.140625,0.15625 -0.421875,0.25 -0.011719,0.117187 -0.03125,0.386719 -0.0625,0.8125 H 8.21875 l 0.5,-0.640625 c 0.269531,0.261719 0.492188,0.496094 0.671875,0.703125 l -0.109375,0.1875 H 6.703125 L 6.6875,-6.53125 C 6.664063,-6.269531 6.640625,-5.988281 6.609375,-5.6875 h 1.125 l 0.375,-0.46875 c 0.40625,0.304687 0.609375,0.511719 0.609375,0.625 0,0.03125 -0.023437,0.0625 -0.0625,0.09375 l -0.265625,0.171875 v 4.4375 h -0.5625 V -1.375 H 5.46875 v 0.671875 H 4.90625 V -6.03125 c 0.125,0.0625 0.34375,0.179687 0.65625,0.34375 z m 2.265625,1.515625 H 5.46875 V -3.0625 h 2.359375 z m 0,-0.25 V -5.4375 H 5.46875 v 1.015625 z m 0,2.796875 V -2.8125 H 5.46875 V -1.625 Z M 3.9375,0.109375 V 0.71875 H 3.375 v -5.734375 c 0.625,0.011719 0.9375,0.09375 0.9375,0.25 0,0.085937 -0.125,0.167969 -0.375,0.25 v 4.375 h 4.421875 l 0.5,-0.609375 c 0.226563,0.179687 0.460938,0.402344 0.703125,0.671875 l -0.125,0.1875 z M 2.140625,-5.5 c 0.382813,0.0625 0.578125,0.152344 0.578125,0.265625 0,0.085937 -0.136719,0.167969 -0.40625,0.25 V 0.71875 H 1.734375 v -5.375 C 1.410156,-3.96875 1.019531,-3.3125 0.5625,-2.6875 L 0.34375,-2.859375 C 1.269531,-4.410156 1.957031,-6.207031 2.40625,-8.25 c 0.613281,0.136719 0.921875,0.28125 0.921875,0.4375 0,0.09375 -0.152344,0.167969 -0.453125,0.21875 -0.1875,0.648437 -0.40625,1.273437 -0.65625,1.875 z m 0,0"
             style="stroke:none;stroke-width:0"
             inkscape:connector-curvature="0" />
        </g>
      </g>
    </g>
    <g
       id="g961"
       ns1:jacobian_sqrt="1.411111"
       inkscapeversion="0.92.4"
       ns1:alignment="middle center"
       ns1:scale="4.0"
       ns1:preamble="C:\\Users\\h_sasaki\\AppData\\Roaming\\inkscape\\extensions\\textext\\luatex.tex"
       ns1:text="$E=C \\log R$"
       ns1:pdfconverter="pdf2svg"
       ns1:texconverter="lualatex"
       ns1:version="0.10.1"
       transform="matrix(1.411111, 0.0, 0.0, 1.411111, -98.843240, -106.651621)"
       inkscape:export-xdpi="600"
       inkscape:export-ydpi="600">
      <g
         id="g959">
        <g
           id="g937"
           style="fill:rgb(0%,0%,0%);fill-opacity:1;">
          <path
             id="path935"
             transform="translate(148.712,134.765)"
             d="M 7.0625 -2.328125 C 7.078125 -2.375 7.109375 -2.4375 7.109375 -2.46875 C 7.109375 -2.46875 7.109375 -2.578125 6.984375 -2.578125 C 6.890625 -2.578125 6.875 -2.515625 6.859375 -2.453125 C 6.203125 -0.984375 5.84375 -0.3125 4.140625 -0.3125 L 2.6875 -0.3125 C 2.546875 -0.3125 2.515625 -0.3125 2.46875 -0.3125 C 2.359375 -0.328125 2.328125 -0.34375 2.328125 -0.421875 C 2.328125 -0.453125 2.328125 -0.46875 2.375 -0.640625 L 3.0625 -3.375 L 4.046875 -3.375 C 4.890625 -3.375 4.890625 -3.15625 4.890625 -2.90625 C 4.890625 -2.84375 4.890625 -2.71875 4.828125 -2.421875 C 4.8125 -2.375 4.796875 -2.34375 4.796875 -2.3125 C 4.796875 -2.265625 4.828125 -2.203125 4.921875 -2.203125 C 5 -2.203125 5.03125 -2.25 5.078125 -2.40625 L 5.640625 -4.734375 C 5.640625 -4.796875 5.59375 -4.84375 5.515625 -4.84375 C 5.4375 -4.84375 5.40625 -4.78125 5.390625 -4.671875 C 5.171875 -3.90625 5 -3.671875 4.078125 -3.671875 L 3.140625 -3.671875 L 3.734375 -6.078125 C 3.828125 -6.4375 3.84375 -6.46875 4.28125 -6.46875 L 5.6875 -6.46875 C 6.890625 -6.46875 7.203125 -6.1875 7.203125 -5.359375 C 7.203125 -5.125 7.203125 -5.109375 7.15625 -4.828125 C 7.15625 -4.78125 7.140625 -4.703125 7.140625 -4.65625 C 7.140625 -4.609375 7.171875 -4.53125 7.265625 -4.53125 C 7.375 -4.53125 7.390625 -4.59375 7.40625 -4.78125 L 7.609375 -6.515625 C 7.640625 -6.78125 7.59375 -6.78125 7.34375 -6.78125 L 2.296875 -6.78125 C 2.109375 -6.78125 2 -6.78125 2 -6.578125 C 2 -6.46875 2.09375 -6.46875 2.28125 -6.46875 C 2.65625 -6.46875 2.9375 -6.46875 2.9375 -6.296875 C 2.9375 -6.25 2.9375 -6.234375 2.875 -6.046875 L 1.5625 -0.78125 C 1.46875 -0.390625 1.453125 -0.3125 0.65625 -0.3125 C 0.484375 -0.3125 0.375 -0.3125 0.375 -0.125 C 0.375 0 0.46875 0 0.65625 0 L 5.828125 0 C 6.0625 0 6.078125 -0.015625 6.140625 -0.171875 Z M 7.0625 -2.328125 "
             style="stroke:none;stroke-width:0" />
        </g>
        <g
           id="g941"
           style="fill:rgb(0%,0%,0%);fill-opacity:1;">
          <path
             id="path939"
             transform="translate(159.408,134.765)"
             d="M 6.84375 -3.265625 C 7 -3.265625 7.1875 -3.265625 7.1875 -3.453125 C 7.1875 -3.65625 7 -3.65625 6.859375 -3.65625 L 0.890625 -3.65625 C 0.75 -3.65625 0.5625 -3.65625 0.5625 -3.453125 C 0.5625 -3.265625 0.75 -3.265625 0.890625 -3.265625 Z M 6.859375 -1.328125 C 7 -1.328125 7.1875 -1.328125 7.1875 -1.53125 C 7.1875 -1.71875 7 -1.71875 6.84375 -1.71875 L 0.890625 -1.71875 C 0.75 -1.71875 0.5625 -1.71875 0.5625 -1.53125 C 0.5625 -1.328125 0.75 -1.328125 0.890625 -1.328125 Z M 6.859375 -1.328125 "
             style="stroke:none;stroke-width:0" />
        </g>
        <g
           id="g945"
           style="fill:rgb(0%,0%,0%);fill-opacity:1;">
          <path
             id="path943"
             transform="translate(169.924,134.765)"
             d="M 7.578125 -6.921875 C 7.578125 -6.953125 7.5625 -7.03125 7.46875 -7.03125 C 7.4375 -7.03125 7.421875 -7.015625 7.3125 -6.90625 L 6.625 -6.140625 C 6.53125 -6.28125 6.078125 -7.03125 4.96875 -7.03125 C 2.734375 -7.03125 0.5 -4.828125 0.5 -2.515625 C 0.5 -0.875 1.671875 0.21875 3.203125 0.21875 C 4.0625 0.21875 4.828125 -0.171875 5.359375 -0.640625 C 6.28125 -1.453125 6.453125 -2.359375 6.453125 -2.390625 C 6.453125 -2.5 6.34375 -2.5 6.328125 -2.5 C 6.265625 -2.5 6.21875 -2.46875 6.203125 -2.390625 C 6.109375 -2.109375 5.875 -1.390625 5.1875 -0.8125 C 4.5 -0.265625 3.875 -0.09375 3.359375 -0.09375 C 2.46875 -0.09375 1.40625 -0.609375 1.40625 -2.15625 C 1.40625 -2.734375 1.609375 -4.34375 2.609375 -5.515625 C 3.21875 -6.21875 4.15625 -6.71875 5.046875 -6.71875 C 6.0625 -6.71875 6.65625 -5.953125 6.65625 -4.796875 C 6.65625 -4.390625 6.625 -4.390625 6.625 -4.28125 C 6.625 -4.1875 6.734375 -4.1875 6.765625 -4.1875 C 6.890625 -4.1875 6.890625 -4.203125 6.953125 -4.390625 Z M 7.578125 -6.921875 "
             style="stroke:none;stroke-width:0" />
        </g>
        <g
           id="g953"
           style="fill:rgb(0%,0%,0%);fill-opacity:1;">
          <path
             id="path947"
             transform="translate(179.418,134.765)"
             d="M 1.765625 -6.921875 L 0.328125 -6.8125 L 0.328125 -6.5 C 1.03125 -6.5 1.109375 -6.4375 1.109375 -5.9375 L 1.109375 -0.75 C 1.109375 -0.3125 1 -0.3125 0.328125 -0.3125 L 0.328125 0 C 0.65625 -0.015625 1.1875 -0.03125 1.4375 -0.03125 C 1.6875 -0.03125 2.171875 -0.015625 2.546875 0 L 2.546875 -0.3125 C 1.875 -0.3125 1.765625 -0.3125 1.765625 -0.75 Z M 1.765625 -6.921875 "
             style="stroke:none;stroke-width:0" />
          <path
             id="path949"
             transform="translate(182.185621,134.765)"
             d="M 4.6875 -2.140625 C 4.6875 -3.40625 3.703125 -4.46875 2.5 -4.46875 C 1.25 -4.46875 0.28125 -3.375 0.28125 -2.140625 C 0.28125 -0.84375 1.3125 0.109375 2.484375 0.109375 C 3.6875 0.109375 4.6875 -0.875 4.6875 -2.140625 Z M 2.5 -0.140625 C 2.0625 -0.140625 1.625 -0.34375 1.359375 -0.8125 C 1.109375 -1.25 1.109375 -1.859375 1.109375 -2.21875 C 1.109375 -2.609375 1.109375 -3.140625 1.34375 -3.578125 C 1.609375 -4.03125 2.078125 -4.25 2.484375 -4.25 C 2.921875 -4.25 3.34375 -4.03125 3.609375 -3.59375 C 3.875 -3.171875 3.875 -2.59375 3.875 -2.21875 C 3.875 -1.859375 3.875 -1.3125 3.65625 -0.875 C 3.421875 -0.421875 2.984375 -0.140625 2.5 -0.140625 Z M 2.5 -0.140625 "
             style="stroke:none;stroke-width:0" />
          <path
             id="path951"
             transform="translate(187.166941,134.765)"
             d="M 2.21875 -1.71875 C 1.34375 -1.71875 1.34375 -2.71875 1.34375 -2.9375 C 1.34375 -3.203125 1.359375 -3.53125 1.5 -3.78125 C 1.578125 -3.890625 1.8125 -4.171875 2.21875 -4.171875 C 3.078125 -4.171875 3.078125 -3.1875 3.078125 -2.953125 C 3.078125 -2.6875 3.078125 -2.359375 2.921875 -2.109375 C 2.84375 -2 2.609375 -1.71875 2.21875 -1.71875 Z M 1.0625 -1.328125 C 1.0625 -1.359375 1.0625 -1.59375 1.21875 -1.796875 C 1.609375 -1.515625 2.03125 -1.484375 2.21875 -1.484375 C 3.140625 -1.484375 3.828125 -2.171875 3.828125 -2.9375 C 3.828125 -3.3125 3.671875 -3.671875 3.421875 -3.90625 C 3.78125 -4.25 4.140625 -4.296875 4.3125 -4.296875 C 4.34375 -4.296875 4.390625 -4.296875 4.421875 -4.28125 C 4.3125 -4.25 4.25 -4.140625 4.25 -4.015625 C 4.25 -3.84375 4.390625 -3.734375 4.546875 -3.734375 C 4.640625 -3.734375 4.828125 -3.796875 4.828125 -4.03125 C 4.828125 -4.203125 4.71875 -4.515625 4.328125 -4.515625 C 4.125 -4.515625 3.6875 -4.453125 3.265625 -4.046875 C 2.84375 -4.375 2.4375 -4.40625 2.21875 -4.40625 C 1.28125 -4.40625 0.59375 -3.71875 0.59375 -2.953125 C 0.59375 -2.515625 0.8125 -2.140625 1.0625 -1.921875 C 0.9375 -1.78125 0.75 -1.453125 0.75 -1.09375 C 0.75 -0.78125 0.890625 -0.40625 1.203125 -0.203125 C 0.59375 -0.046875 0.28125 0.390625 0.28125 0.78125 C 0.28125 1.5 1.265625 2.046875 2.484375 2.046875 C 3.65625 2.046875 4.6875 1.546875 4.6875 0.765625 C 4.6875 0.421875 4.5625 -0.09375 4.046875 -0.375 C 3.515625 -0.640625 2.9375 -0.640625 2.328125 -0.640625 C 2.078125 -0.640625 1.65625 -0.640625 1.578125 -0.65625 C 1.265625 -0.703125 1.0625 -1 1.0625 -1.328125 Z M 2.5 1.828125 C 1.484375 1.828125 0.796875 1.3125 0.796875 0.78125 C 0.796875 0.328125 1.171875 -0.046875 1.609375 -0.0625 L 2.203125 -0.0625 C 3.0625 -0.0625 4.171875 -0.0625 4.171875 0.78125 C 4.171875 1.328125 3.46875 1.828125 2.5 1.828125 Z M 2.5 1.828125 "
             style="stroke:none;stroke-width:0" />
        </g>
        <g
           id="g957"
           style="fill:rgb(0%,0%,0%);fill-opacity:1;">
          <path
             id="path955"
             transform="translate(193.947,134.765)"
             d="M 3.734375 -6.125 C 3.796875 -6.359375 3.828125 -6.453125 4.015625 -6.484375 C 4.109375 -6.5 4.421875 -6.5 4.625 -6.5 C 5.328125 -6.5 6.4375 -6.5 6.4375 -5.515625 C 6.4375 -5.171875 6.28125 -4.484375 5.890625 -4.09375 C 5.625 -3.84375 5.109375 -3.515625 4.203125 -3.515625 L 3.09375 -3.515625 Z M 5.171875 -3.390625 C 6.1875 -3.609375 7.359375 -4.3125 7.359375 -5.3125 C 7.359375 -6.171875 6.46875 -6.8125 5.15625 -6.8125 L 2.328125 -6.8125 C 2.125 -6.8125 2.03125 -6.8125 2.03125 -6.609375 C 2.03125 -6.5 2.125 -6.5 2.3125 -6.5 C 2.328125 -6.5 2.515625 -6.5 2.6875 -6.484375 C 2.875 -6.453125 2.953125 -6.453125 2.953125 -6.3125 C 2.953125 -6.28125 2.953125 -6.25 2.921875 -6.125 L 1.578125 -0.78125 C 1.484375 -0.390625 1.46875 -0.3125 0.671875 -0.3125 C 0.5 -0.3125 0.40625 -0.3125 0.40625 -0.109375 C 0.40625 0 0.53125 0 0.546875 0 C 0.828125 0 1.53125 -0.03125 1.796875 -0.03125 C 2.078125 -0.03125 2.796875 0 3.078125 0 C 3.15625 0 3.265625 0 3.265625 -0.203125 C 3.265625 -0.3125 3.1875 -0.3125 2.984375 -0.3125 C 2.625 -0.3125 2.34375 -0.3125 2.34375 -0.484375 C 2.34375 -0.546875 2.359375 -0.59375 2.375 -0.65625 L 3.03125 -3.296875 L 4.21875 -3.296875 C 5.125 -3.296875 5.296875 -2.734375 5.296875 -2.390625 C 5.296875 -2.25 5.21875 -1.9375 5.15625 -1.703125 C 5.09375 -1.421875 5 -1.0625 5 -0.859375 C 5 0.21875 6.203125 0.21875 6.328125 0.21875 C 7.171875 0.21875 7.53125 -0.78125 7.53125 -0.921875 C 7.53125 -1.046875 7.421875 -1.046875 7.40625 -1.046875 C 7.3125 -1.046875 7.296875 -0.984375 7.28125 -0.90625 C 7.03125 -0.171875 6.59375 0 6.375 0 C 6.046875 0 5.96875 -0.21875 5.96875 -0.609375 C 5.96875 -0.921875 6.03125 -1.421875 6.078125 -1.75 C 6.09375 -1.890625 6.109375 -2.078125 6.109375 -2.21875 C 6.109375 -2.984375 5.4375 -3.296875 5.171875 -3.390625 Z M 5.171875 -3.390625 "
             style="stroke:none;stroke-width:0" />
        </g>
      </g>
    </g>
  </g>
</svg>
