<?xml version="1.0" encoding="UTF-8" standalone="no"?>
<!-- Created with Inkscape (http://www.inkscape.org/) -->

<svg
   xmlns:ns1="http://www.iki.fi/pav/software/textext/"
   xmlns:dc="http://purl.org/dc/elements/1.1/"
   xmlns:cc="http://creativecommons.org/ns#"
   xmlns:rdf="http://www.w3.org/1999/02/22-rdf-syntax-ns#"
   xmlns:svg="http://www.w3.org/2000/svg"
   xmlns="http://www.w3.org/2000/svg"
   xmlns:sodipodi="http://sodipodi.sourceforge.net/DTD/sodipodi-0.dtd"
   xmlns:inkscape="http://www.inkscape.org/namespaces/inkscape"
   width="297mm"
   height="210mm"
   viewBox="0 0 297 210"
   version="1.1"
   id="svg8"
   inkscape:version="0.92.4 (5da689c313, 2019-01-14)"
   sodipodi:docname="固体の摂動.svg"
   inkscape:export-filename="C:\Users\hsasa\Dropbox\セミナー関連\技術情報協会\2019_5_レオロジー\fig\fig_4_3\固体の摂動.png"
   inkscape:export-xdpi="600"
   inkscape:export-ydpi="600">
  <defs
     id="defs2">
    <marker
       inkscape:stockid="Arrow1Sstart"
       orient="auto"
       refY="0.0"
       refX="0.0"
       id="Arrow1Sstart"
       style="overflow:visible"
       inkscape:isstock="true">
      <path
         id="path1997"
         d="M 0.0,0.0 L 5.0,-5.0 L -12.5,0.0 L 5.0,5.0 L 0.0,0.0 z "
         style="fill-rule:evenodd;stroke:#000000;stroke-width:1pt;stroke-opacity:1;fill:#000000;fill-opacity:1"
         transform="scale(0.2) translate(6,0)" />
    </marker>
    <marker
       inkscape:isstock="true"
       style="overflow:visible"
       id="marker6161"
       refX="0.0"
       refY="0.0"
       orient="auto"
       inkscape:stockid="Arrow1Mstart">
      <path
         transform="scale(0.4) translate(10,0)"
         style="fill-rule:evenodd;stroke:#000000;stroke-width:1pt;stroke-opacity:1;fill:#000000;fill-opacity:1"
         d="M 0.0,0.0 L 5.0,-5.0 L -12.5,0.0 L 5.0,5.0 L 0.0,0.0 z "
         id="path6159" />
    </marker>
    <marker
       inkscape:isstock="true"
       style="overflow:visible;"
       id="marker6115"
       refX="0.0"
       refY="0.0"
       orient="auto"
       inkscape:stockid="Arrow1Mend">
      <path
         transform="scale(0.4) rotate(180) translate(10,0)"
         style="fill-rule:evenodd;stroke:#000000;stroke-width:1pt;stroke-opacity:1;fill:#000000;fill-opacity:1"
         d="M 0.0,0.0 L 5.0,-5.0 L -12.5,0.0 L 5.0,5.0 L 0.0,0.0 z "
         id="path6113" />
    </marker>
    <marker
       inkscape:stockid="Arrow1Send"
       orient="auto"
       refY="0.0"
       refX="0.0"
       id="Arrow1Send"
       style="overflow:visible;"
       inkscape:isstock="true">
      <path
         id="path2000"
         d="M 0.0,0.0 L 5.0,-5.0 L -12.5,0.0 L 5.0,5.0 L 0.0,0.0 z "
         style="fill-rule:evenodd;stroke:#000000;stroke-width:1pt;stroke-opacity:1;fill:#000000;fill-opacity:1"
         transform="scale(0.2) rotate(180) translate(6,0)" />
    </marker>
    <marker
       inkscape:stockid="Arrow1Sstart"
       orient="auto"
       refY="0"
       refX="0"
       id="Arrow1Sstart-2"
       style="overflow:visible"
       inkscape:isstock="true">
      <path
         inkscape:connector-curvature="0"
         id="path1997-1"
         d="M 0,0 5,-5 -12.5,0 5,5 Z"
         style="fill:#000000;fill-opacity:1;fill-rule:evenodd;stroke:#000000;stroke-width:1.00000003pt;stroke-opacity:1"
         transform="matrix(0.2,0,0,0.2,1.2,0)" />
    </marker>
    <marker
       inkscape:stockid="Arrow1Send"
       orient="auto"
       refY="0"
       refX="0"
       id="Arrow1Send-9"
       style="overflow:visible"
       inkscape:isstock="true">
      <path
         inkscape:connector-curvature="0"
         id="path2000-1"
         d="M 0,0 5,-5 -12.5,0 5,5 Z"
         style="fill:#000000;fill-opacity:1;fill-rule:evenodd;stroke:#000000;stroke-width:1.00000003pt;stroke-opacity:1"
         transform="matrix(-0.2,0,0,-0.2,-1.2,0)" />
    </marker>
    <marker
       inkscape:stockid="Arrow1Sstart"
       orient="auto"
       refY="0"
       refX="0"
       id="Arrow1Sstart-25"
       style="overflow:visible"
       inkscape:isstock="true">
      <path
         inkscape:connector-curvature="0"
         id="path1997-3"
         d="M 0,0 5,-5 -12.5,0 5,5 Z"
         style="fill:#000000;fill-opacity:1;fill-rule:evenodd;stroke:#000000;stroke-width:1.00000003pt;stroke-opacity:1"
         transform="matrix(0.2,0,0,0.2,1.2,0)" />
    </marker>
    <marker
       inkscape:stockid="Arrow1Send"
       orient="auto"
       refY="0"
       refX="0"
       id="Arrow1Send-6"
       style="overflow:visible"
       inkscape:isstock="true">
      <path
         inkscape:connector-curvature="0"
         id="path2000-3"
         d="M 0,0 5,-5 -12.5,0 5,5 Z"
         style="fill:#000000;fill-opacity:1;fill-rule:evenodd;stroke:#000000;stroke-width:1.00000003pt;stroke-opacity:1"
         transform="matrix(-0.2,0,0,-0.2,-1.2,0)" />
    </marker>
    <marker
       inkscape:stockid="Arrow1Sstart"
       orient="auto"
       refY="0"
       refX="0"
       id="Arrow1Sstart-0"
       style="overflow:visible"
       inkscape:isstock="true">
      <path
         inkscape:connector-curvature="0"
         id="path1997-7"
         d="M 0,0 5,-5 -12.5,0 5,5 Z"
         style="fill:#000000;fill-opacity:1;fill-rule:evenodd;stroke:#000000;stroke-width:1.00000003pt;stroke-opacity:1"
         transform="matrix(0.2,0,0,0.2,1.2,0)" />
    </marker>
    <marker
       inkscape:stockid="Arrow1Send"
       orient="auto"
       refY="0"
       refX="0"
       id="Arrow1Send-5"
       style="overflow:visible"
       inkscape:isstock="true">
      <path
         inkscape:connector-curvature="0"
         id="path2000-9"
         d="M 0,0 5,-5 -12.5,0 5,5 Z"
         style="fill:#000000;fill-opacity:1;fill-rule:evenodd;stroke:#000000;stroke-width:1.00000003pt;stroke-opacity:1"
         transform="matrix(-0.2,0,0,-0.2,-1.2,0)" />
    </marker>
  </defs>
  <sodipodi:namedview
     id="base"
     pagecolor="#ffffff"
     bordercolor="#666666"
     borderopacity="1.0"
     inkscape:pageopacity="1"
     inkscape:pageshadow="2"
     inkscape:zoom="2.49"
     inkscape:cx="836.20087"
     inkscape:cy="400.61933"
     inkscape:document-units="mm"
     inkscape:current-layer="layer1"
     showgrid="false"
     inkscape:window-width="1920"
     inkscape:window-height="1017"
     inkscape:window-x="1912"
     inkscape:window-y="-8"
     inkscape:window-maximized="1" />
  <metadata
     id="metadata5">
    <rdf:RDF>
      <cc:Work
         rdf:about="">
        <dc:format>image/svg+xml</dc:format>
        <dc:type
           rdf:resource="http://purl.org/dc/dcmitype/StillImage" />
        <dc:title />
      </cc:Work>
    </rdf:RDF>
  </metadata>
  <g
     inkscape:label="レイヤー 1"
     inkscape:groupmode="layer"
     id="layer1"
     transform="translate(0,-87)">
    <text
       xml:space="preserve"
       style="font-style:normal;font-weight:normal;font-size:10.58333302px;line-height:1.25;font-family:sans-serif;letter-spacing:0px;word-spacing:0px;fill:#000000;fill-opacity:1;stroke:none;stroke-width:0.26458332"
       x="-302.38092"
       y="129.17857"
       id="text12"><tspan
         sodipodi:role="line"
         id="tspan10"
         x="-302.38092"
         y="138.83408"
         style="stroke-width:0.26458332" /></text>
    <circle
       id="path10"
       cx="135.71271"
       cy="171.06743"
       r="5.634645"
       style="fill:#0009ff;fill-opacity:1;stroke:#000000;stroke-width:0.35277778;stroke-miterlimit:4;stroke-dasharray:none;stroke-opacity:1"
       inkscape:export-xdpi="600"
       inkscape:export-ydpi="600" />
    <circle
       id="path10-2"
       cx="135.71271"
       cy="205.01529"
       r="5.6346455"
       style="fill:#0009ff;fill-opacity:1;stroke:#000000;stroke-width:0.35277778;stroke-miterlimit:4;stroke-dasharray:none;stroke-opacity:1"
       inkscape:export-xdpi="600"
       inkscape:export-ydpi="600" />
    <circle
       id="path10-6"
       cx="135.71271"
       cy="188.04135"
       r="5.6346455"
       style="fill:#0009ff;fill-opacity:1;stroke:#000000;stroke-width:0.35277778;stroke-miterlimit:4;stroke-dasharray:none;stroke-opacity:1"
       inkscape:export-xdpi="600"
       inkscape:export-ydpi="600" />
    <circle
       id="path10-90"
       cx="154.17404"
       cy="171.06743"
       r="5.6346455"
       style="fill:#0009ff;fill-opacity:1;stroke:#000000;stroke-width:0.35277778;stroke-miterlimit:4;stroke-dasharray:none;stroke-opacity:1"
       inkscape:export-xdpi="600"
       inkscape:export-ydpi="600" />
    <circle
       id="path10-2-7"
       cx="154.17404"
       cy="205.01529"
       r="5.6346459"
       style="fill:#0009ff;fill-opacity:1;stroke:#000000;stroke-width:0.35277778;stroke-miterlimit:4;stroke-dasharray:none;stroke-opacity:1"
       inkscape:export-xdpi="600"
       inkscape:export-ydpi="600" />
    <circle
       id="path10-6-5"
       cx="154.17404"
       cy="188.04135"
       r="5.6346459"
       style="fill:#0009ff;fill-opacity:1;stroke:#000000;stroke-width:0.35277778;stroke-miterlimit:4;stroke-dasharray:none;stroke-opacity:1"
       inkscape:export-xdpi="600"
       inkscape:export-ydpi="600" />
    <circle
       id="path10-5"
       cx="172.63538"
       cy="171.06743"
       r="5.6346455"
       style="fill:#0009ff;fill-opacity:1;stroke:#000000;stroke-width:0.35277778;stroke-miterlimit:4;stroke-dasharray:none;stroke-opacity:1"
       inkscape:export-xdpi="600"
       inkscape:export-ydpi="600" />
    <circle
       id="path10-2-2"
       cx="172.63538"
       cy="205.01529"
       r="5.6346459"
       style="fill:#0009ff;fill-opacity:1;stroke:#000000;stroke-width:0.35277778;stroke-miterlimit:4;stroke-dasharray:none;stroke-opacity:1"
       inkscape:export-xdpi="600"
       inkscape:export-ydpi="600" />
    <circle
       id="path10-6-8"
       cx="172.63538"
       cy="188.04135"
       r="5.6346459"
       style="fill:#0009ff;fill-opacity:1;stroke:#000000;stroke-width:0.35277778;stroke-miterlimit:4;stroke-dasharray:none;stroke-opacity:1"
       inkscape:export-xdpi="600"
       inkscape:export-ydpi="600" />
    <path
       style="fill:none;stroke:#000000;stroke-width:0.35277778;stroke-linecap:butt;stroke-linejoin:miter;stroke-opacity:1;marker-start:url(#Arrow1Sstart);marker-end:url(#Arrow1Send);stroke-miterlimit:4;stroke-dasharray:none"
       d="m 161.28539,188.5694 c 0,0 0.57981,-0.74744 1.27273,-1.12022 0.69294,-0.37275 0.68622,1.10132 1.24662,0.66215 0.56041,-0.43916 1.22418,-1.24049 1.22418,-1.24049"
       id="path6093"
       inkscape:connector-curvature="0"
       sodipodi:nodetypes="czzc"
       inkscape:export-xdpi="600"
       inkscape:export-ydpi="600" />
    <path
       style="fill:none;stroke:#000000;stroke-width:0.35277778;stroke-linecap:butt;stroke-linejoin:miter;stroke-opacity:1;marker-start:url(#Arrow1Sstart-2);marker-end:url(#Arrow1Send-9);stroke-miterlimit:4;stroke-dasharray:none"
       d="m 153.09312,197.7007 c 0,0 0.39352,-0.86023 0.98283,-1.38159 0.58934,-0.52133 0.91989,0.91521 1.36501,0.35952 0.44512,-0.55568 0.90805,-1.48757 0.90805,-1.48757"
       id="path6093-0"
       inkscape:connector-curvature="0"
       sodipodi:nodetypes="czzc"
       inkscape:transform-center-x="-3.225301"
       inkscape:transform-center-y="3.4543679"
       inkscape:export-xdpi="600"
       inkscape:export-ydpi="600" />
    <path
       style="fill:none;stroke:#000000;stroke-width:0.35277778;stroke-linecap:butt;stroke-linejoin:miter;stroke-opacity:1;marker-start:url(#Arrow1Sstart-25);marker-end:url(#Arrow1Send-6);stroke-miterlimit:4;stroke-dasharray:none"
       d="m 143.19759,187.0817 c 0,0 0.94186,-0.088 1.68768,0.16264 0.74582,0.25073 -0.33434,1.25381 0.36931,1.3624 0.70365,0.1086 1.74224,0.045 1.74224,0.045"
       id="path6093-5"
       inkscape:connector-curvature="0"
       sodipodi:nodetypes="czzc"
       inkscape:transform-center-x="2.4058856"
       inkscape:transform-center-y="0.46356506"
       inkscape:export-xdpi="600"
       inkscape:export-ydpi="600" />
    <path
       style="fill:none;stroke:#000000;stroke-width:0.35277778;stroke-linecap:butt;stroke-linejoin:miter;stroke-opacity:1;marker-start:url(#Arrow1Sstart-0);marker-end:url(#Arrow1Send-5);stroke-miterlimit:4;stroke-dasharray:none"
       d="m 154.44805,177.23649 c 0,0 0.4759,0.81754 0.56204,1.59964 0.0861,0.78211 -1.27817,0.22382 -1.08084,0.90791 0.19732,0.68409 0.69174,1.59966 0.69174,1.59966"
       id="path6093-3"
       inkscape:connector-curvature="0"
       sodipodi:nodetypes="czzc"
       inkscape:export-xdpi="600"
       inkscape:export-ydpi="600" />
    <g
       id="g8796"
       ns1:jacobian_sqrt="0.705556"
       inkscapeversion="0.92.4"
       ns1:alignment="middle center"
       ns1:scale="2.0"
       ns1:preamble="C:\\Users\\hsasa\\AppData\\Roaming\\inkscape\\extensions\\textext\\lua_packages.tex"
       ns1:text="\xe3\x83\x9d\xe3\x83\x86\xe3\x83\xb3\xe3\x82\xb7\xe3\x83\xa3\xe3\x83\xab\xe3\x81\xae\xe5\xba\x95\xe3\x81\xae\xe8\xbf\x91\xe5\x82\x8d\xe3\x81\xa7\xe6\x91\x82\xe5\x8b\x95\n\nLJ\xe3\x83\x9d\xe3\x83\x86\xe3\x83\xb3\xe3\x82\xb7\xe3\x83\xa3\xe3\x83\xab\xe3\x81\xaa\xe3\x82\x89\xe3\x81\xb0\xe3\x80\x81\n\n$r \\simeq 1.16$"
       ns1:pdfconverter="pdf2svg"
       ns1:texconverter="lualatex"
       ns1:version="0.10.1"
       transform="matrix(0.705556,0.000000,0.000000,0.705556,81.292266,88.241044)">
      <g
         id="surface1">
        <g
           id="g8743"
           style="fill:rgb(0%,0%,0%);fill-opacity:1;">
          <path
             id="path8715"
             transform="translate(148.712,134.765)"
             d="M 8.40625 -8.078125 C 8.6875 -8.078125 8.921875 -7.96875 9.109375 -7.75 C 9.285156 -7.5625 9.375 -7.34375 9.375 -7.09375 C 9.375 -6.8125 9.265625 -6.570313 9.046875 -6.375 C 8.859375 -6.207031 8.644531 -6.125 8.40625 -6.125 C 8.113281 -6.125 7.867188 -6.226563 7.671875 -6.4375 C 7.503906 -6.625 7.421875 -6.84375 7.421875 -7.09375 C 7.421875 -7.382813 7.53125 -7.625 7.75 -7.8125 C 7.9375 -7.988281 8.15625 -8.078125 8.40625 -8.078125 Z M 8.40625 -7.75 C 8.207031 -7.75 8.046875 -7.675781 7.921875 -7.53125 C 7.804688 -7.40625 7.75 -7.257813 7.75 -7.09375 C 7.75 -6.90625 7.820313 -6.742188 7.96875 -6.609375 C 8.09375 -6.492188 8.238281 -6.4375 8.40625 -6.4375 C 8.59375 -6.4375 8.75 -6.507813 8.875 -6.65625 C 8.988281 -6.78125 9.046875 -6.925781 9.046875 -7.09375 C 9.046875 -7.289063 8.972656 -7.453125 8.828125 -7.578125 C 8.703125 -7.691406 8.5625 -7.75 8.40625 -7.75 Z M 4.796875 -5.28125 C 4.796875 -5.601563 4.785156 -5.988281 4.765625 -6.4375 C 4.753906 -6.707031 4.71875 -6.894531 4.65625 -7 C 4.5625 -7.15625 4.351563 -7.273438 4.03125 -7.359375 L 4.125 -7.625 C 4.570313 -7.625 4.914063 -7.570313 5.15625 -7.46875 C 5.34375 -7.394531 5.4375 -7.285156 5.4375 -7.140625 C 5.4375 -7.078125 5.425781 -6.984375 5.40625 -6.859375 C 5.382813 -6.742188 5.375 -6.664063 5.375 -6.625 C 5.332031 -6.28125 5.3125 -5.847656 5.3125 -5.328125 C 5.957031 -5.367188 6.515625 -5.414063 6.984375 -5.46875 C 7.160156 -5.488281 7.335938 -5.53125 7.515625 -5.59375 C 7.640625 -5.644531 7.742188 -5.671875 7.828125 -5.671875 C 8.117188 -5.671875 8.34375 -5.617188 8.5 -5.515625 C 8.625 -5.429688 8.6875 -5.328125 8.6875 -5.203125 C 8.6875 -5.046875 8.566406 -4.96875 8.328125 -4.96875 L 7.0625 -5 C 6.738281 -5 6.15625 -4.972656 5.3125 -4.921875 C 5.3125 -3.910156 5.332031 -2.820313 5.375 -1.65625 C 5.375 -1.570313 5.378906 -1.4375 5.390625 -1.25 C 5.398438 -1.125 5.40625 -1.035156 5.40625 -0.984375 C 5.40625 -0.566406 5.359375 -0.273438 5.265625 -0.109375 C 5.171875 0.046875 5.054688 0.125 4.921875 0.125 C 4.816406 0.125 4.726563 0.0195313 4.65625 -0.1875 C 4.59375 -0.382813 4.515625 -0.515625 4.421875 -0.578125 C 4.109375 -0.816406 3.703125 -1.054688 3.203125 -1.296875 L 3.28125 -1.515625 C 3.832031 -1.335938 4.335938 -1.195313 4.796875 -1.09375 C 4.804688 -1.507813 4.8125 -2.21875 4.8125 -3.21875 C 4.8125 -3.695313 4.804688 -4.253906 4.796875 -4.890625 C 4.171875 -4.828125 3.550781 -4.753906 2.9375 -4.671875 C 2.738281 -4.648438 2.585938 -4.625 2.484375 -4.59375 C 2.367188 -4.5625 2.289063 -4.546875 2.25 -4.546875 C 2.09375 -4.546875 1.925781 -4.625 1.75 -4.78125 C 1.582031 -4.925781 1.4375 -5.117188 1.3125 -5.359375 L 1.515625 -5.515625 C 1.828125 -5.242188 2.125 -5.109375 2.40625 -5.109375 C 2.632813 -5.109375 3.429688 -5.164063 4.796875 -5.28125 Z M 2.703125 -3.65625 L 3.015625 -3.59375 C 2.898438 -2.625 2.613281 -1.851563 2.15625 -1.28125 C 1.945313 -1.019531 1.75 -0.890625 1.5625 -0.890625 C 1.363281 -0.890625 1.265625 -1.039063 1.265625 -1.34375 C 1.265625 -1.53125 1.382813 -1.707031 1.625 -1.875 C 2.195313 -2.300781 2.554688 -2.894531 2.703125 -3.65625 Z M 6.953125 -3.90625 C 7.554688 -3.519531 8.039063 -3.078125 8.40625 -2.578125 C 8.664063 -2.210938 8.796875 -1.875 8.796875 -1.5625 C 8.796875 -1.226563 8.660156 -1.0625 8.390625 -1.0625 C 8.210938 -1.0625 8.09375 -1.175781 8.03125 -1.40625 C 7.820313 -2.332031 7.394531 -3.09375 6.75 -3.6875 Z M 6.953125 -3.90625 "
             style="stroke:none;stroke-width:0" />
          <path
             id="path8717"
             transform="translate(158.29824,134.765)"
             d="M 5.609375 -4.40625 C 5.554688 -3.207031 5.351563 -2.273438 5 -1.609375 C 4.5625 -0.765625 3.859375 -0.117188 2.890625 0.328125 L 2.71875 0.09375 C 3.570313 -0.445313 4.171875 -1.128906 4.515625 -1.953125 C 4.773438 -2.578125 4.910156 -3.375 4.921875 -4.34375 C 3.941406 -4.238281 3.164063 -4.144531 2.59375 -4.0625 C 2.46875 -4.039063 2.375 -4.015625 2.3125 -3.984375 C 2.207031 -3.960938 2.140625 -3.953125 2.109375 -3.953125 C 1.929688 -3.953125 1.742188 -4.050781 1.546875 -4.25 C 1.367188 -4.414063 1.21875 -4.613281 1.09375 -4.84375 L 1.3125 -5.015625 C 1.53125 -4.835938 1.695313 -4.726563 1.8125 -4.6875 C 1.9375 -4.632813 2.085938 -4.609375 2.265625 -4.609375 C 2.753906 -4.609375 3.769531 -4.675781 5.3125 -4.8125 C 6.6875 -4.925781 7.445313 -5.007813 7.59375 -5.0625 C 7.78125 -5.144531 7.945313 -5.1875 8.09375 -5.1875 C 8.351563 -5.1875 8.566406 -5.132813 8.734375 -5.03125 C 8.878906 -4.9375 8.953125 -4.816406 8.953125 -4.671875 C 8.953125 -4.523438 8.816406 -4.453125 8.546875 -4.453125 L 7.5625 -4.484375 C 7.164063 -4.484375 6.515625 -4.457031 5.609375 -4.40625 Z M 2.640625 -7.234375 C 2.941406 -6.972656 3.226563 -6.84375 3.5 -6.84375 C 4.070313 -6.84375 4.816406 -6.898438 5.734375 -7.015625 C 5.992188 -7.046875 6.210938 -7.101563 6.390625 -7.1875 C 6.503906 -7.238281 6.597656 -7.265625 6.671875 -7.265625 C 6.867188 -7.265625 7.050781 -7.222656 7.21875 -7.140625 C 7.375 -7.054688 7.453125 -6.957031 7.453125 -6.84375 C 7.453125 -6.695313 7.335938 -6.617188 7.109375 -6.609375 C 5.910156 -6.554688 4.765625 -6.472656 3.671875 -6.359375 C 3.640625 -6.359375 3.601563 -6.351563 3.5625 -6.34375 C 3.507813 -6.332031 3.476563 -6.320313 3.46875 -6.3125 C 3.382813 -6.300781 3.320313 -6.296875 3.28125 -6.296875 C 3.03125 -6.296875 2.742188 -6.554688 2.421875 -7.078125 Z M 2.640625 -7.234375 "
             style="stroke:none;stroke-width:0" />
          <path
             id="path8719"
             transform="translate(167.88448,134.765)"
             d="M 2.078125 -6.953125 C 2.859375 -6.722656 3.429688 -6.429688 3.796875 -6.078125 C 4.085938 -5.804688 4.234375 -5.546875 4.234375 -5.296875 C 4.234375 -4.960938 4.101563 -4.796875 3.84375 -4.796875 C 3.738281 -4.796875 3.609375 -4.925781 3.453125 -5.1875 C 3.078125 -5.8125 2.570313 -6.316406 1.9375 -6.703125 Z M 2.21875 -1.53125 C 2.394531 -1.257813 2.578125 -1.125 2.765625 -1.125 C 2.984375 -1.125 3.304688 -1.234375 3.734375 -1.453125 C 5.847656 -2.566406 7.53125 -4.050781 8.78125 -5.90625 L 9.015625 -5.703125 C 8.367188 -4.585938 7.644531 -3.648438 6.84375 -2.890625 C 6.082031 -2.171875 5.117188 -1.488281 3.953125 -0.84375 C 3.566406 -0.632813 3.332031 -0.5 3.25 -0.4375 C 3.132813 -0.320313 2.984375 -0.265625 2.796875 -0.265625 C 2.691406 -0.265625 2.554688 -0.378906 2.390625 -0.609375 C 2.210938 -0.828125 2.078125 -1.082031 1.984375 -1.375 Z M 2.21875 -1.53125 "
             style="stroke:none;stroke-width:0" />
          <path
             id="path8721"
             transform="translate(177.47072,134.765)"
             d="M 2.875 -7.359375 C 3.507813 -7.242188 4.019531 -7.039063 4.40625 -6.75 C 4.707031 -6.507813 4.859375 -6.273438 4.859375 -6.046875 C 4.859375 -5.929688 4.820313 -5.832031 4.75 -5.75 C 4.6875 -5.675781 4.597656 -5.640625 4.484375 -5.640625 C 4.359375 -5.640625 4.25 -5.71875 4.15625 -5.875 C 3.863281 -6.394531 3.398438 -6.800781 2.765625 -7.09375 Z M 1.578125 -5.453125 C 2.253906 -5.328125 2.773438 -5.117188 3.140625 -4.828125 C 3.429688 -4.597656 3.578125 -4.351563 3.578125 -4.09375 C 3.578125 -3.84375 3.453125 -3.71875 3.203125 -3.71875 C 3.085938 -3.71875 2.972656 -3.804688 2.859375 -3.984375 C 2.503906 -4.535156 2.046875 -4.941406 1.484375 -5.203125 Z M 2.234375 -1.46875 C 2.492188 -1.175781 2.695313 -1.03125 2.84375 -1.03125 C 3.007813 -1.03125 3.3125 -1.140625 3.75 -1.359375 C 4.144531 -1.554688 4.582031 -1.8125 5.0625 -2.125 C 6.414063 -3.019531 7.6875 -4.269531 8.875 -5.875 L 9.109375 -5.671875 C 8.378906 -4.453125 7.539063 -3.410156 6.59375 -2.546875 C 5.789063 -1.835938 4.820313 -1.171875 3.6875 -0.546875 C 3.445313 -0.421875 3.265625 -0.332031 3.140625 -0.28125 C 3.054688 -0.25 2.984375 -0.234375 2.921875 -0.234375 C 2.773438 -0.234375 2.613281 -0.34375 2.4375 -0.5625 C 2.28125 -0.757813 2.140625 -1.007813 2.015625 -1.3125 Z M 2.234375 -1.46875 "
             style="stroke:none;stroke-width:0" />
          <path
             id="path8723"
             transform="translate(187.05696,134.765)"
             d="M 4.09375 -4 C 4.050781 -4.1875 4 -4.429688 3.9375 -4.734375 C 3.851563 -5.109375 3.765625 -5.378906 3.671875 -5.546875 C 3.585938 -5.691406 3.398438 -5.773438 3.109375 -5.796875 L 3.109375 -6.078125 C 3.316406 -6.109375 3.5 -6.125 3.65625 -6.125 C 4.101563 -6.125 4.328125 -6.023438 4.328125 -5.828125 C 4.328125 -5.710938 4.328125 -5.609375 4.328125 -5.515625 C 4.359375 -5.210938 4.4375 -4.742188 4.5625 -4.109375 C 4.570313 -4.109375 5.019531 -4.207031 5.90625 -4.40625 C 6.3125 -4.488281 6.617188 -4.554688 6.828125 -4.609375 C 6.992188 -4.648438 7.128906 -4.722656 7.234375 -4.828125 C 7.273438 -4.867188 7.332031 -4.890625 7.40625 -4.890625 C 7.488281 -4.890625 7.617188 -4.832031 7.796875 -4.71875 C 7.984375 -4.582031 8.078125 -4.46875 8.078125 -4.375 C 8.078125 -4.300781 8.007813 -4.234375 7.875 -4.171875 C 7.769531 -4.128906 7.644531 -4.023438 7.5 -3.859375 C 6.96875 -3.242188 6.46875 -2.753906 6 -2.390625 L 5.796875 -2.578125 C 6.390625 -3.210938 6.835938 -3.785156 7.140625 -4.296875 L 4.640625 -3.734375 C 4.890625 -2.546875 5.085938 -1.675781 5.234375 -1.125 C 5.390625 -0.539063 5.46875 -0.160156 5.46875 0.015625 C 5.46875 0.273438 5.363281 0.40625 5.15625 0.40625 C 5.050781 0.40625 4.972656 0.375 4.921875 0.3125 C 4.878906 0.257813 4.847656 0.160156 4.828125 0.015625 C 4.816406 0.00390625 4.796875 -0.128906 4.765625 -0.390625 C 4.617188 -1.328125 4.425781 -2.398438 4.1875 -3.609375 C 3.789063 -3.515625 3.410156 -3.414063 3.046875 -3.3125 C 2.972656 -3.28125 2.910156 -3.25 2.859375 -3.21875 C 2.773438 -3.1875 2.707031 -3.171875 2.65625 -3.171875 C 2.457031 -3.171875 2.175781 -3.382813 1.8125 -3.8125 L 2.015625 -4.03125 C 2.242188 -3.863281 2.453125 -3.78125 2.640625 -3.78125 C 2.828125 -3.78125 3.3125 -3.851563 4.09375 -4 Z M 4.09375 -4 "
             style="stroke:none;stroke-width:0" />
          <path
             id="path8725"
             transform="translate(196.6432,134.765)"
             d="M 0.765625 -0.46875 C 1.617188 -1.101563 2.226563 -1.84375 2.59375 -2.6875 C 2.914063 -3.414063 3.078125 -4.269531 3.078125 -5.25 C 3.078125 -5.53125 3.023438 -5.710938 2.921875 -5.796875 C 2.773438 -5.921875 2.640625 -6.003906 2.515625 -6.046875 L 2.609375 -6.3125 C 2.960938 -6.269531 3.25 -6.1875 3.46875 -6.0625 C 3.707031 -5.9375 3.828125 -5.800781 3.828125 -5.65625 C 3.828125 -5.570313 3.8125 -5.484375 3.78125 -5.390625 C 3.757813 -5.273438 3.726563 -5.050781 3.6875 -4.71875 C 3.53125 -3.539063 3.226563 -2.609375 2.78125 -1.921875 C 2.363281 -1.285156 1.75 -0.722656 0.9375 -0.234375 Z M 9.421875 -4.40625 C 8.992188 -3.707031 8.457031 -3.054688 7.8125 -2.453125 C 7.363281 -2.035156 6.753906 -1.535156 5.984375 -0.953125 C 5.804688 -0.816406 5.695313 -0.71875 5.65625 -0.65625 C 5.59375 -0.570313 5.53125 -0.53125 5.46875 -0.53125 C 5.34375 -0.53125 5.210938 -0.628906 5.078125 -0.828125 C 4.984375 -0.953125 4.9375 -1.0625 4.9375 -1.15625 C 4.9375 -1.175781 4.941406 -1.203125 4.953125 -1.234375 C 4.960938 -1.273438 4.972656 -1.304688 4.984375 -1.328125 C 5.003906 -1.398438 5.023438 -1.554688 5.046875 -1.796875 C 5.054688 -2.160156 5.0625 -3.09375 5.0625 -4.59375 C 5.0625 -5.726563 5.035156 -6.378906 4.984375 -6.546875 C 4.921875 -6.753906 4.738281 -6.90625 4.4375 -7 L 4.53125 -7.296875 C 5.039063 -7.210938 5.378906 -7.117188 5.546875 -7.015625 C 5.691406 -6.921875 5.765625 -6.789063 5.765625 -6.625 C 5.765625 -6.59375 5.75 -6.484375 5.71875 -6.296875 C 5.6875 -6.117188 5.664063 -5.882813 5.65625 -5.59375 C 5.613281 -3.59375 5.59375 -2.234375 5.59375 -1.515625 C 6.3125 -1.910156 6.972656 -2.375 7.578125 -2.90625 C 8.085938 -3.363281 8.628906 -3.925781 9.203125 -4.59375 Z M 9.421875 -4.40625 "
             style="stroke:none;stroke-width:0" />
          <path
             id="path8727"
             transform="translate(206.22944,134.765)"
             d="M 4.703125 -6.640625 C 4.929688 -6.304688 5.046875 -6.019531 5.046875 -5.78125 C 5.046875 -5.394531 4.953125 -4.882813 4.765625 -4.25 C 4.578125 -3.59375 4.332031 -2.984375 4.03125 -2.421875 C 3.75 -1.867188 3.476563 -1.472656 3.21875 -1.234375 C 2.96875 -1.003906 2.691406 -0.890625 2.390625 -0.890625 C 2.179688 -0.890625 1.945313 -1.023438 1.6875 -1.296875 C 1.5 -1.472656 1.347656 -1.75 1.234375 -2.125 C 1.128906 -2.488281 1.078125 -2.867188 1.078125 -3.265625 C 1.078125 -3.773438 1.195313 -4.273438 1.4375 -4.765625 C 1.644531 -5.203125 1.929688 -5.585938 2.296875 -5.921875 C 3.085938 -6.648438 4.066406 -7.015625 5.234375 -7.015625 C 6.140625 -7.015625 6.910156 -6.800781 7.546875 -6.375 C 8.453125 -5.726563 8.90625 -4.835938 8.90625 -3.703125 C 8.90625 -2.609375 8.507813 -1.769531 7.71875 -1.1875 C 7 -0.644531 6.039063 -0.300781 4.84375 -0.15625 L 4.78125 -0.4375 C 5.90625 -0.644531 6.773438 -1.078125 7.390625 -1.734375 C 7.929688 -2.304688 8.203125 -2.984375 8.203125 -3.765625 C 8.203125 -4.671875 7.882813 -5.40625 7.25 -5.96875 C 6.738281 -6.4375 6.0625 -6.671875 5.21875 -6.671875 C 5.039063 -6.671875 4.867188 -6.660156 4.703125 -6.640625 Z M 4.390625 -6.578125 C 3.722656 -6.398438 3.175781 -6.125 2.75 -5.75 C 2.382813 -5.445313 2.09375 -5.054688 1.875 -4.578125 C 1.6875 -4.148438 1.59375 -3.71875 1.59375 -3.28125 C 1.59375 -2.738281 1.710938 -2.285156 1.953125 -1.921875 C 2.109375 -1.691406 2.265625 -1.578125 2.421875 -1.578125 C 2.566406 -1.578125 2.726563 -1.664063 2.90625 -1.84375 C 3.28125 -2.238281 3.625 -2.835938 3.9375 -3.640625 C 4.34375 -4.640625 4.546875 -5.382813 4.546875 -5.875 C 4.546875 -6.1875 4.492188 -6.421875 4.390625 -6.578125 Z M 4.390625 -6.578125 "
             style="stroke:none;stroke-width:0" />
          <path
             id="path8729"
             transform="translate(215.81568,134.765)"
             d="M 2.203125 -6.84375 L 4.859375 -6.84375 L 4.859375 -8.25 C 5.535156 -8.238281 5.875 -8.160156 5.875 -8.015625 C 5.875 -7.921875 5.726563 -7.828125 5.4375 -7.734375 L 5.4375 -6.84375 L 8.125 -6.84375 L 8.625 -7.5 C 8.84375 -7.300781 9.070313 -7.066406 9.3125 -6.796875 L 9.203125 -6.609375 L 2.125 -6.609375 L 2.125 -4.546875 C 2.125 -2.179688 1.640625 -0.425781 0.671875 0.71875 L 0.46875 0.546875 C 1.164063 -0.597656 1.515625 -2.285156 1.515625 -4.515625 L 1.515625 -7.125 L 1.703125 -7.0625 C 1.878906 -6.988281 2.046875 -6.914063 2.203125 -6.84375 Z M 6.453125 -3.265625 C 6.679688 -2.347656 7.054688 -1.609375 7.578125 -1.046875 C 7.878906 -0.734375 8.082031 -0.578125 8.1875 -0.578125 C 8.320313 -0.578125 8.46875 -1.066406 8.625 -2.046875 L 8.875 -1.90625 C 8.820313 -1.394531 8.796875 -1.019531 8.796875 -0.78125 C 8.796875 -0.40625 8.894531 -0.195313 9.09375 -0.15625 C 9.019531 0.144531 8.867188 0.296875 8.640625 0.296875 C 8.273438 0.296875 7.859375 0.0664063 7.390625 -0.390625 C 6.671875 -1.097656 6.164063 -2.039063 5.875 -3.21875 L 3.75 -3.21875 L 3.75 -1.234375 C 4.5625 -1.359375 5.332031 -1.507813 6.0625 -1.6875 L 6.125 -1.40625 C 4.96875 -1.03125 3.828125 -0.742188 2.703125 -0.546875 C 2.660156 -0.304688 2.601563 -0.1875 2.53125 -0.1875 C 2.414063 -0.1875 2.28125 -0.472656 2.125 -1.046875 C 2.226563 -1.054688 2.445313 -1.078125 2.78125 -1.109375 C 2.96875 -1.128906 3.101563 -1.144531 3.1875 -1.15625 L 3.1875 -5.515625 C 3.207031 -5.515625 3.25 -5.5 3.3125 -5.46875 C 3.375 -5.4375 3.429688 -5.40625 3.484375 -5.375 C 3.578125 -5.332031 3.695313 -5.265625 3.84375 -5.171875 C 5.320313 -5.378906 6.507813 -5.703125 7.40625 -6.140625 C 7.851563 -5.859375 8.078125 -5.65625 8.078125 -5.53125 C 8.078125 -5.476563 8.007813 -5.453125 7.875 -5.453125 C 7.78125 -5.453125 7.660156 -5.460938 7.515625 -5.484375 C 7.171875 -5.398438 6.796875 -5.320313 6.390625 -5.25 L 6.21875 -5.21875 C 6.25 -4.476563 6.3125 -3.910156 6.40625 -3.515625 L 7.96875 -3.515625 L 8.46875 -4.109375 C 8.707031 -3.890625 8.925781 -3.675781 9.125 -3.46875 L 9.015625 -3.265625 Z M 3.75 -3.46875 L 5.828125 -3.46875 C 5.722656 -4.019531 5.664063 -4.570313 5.65625 -5.125 C 5.0625 -5.03125 4.441406 -4.957031 3.796875 -4.90625 L 3.75 -4.890625 Z M 5.953125 0.15625 L 6.453125 -0.4375 C 6.660156 -0.269531 6.851563 -0.0820313 7.03125 0.125 L 7.125 0.21875 L 7.015625 0.40625 L 2.375 0.40625 L 2.265625 0.15625 Z M 5.953125 0.15625 "
             style="stroke:none;stroke-width:0" />
          <path
             id="path8731"
             transform="translate(225.40192,134.765)"
             d="M 4.703125 -6.640625 C 4.929688 -6.304688 5.046875 -6.019531 5.046875 -5.78125 C 5.046875 -5.394531 4.953125 -4.882813 4.765625 -4.25 C 4.578125 -3.59375 4.332031 -2.984375 4.03125 -2.421875 C 3.75 -1.867188 3.476563 -1.472656 3.21875 -1.234375 C 2.96875 -1.003906 2.691406 -0.890625 2.390625 -0.890625 C 2.179688 -0.890625 1.945313 -1.023438 1.6875 -1.296875 C 1.5 -1.472656 1.347656 -1.75 1.234375 -2.125 C 1.128906 -2.488281 1.078125 -2.867188 1.078125 -3.265625 C 1.078125 -3.773438 1.195313 -4.273438 1.4375 -4.765625 C 1.644531 -5.203125 1.929688 -5.585938 2.296875 -5.921875 C 3.085938 -6.648438 4.066406 -7.015625 5.234375 -7.015625 C 6.140625 -7.015625 6.910156 -6.800781 7.546875 -6.375 C 8.453125 -5.726563 8.90625 -4.835938 8.90625 -3.703125 C 8.90625 -2.609375 8.507813 -1.769531 7.71875 -1.1875 C 7 -0.644531 6.039063 -0.300781 4.84375 -0.15625 L 4.78125 -0.4375 C 5.90625 -0.644531 6.773438 -1.078125 7.390625 -1.734375 C 7.929688 -2.304688 8.203125 -2.984375 8.203125 -3.765625 C 8.203125 -4.671875 7.882813 -5.40625 7.25 -5.96875 C 6.738281 -6.4375 6.0625 -6.671875 5.21875 -6.671875 C 5.039063 -6.671875 4.867188 -6.660156 4.703125 -6.640625 Z M 4.390625 -6.578125 C 3.722656 -6.398438 3.175781 -6.125 2.75 -5.75 C 2.382813 -5.445313 2.09375 -5.054688 1.875 -4.578125 C 1.6875 -4.148438 1.59375 -3.71875 1.59375 -3.28125 C 1.59375 -2.738281 1.710938 -2.285156 1.953125 -1.921875 C 2.109375 -1.691406 2.265625 -1.578125 2.421875 -1.578125 C 2.566406 -1.578125 2.726563 -1.664063 2.90625 -1.84375 C 3.28125 -2.238281 3.625 -2.835938 3.9375 -3.640625 C 4.34375 -4.640625 4.546875 -5.382813 4.546875 -5.875 C 4.546875 -6.1875 4.492188 -6.421875 4.390625 -6.578125 Z M 4.390625 -6.578125 "
             style="stroke:none;stroke-width:0" />
          <path
             id="path8733"
             transform="translate(234.98816,134.765)"
             d="M 2.609375 -1.515625 C 2.929688 -0.953125 3.425781 -0.5625 4.09375 -0.34375 C 4.695313 -0.15625 5.585938 -0.0625 6.765625 -0.0625 C 7.578125 -0.0625 8.503906 -0.113281 9.546875 -0.21875 C 9.390625 0.0625 9.296875 0.289063 9.265625 0.46875 L 7.203125 0.46875 C 5.859375 0.46875 4.835938 0.363281 4.140625 0.15625 C 3.410156 -0.0507813 2.859375 -0.476563 2.484375 -1.125 C 2.140625 -0.675781 1.71875 -0.195313 1.21875 0.3125 C 1.21875 0.570313 1.175781 0.703125 1.09375 0.703125 C 0.957031 0.703125 0.757813 0.445313 0.5 -0.0625 C 0.96875 -0.289063 1.476563 -0.625 2.03125 -1.0625 L 2.03125 -3.75 L 0.609375 -3.75 L 0.515625 -4 L 1.953125 -4 L 2.34375 -4.453125 C 2.726563 -4.140625 2.921875 -3.9375 2.921875 -3.84375 C 2.921875 -3.789063 2.882813 -3.75 2.8125 -3.71875 L 2.609375 -3.578125 Z M 7.40625 -4.734375 L 7.40625 -0.65625 L 6.828125 -0.65625 L 6.828125 -4.734375 L 4.8125 -4.734375 L 4.8125 -4.71875 C 4.8125 -3.082031 4.390625 -1.773438 3.546875 -0.796875 L 3.34375 -0.96875 C 3.9375 -1.925781 4.234375 -3.175781 4.234375 -4.71875 L 4.234375 -7.265625 C 4.515625 -7.140625 4.71875 -7.035156 4.84375 -6.953125 C 6.113281 -7.191406 7.175781 -7.523438 8.03125 -7.953125 C 8.476563 -7.648438 8.703125 -7.429688 8.703125 -7.296875 C 8.703125 -7.234375 8.648438 -7.203125 8.546875 -7.203125 C 8.460938 -7.203125 8.347656 -7.222656 8.203125 -7.265625 C 7.160156 -7.015625 6.03125 -6.816406 4.8125 -6.671875 L 4.8125 -4.984375 L 8.296875 -4.984375 L 8.765625 -5.625 C 8.984375 -5.425781 9.195313 -5.195313 9.40625 -4.9375 L 9.296875 -4.734375 Z M 1.015625 -7.875 C 2.140625 -7.40625 2.703125 -6.898438 2.703125 -6.359375 C 2.703125 -6.097656 2.582031 -5.96875 2.34375 -5.96875 C 2.195313 -5.96875 2.078125 -6.078125 1.984375 -6.296875 C 1.804688 -6.796875 1.4375 -7.253906 0.875 -7.671875 Z M 1.015625 -7.875 "
             style="stroke:none;stroke-width:0" />
          <path
             id="path8735"
             transform="translate(244.5744,134.765)"
             d="M 2.078125 -5.328125 C 2.441406 -5.253906 2.625 -5.164063 2.625 -5.0625 C 2.625 -4.988281 2.488281 -4.90625 2.21875 -4.8125 L 2.21875 0.71875 L 1.640625 0.71875 L 1.640625 -4.375 C 1.640625 -4.363281 1.613281 -4.3125 1.5625 -4.21875 C 1.28125 -3.664063 0.929688 -3.09375 0.515625 -2.5 L 0.296875 -2.65625 C 1.253906 -4.28125 1.945313 -6.144531 2.375 -8.25 C 2.988281 -8.09375 3.296875 -7.953125 3.296875 -7.828125 C 3.296875 -7.742188 3.148438 -7.675781 2.859375 -7.625 C 2.628906 -6.769531 2.367188 -6.003906 2.078125 -5.328125 Z M 5.28125 -3.15625 L 3.09375 -3.15625 L 2.96875 -3.40625 L 5.78125 -3.40625 L 5.78125 -4.578125 C 6.394531 -4.554688 6.703125 -4.484375 6.703125 -4.359375 C 6.703125 -4.285156 6.582031 -4.203125 6.34375 -4.109375 L 6.34375 -3.40625 L 8.5 -3.40625 L 8.9375 -3.953125 C 9.0625 -3.847656 9.257813 -3.65625 9.53125 -3.375 L 9.421875 -3.15625 L 5.890625 -3.15625 L 5.890625 -3.046875 C 5.890625 -2.742188 5.863281 -2.445313 5.8125 -2.15625 L 7.859375 -2.15625 L 8.21875 -2.5625 C 8.601563 -2.28125 8.796875 -2.09375 8.796875 -2 C 8.796875 -1.957031 8.765625 -1.921875 8.703125 -1.890625 L 8.46875 -1.75 C 8.425781 -0.59375 8.210938 0.113281 7.828125 0.375 C 7.628906 0.519531 7.390625 0.59375 7.109375 0.59375 C 7.097656 0.394531 7 0.253906 6.8125 0.171875 C 6.644531 0.0976563 6.335938 0.0195313 5.890625 -0.0625 L 5.890625 -0.328125 C 6.410156 -0.242188 6.835938 -0.203125 7.171875 -0.203125 C 7.453125 -0.203125 7.644531 -0.34375 7.75 -0.625 C 7.851563 -0.9375 7.910156 -1.363281 7.921875 -1.90625 L 5.765625 -1.90625 C 5.460938 -0.65625 4.546875 0.226563 3.015625 0.75 L 2.890625 0.5 C 3.859375 0.0507813 4.519531 -0.523438 4.875 -1.234375 C 5.144531 -1.742188 5.28125 -2.359375 5.28125 -3.078125 Z M 3.8125 -5.109375 L 6.6875 -5.109375 C 6.9375 -5.585938 7.140625 -6.113281 7.296875 -6.6875 C 7.859375 -6.476563 8.140625 -6.3125 8.140625 -6.1875 C 8.140625 -6.09375 8.003906 -6.046875 7.734375 -6.046875 C 7.546875 -5.742188 7.304688 -5.429688 7.015625 -5.109375 L 8.484375 -5.109375 L 8.84375 -5.578125 C 9.28125 -5.179688 9.5 -4.925781 9.5 -4.8125 C 9.5 -4.769531 9.46875 -4.738281 9.40625 -4.71875 L 9.09375 -4.640625 C 8.894531 -4.378906 8.664063 -4.140625 8.40625 -3.921875 L 8.203125 -4.0625 C 8.347656 -4.34375 8.460938 -4.609375 8.546875 -4.859375 L 3.8125 -4.859375 L 3.8125 -4.8125 C 3.78125 -4.46875 3.695313 -4.191406 3.5625 -3.984375 C 3.4375 -3.785156 3.304688 -3.6875 3.171875 -3.6875 C 2.921875 -3.6875 2.796875 -3.800781 2.796875 -4.03125 C 2.796875 -4.125 2.84375 -4.210938 2.9375 -4.296875 C 3.28125 -4.585938 3.484375 -4.992188 3.546875 -5.515625 L 3.796875 -5.46875 C 3.804688 -5.289063 3.8125 -5.171875 3.8125 -5.109375 Z M 5.84375 -7 L 5.84375 -8.25 C 6.488281 -8.238281 6.8125 -8.160156 6.8125 -8.015625 C 6.8125 -7.941406 6.679688 -7.851563 6.421875 -7.75 L 6.421875 -7 L 8.203125 -7 L 8.640625 -7.609375 C 8.910156 -7.367188 9.117188 -7.15625 9.265625 -6.96875 L 9.171875 -6.75 L 3.3125 -6.75 L 3.21875 -7 Z M 4.5 -6.625 C 5.226563 -6.300781 5.59375 -5.929688 5.59375 -5.515625 C 5.59375 -5.265625 5.46875 -5.140625 5.21875 -5.140625 C 5.082031 -5.140625 4.988281 -5.25 4.9375 -5.46875 C 4.863281 -5.84375 4.675781 -6.164063 4.375 -6.4375 Z M 4.5 -6.625 "
             style="stroke:none;stroke-width:0" />
          <path
             id="path8737"
             transform="translate(254.16064,134.765)"
             d="M 1.15625 -6.390625 C 1.320313 -6.078125 1.535156 -5.921875 1.796875 -5.921875 C 1.835938 -5.921875 2.960938 -6.144531 5.171875 -6.59375 C 6.835938 -6.914063 7.722656 -7.078125 7.828125 -7.078125 C 8.054688 -7.078125 8.257813 -7.019531 8.4375 -6.90625 C 8.5625 -6.820313 8.625 -6.722656 8.625 -6.609375 C 8.625 -6.453125 8.507813 -6.375 8.28125 -6.375 L 7.796875 -6.375 C 7.566406 -6.375 7.359375 -6.367188 7.171875 -6.359375 C 6.523438 -6.285156 5.984375 -6.0625 5.546875 -5.6875 C 4.703125 -4.945313 4.28125 -4.019531 4.28125 -2.90625 C 4.28125 -2.207031 4.5 -1.660156 4.9375 -1.265625 C 5.257813 -0.972656 5.710938 -0.828125 6.296875 -0.828125 C 6.390625 -0.828125 6.5625 -0.832031 6.8125 -0.84375 C 6.976563 -0.851563 7.085938 -0.859375 7.140625 -0.859375 C 7.367188 -0.859375 7.539063 -0.820313 7.65625 -0.75 C 7.75 -0.675781 7.796875 -0.5625 7.796875 -0.40625 C 7.796875 -0.21875 7.425781 -0.125 6.6875 -0.125 C 5.695313 -0.125 4.945313 -0.390625 4.4375 -0.921875 C 3.988281 -1.390625 3.765625 -2.035156 3.765625 -2.859375 C 3.765625 -4.316406 4.457031 -5.46875 5.84375 -6.3125 L 5.84375 -6.34375 C 4.351563 -6 3.117188 -5.660156 2.140625 -5.328125 C 1.929688 -5.253906 1.78125 -5.21875 1.6875 -5.21875 C 1.539063 -5.21875 1.382813 -5.320313 1.21875 -5.53125 C 1.0625 -5.726563 0.957031 -5.96875 0.90625 -6.25 Z M 7 -4.96875 C 7.4375 -4.8125 7.773438 -4.625 8.015625 -4.40625 C 8.234375 -4.207031 8.34375 -4.015625 8.34375 -3.828125 C 8.34375 -3.585938 8.238281 -3.46875 8.03125 -3.46875 C 7.894531 -3.46875 7.785156 -3.570313 7.703125 -3.78125 C 7.546875 -4.15625 7.265625 -4.484375 6.859375 -4.765625 Z M 7.9375 -5.65625 C 8.351563 -5.519531 8.691406 -5.335938 8.953125 -5.109375 C 9.171875 -4.910156 9.28125 -4.71875 9.28125 -4.53125 C 9.28125 -4.300781 9.1875 -4.1875 9 -4.1875 C 8.863281 -4.1875 8.75 -4.296875 8.65625 -4.515625 C 8.507813 -4.835938 8.21875 -5.148438 7.78125 -5.453125 Z M 7.9375 -5.65625 "
             style="stroke:none;stroke-width:0" />
          <path
             id="path8739"
             transform="translate(263.74688,134.765)"
             d="M 7.59375 -3.921875 C 6.625 -3.648438 5.507813 -3.414063 4.25 -3.21875 C 4.195313 -3 4.132813 -2.890625 4.0625 -2.890625 C 3.925781 -2.890625 3.785156 -3.160156 3.640625 -3.703125 C 3.984375 -3.722656 4.289063 -3.75 4.5625 -3.78125 L 4.5625 -7.234375 L 3.578125 -7.234375 L 3.484375 -7.484375 L 8.328125 -7.484375 L 8.796875 -8.125 C 9.054688 -7.894531 9.28125 -7.664063 9.46875 -7.4375 L 9.359375 -7.234375 L 8.15625 -7.234375 L 8.15625 -2.953125 L 7.59375 -2.953125 Z M 7.59375 -4.15625 L 7.59375 -4.890625 L 5.125 -4.890625 L 5.125 -3.828125 C 5.875 -3.898438 6.695313 -4.007813 7.59375 -4.15625 Z M 7.59375 -7.234375 L 5.125 -7.234375 L 5.125 -6.34375 L 7.59375 -6.34375 Z M 7.59375 -6.09375 L 5.125 -6.09375 L 5.125 -5.140625 L 7.59375 -5.140625 Z M 2.46875 -5.828125 L 2.46875 -3.765625 C 2.96875 -3.941406 3.457031 -4.144531 3.9375 -4.375 L 4 -4.125 C 3.550781 -3.851563 3.039063 -3.570313 2.46875 -3.28125 L 2.46875 -0.015625 C 2.46875 0.378906 2.234375 0.601563 1.765625 0.65625 C 1.628906 0.664063 1.546875 0.671875 1.515625 0.671875 C 1.503906 0.484375 1.410156 0.347656 1.234375 0.265625 C 1.117188 0.203125 0.914063 0.140625 0.625 0.078125 L 0.625 -0.1875 C 1.007813 -0.125 1.328125 -0.09375 1.578125 -0.09375 C 1.785156 -0.09375 1.890625 -0.1875 1.890625 -0.375 L 1.890625 -3 C 1.890625 -3 1.753906 -2.9375 1.484375 -2.8125 C 1.335938 -2.75 1.21875 -2.695313 1.125 -2.65625 C 1.082031 -2.375 1.015625 -2.234375 0.921875 -2.234375 C 0.773438 -2.234375 0.625 -2.53125 0.46875 -3.125 C 1.082031 -3.300781 1.554688 -3.445313 1.890625 -3.5625 L 1.890625 -5.828125 L 0.5625 -5.828125 L 0.484375 -6.0625 L 1.890625 -6.0625 L 1.890625 -8.25 C 2.566406 -8.238281 2.90625 -8.160156 2.90625 -8.015625 C 2.90625 -7.921875 2.757813 -7.828125 2.46875 -7.734375 L 2.46875 -6.0625 L 2.96875 -6.0625 L 3.40625 -6.703125 C 3.644531 -6.472656 3.847656 -6.242188 4.015625 -6.015625 L 3.90625 -5.828125 Z M 5.875 -1.078125 L 5.953125 -0.84375 C 5.140625 -0.332031 4.421875 0.0664063 3.796875 0.359375 C 3.765625 0.617188 3.707031 0.75 3.625 0.75 C 3.476563 0.75 3.300781 0.472656 3.09375 -0.078125 C 4.207031 -0.367188 5.132813 -0.703125 5.875 -1.078125 Z M 6.6875 -1.734375 C 7.457031 -2.148438 8.140625 -2.628906 8.734375 -3.171875 C 9.128906 -2.867188 9.328125 -2.65625 9.328125 -2.53125 C 9.328125 -2.457031 9.257813 -2.421875 9.125 -2.421875 C 9.0625 -2.421875 8.976563 -2.429688 8.875 -2.453125 C 8.1875 -2.078125 7.5 -1.769531 6.8125 -1.53125 Z M 6.796875 -1.234375 C 7.734375 -0.992188 8.414063 -0.726563 8.84375 -0.4375 C 9.21875 -0.1875 9.40625 0.046875 9.40625 0.265625 C 9.40625 0.492188 9.296875 0.609375 9.078125 0.609375 C 8.972656 0.609375 8.847656 0.519531 8.703125 0.34375 C 8.242188 -0.1875 7.578125 -0.640625 6.703125 -1.015625 Z M 3.453125 -2.765625 C 5.035156 -2.484375 5.828125 -2.125 5.828125 -1.6875 C 5.828125 -1.476563 5.726563 -1.375 5.53125 -1.375 C 5.445313 -1.375 5.332031 -1.4375 5.1875 -1.5625 C 4.71875 -1.957031 4.113281 -2.285156 3.375 -2.546875 Z M 3.453125 -2.765625 "
             style="stroke:none;stroke-width:0" />
          <path
             id="path8741"
             transform="translate(273.33312,134.765)"
             d="M 6.6875 -5.40625 L 5.421875 -5.40625 L 5.3125 -5.65625 L 6.6875 -5.65625 L 6.6875 -8.203125 C 7.34375 -8.179688 7.671875 -8.097656 7.671875 -7.953125 C 7.671875 -7.867188 7.539063 -7.785156 7.28125 -7.703125 L 7.28125 -5.703125 L 8.484375 -5.703125 L 8.859375 -6.171875 C 9.242188 -5.847656 9.4375 -5.648438 9.4375 -5.578125 C 9.4375 -5.535156 9.410156 -5.492188 9.359375 -5.453125 L 9.140625 -5.296875 C 9.128906 -2.242188 8.960938 -0.457031 8.640625 0.0625 C 8.410156 0.445313 8.078125 0.640625 7.640625 0.640625 C 7.640625 0.472656 7.539063 0.34375 7.34375 0.25 C 7.195313 0.175781 6.867188 0.0976563 6.359375 0.015625 L 6.359375 -0.265625 C 6.828125 -0.191406 7.222656 -0.15625 7.546875 -0.15625 C 7.941406 -0.15625 8.1875 -0.359375 8.28125 -0.765625 C 8.457031 -1.628906 8.550781 -3 8.5625 -4.875 L 8.5625 -5.453125 L 7.265625 -5.453125 C 7.265625 -5.378906 7.257813 -5.316406 7.25 -5.265625 C 7.195313 -3.671875 6.9375 -2.394531 6.46875 -1.4375 C 6.0625 -0.613281 5.394531 0.109375 4.46875 0.734375 L 4.296875 0.53125 C 5.316406 -0.332031 5.988281 -1.359375 6.3125 -2.546875 C 6.507813 -3.273438 6.628906 -4.171875 6.671875 -5.234375 Z M 3.34375 -5.25 L 4.484375 -5.25 L 4.828125 -5.65625 C 5.191406 -5.382813 5.375 -5.207031 5.375 -5.125 C 5.375 -5.082031 5.335938 -5.035156 5.265625 -4.984375 L 5.109375 -4.859375 L 5.109375 -2.578125 L 4.5625 -2.578125 L 4.5625 -2.875 L 3.34375 -2.875 L 3.34375 -1.921875 L 4.4375 -1.921875 L 4.890625 -2.453125 C 5.117188 -2.253906 5.3125 -2.0625 5.46875 -1.875 L 5.359375 -1.6875 L 3.34375 -1.6875 L 3.34375 -0.71875 C 3.832031 -0.789063 4.53125 -0.914063 5.4375 -1.09375 L 5.5 -0.84375 C 3.945313 -0.414063 2.476563 -0.0976563 1.09375 0.109375 C 1.039063 0.359375 0.972656 0.484375 0.890625 0.484375 C 0.765625 0.484375 0.625 0.191406 0.46875 -0.390625 C 1.175781 -0.441406 1.890625 -0.519531 2.609375 -0.625 L 2.765625 -0.640625 L 2.765625 -1.6875 L 0.8125 -1.6875 L 0.71875 -1.921875 L 2.765625 -1.921875 L 2.765625 -2.875 L 1.578125 -2.875 L 1.578125 -2.484375 L 1.046875 -2.484375 L 1.046875 -5.546875 C 1.242188 -5.472656 1.453125 -5.375 1.671875 -5.25 L 2.765625 -5.25 L 2.765625 -6.09375 L 0.609375 -6.09375 L 0.515625 -6.34375 L 2.765625 -6.34375 L 2.765625 -7.171875 L 2.546875 -7.15625 C 1.898438 -7.09375 1.289063 -7.046875 0.71875 -7.015625 L 0.640625 -7.28125 C 2.265625 -7.425781 3.632813 -7.695313 4.75 -8.09375 C 5.101563 -7.800781 5.28125 -7.597656 5.28125 -7.484375 C 5.28125 -7.421875 5.222656 -7.390625 5.109375 -7.390625 C 5.046875 -7.390625 4.941406 -7.410156 4.796875 -7.453125 C 4.378906 -7.378906 3.894531 -7.304688 3.34375 -7.234375 L 3.34375 -6.34375 L 4.734375 -6.34375 L 5.171875 -6.890625 C 5.378906 -6.703125 5.578125 -6.492188 5.765625 -6.265625 L 5.671875 -6.09375 L 3.34375 -6.09375 Z M 4.5625 -3.953125 L 3.34375 -3.953125 L 3.34375 -3.125 L 4.5625 -3.125 Z M 4.5625 -4.203125 L 4.5625 -5 L 3.34375 -5 L 3.34375 -4.203125 Z M 2.765625 -5 L 1.578125 -5 L 1.578125 -4.203125 L 2.765625 -4.203125 Z M 1.578125 -3.125 L 2.765625 -3.125 L 2.765625 -3.953125 L 1.578125 -3.953125 Z M 1.578125 -3.125 "
             style="stroke:none;stroke-width:0" />
        </g>
        <g
           id="g8749"
           style="fill:rgb(0%,0%,0%);fill-opacity:1;">
          <path
             id="path8745"
             transform="translate(148.712,146.72)"
             d="M 5.796875 -2.90625 L 5.390625 -2.90625 C 5.265625 -1.71875 5.296875 -0.640625 3.546875 -0.640625 L 2.734375 -0.640625 C 2.265625 -0.640625 2.40625 -0.53125 2.40625 -0.875 L 2.40625 -6.1875 C 2.40625 -6.515625 2.25 -6.5 3.1875 -6.5 L 3.6875 -6.5 L 3.6875 -7.15625 C 3.15625 -7.109375 2.25 -7.109375 1.84375 -7.109375 C 1.453125 -7.109375 0.671875 -7.109375 0.15625 -7.15625 L 0.15625 -6.5 L 0.5625 -6.5 C 1.328125 -6.5 1.171875 -6.546875 1.171875 -6.1875 L 1.171875 -0.9375 C 1.171875 -0.578125 1.328125 -0.640625 0.5625 -0.640625 L 0.15625 -0.640625 L 0.15625 0 L 5.671875 0 L 5.984375 -2.90625 Z M 5.796875 -2.90625 "
             style="stroke:none;stroke-width:0" />
          <path
             id="path8747"
             transform="translate(154.93865,146.72)"
             d="M 4.8125 -6.65625 L 4.8125 -7.140625 L 3.34375 -7.109375 C 2.9375 -7.109375 2.046875 -7.109375 1.5 -7.15625 L 1.5 -6.5 L 2.03125 -6.5 C 3.015625 -6.5 2.828125 -6.53125 2.828125 -6.1875 L 2.828125 -1.640625 C 2.828125 -0.71875 2.515625 -0.328125 1.984375 -0.328125 C 1.921875 -0.328125 1.359375 -0.28125 1.1875 -0.578125 C 1.40625 -0.578125 1.6875 -1.03125 1.6875 -1.296875 C 1.6875 -1.65625 1.25 -2.03125 0.96875 -2.03125 C 0.75 -2.03125 0.234375 -1.71875 0.234375 -1.28125 C 0.234375 -0.53125 1.109375 0.21875 2 0.21875 C 3.015625 0.21875 3.921875 -0.640625 4.03125 -1.390625 C 4.03125 -1.46875 4.03125 -1.484375 4.03125 -1.828125 L 4.03125 -6.25 C 4.03125 -6.65625 4 -6.5 4.8125 -6.5 Z M 4.8125 -6.65625 "
             style="stroke:none;stroke-width:0" />
        </g>
        <g
           id="g8771"
           style="fill:rgb(0%,0%,0%);fill-opacity:1;">
          <path
             id="path8751"
             transform="translate(162.456,146.72)"
             d="M 8.40625 -8.078125 C 8.6875 -8.078125 8.921875 -7.96875 9.109375 -7.75 C 9.285156 -7.5625 9.375 -7.34375 9.375 -7.09375 C 9.375 -6.8125 9.265625 -6.570313 9.046875 -6.375 C 8.859375 -6.207031 8.644531 -6.125 8.40625 -6.125 C 8.113281 -6.125 7.867188 -6.226563 7.671875 -6.4375 C 7.503906 -6.625 7.421875 -6.84375 7.421875 -7.09375 C 7.421875 -7.382813 7.53125 -7.625 7.75 -7.8125 C 7.9375 -7.988281 8.15625 -8.078125 8.40625 -8.078125 Z M 8.40625 -7.75 C 8.207031 -7.75 8.046875 -7.675781 7.921875 -7.53125 C 7.804688 -7.40625 7.75 -7.257813 7.75 -7.09375 C 7.75 -6.90625 7.820313 -6.742188 7.96875 -6.609375 C 8.09375 -6.492188 8.238281 -6.4375 8.40625 -6.4375 C 8.59375 -6.4375 8.75 -6.507813 8.875 -6.65625 C 8.988281 -6.78125 9.046875 -6.925781 9.046875 -7.09375 C 9.046875 -7.289063 8.972656 -7.453125 8.828125 -7.578125 C 8.703125 -7.691406 8.5625 -7.75 8.40625 -7.75 Z M 4.796875 -5.28125 C 4.796875 -5.601563 4.785156 -5.988281 4.765625 -6.4375 C 4.753906 -6.707031 4.71875 -6.894531 4.65625 -7 C 4.5625 -7.15625 4.351563 -7.273438 4.03125 -7.359375 L 4.125 -7.625 C 4.570313 -7.625 4.914063 -7.570313 5.15625 -7.46875 C 5.34375 -7.394531 5.4375 -7.285156 5.4375 -7.140625 C 5.4375 -7.078125 5.425781 -6.984375 5.40625 -6.859375 C 5.382813 -6.742188 5.375 -6.664063 5.375 -6.625 C 5.332031 -6.28125 5.3125 -5.847656 5.3125 -5.328125 C 5.957031 -5.367188 6.515625 -5.414063 6.984375 -5.46875 C 7.160156 -5.488281 7.335938 -5.53125 7.515625 -5.59375 C 7.640625 -5.644531 7.742188 -5.671875 7.828125 -5.671875 C 8.117188 -5.671875 8.34375 -5.617188 8.5 -5.515625 C 8.625 -5.429688 8.6875 -5.328125 8.6875 -5.203125 C 8.6875 -5.046875 8.566406 -4.96875 8.328125 -4.96875 L 7.0625 -5 C 6.738281 -5 6.15625 -4.972656 5.3125 -4.921875 C 5.3125 -3.910156 5.332031 -2.820313 5.375 -1.65625 C 5.375 -1.570313 5.378906 -1.4375 5.390625 -1.25 C 5.398438 -1.125 5.40625 -1.035156 5.40625 -0.984375 C 5.40625 -0.566406 5.359375 -0.273438 5.265625 -0.109375 C 5.171875 0.046875 5.054688 0.125 4.921875 0.125 C 4.816406 0.125 4.726563 0.0195313 4.65625 -0.1875 C 4.59375 -0.382813 4.515625 -0.515625 4.421875 -0.578125 C 4.109375 -0.816406 3.703125 -1.054688 3.203125 -1.296875 L 3.28125 -1.515625 C 3.832031 -1.335938 4.335938 -1.195313 4.796875 -1.09375 C 4.804688 -1.507813 4.8125 -2.21875 4.8125 -3.21875 C 4.8125 -3.695313 4.804688 -4.253906 4.796875 -4.890625 C 4.171875 -4.828125 3.550781 -4.753906 2.9375 -4.671875 C 2.738281 -4.648438 2.585938 -4.625 2.484375 -4.59375 C 2.367188 -4.5625 2.289063 -4.546875 2.25 -4.546875 C 2.09375 -4.546875 1.925781 -4.625 1.75 -4.78125 C 1.582031 -4.925781 1.4375 -5.117188 1.3125 -5.359375 L 1.515625 -5.515625 C 1.828125 -5.242188 2.125 -5.109375 2.40625 -5.109375 C 2.632813 -5.109375 3.429688 -5.164063 4.796875 -5.28125 Z M 2.703125 -3.65625 L 3.015625 -3.59375 C 2.898438 -2.625 2.613281 -1.851563 2.15625 -1.28125 C 1.945313 -1.019531 1.75 -0.890625 1.5625 -0.890625 C 1.363281 -0.890625 1.265625 -1.039063 1.265625 -1.34375 C 1.265625 -1.53125 1.382813 -1.707031 1.625 -1.875 C 2.195313 -2.300781 2.554688 -2.894531 2.703125 -3.65625 Z M 6.953125 -3.90625 C 7.554688 -3.519531 8.039063 -3.078125 8.40625 -2.578125 C 8.664063 -2.210938 8.796875 -1.875 8.796875 -1.5625 C 8.796875 -1.226563 8.660156 -1.0625 8.390625 -1.0625 C 8.210938 -1.0625 8.09375 -1.175781 8.03125 -1.40625 C 7.820313 -2.332031 7.394531 -3.09375 6.75 -3.6875 Z M 6.953125 -3.90625 "
             style="stroke:none;stroke-width:0" />
          <path
             id="path8753"
             transform="translate(172.04224,146.72)"
             d="M 5.609375 -4.40625 C 5.554688 -3.207031 5.351563 -2.273438 5 -1.609375 C 4.5625 -0.765625 3.859375 -0.117188 2.890625 0.328125 L 2.71875 0.09375 C 3.570313 -0.445313 4.171875 -1.128906 4.515625 -1.953125 C 4.773438 -2.578125 4.910156 -3.375 4.921875 -4.34375 C 3.941406 -4.238281 3.164063 -4.144531 2.59375 -4.0625 C 2.46875 -4.039063 2.375 -4.015625 2.3125 -3.984375 C 2.207031 -3.960938 2.140625 -3.953125 2.109375 -3.953125 C 1.929688 -3.953125 1.742188 -4.050781 1.546875 -4.25 C 1.367188 -4.414063 1.21875 -4.613281 1.09375 -4.84375 L 1.3125 -5.015625 C 1.53125 -4.835938 1.695313 -4.726563 1.8125 -4.6875 C 1.9375 -4.632813 2.085938 -4.609375 2.265625 -4.609375 C 2.753906 -4.609375 3.769531 -4.675781 5.3125 -4.8125 C 6.6875 -4.925781 7.445313 -5.007813 7.59375 -5.0625 C 7.78125 -5.144531 7.945313 -5.1875 8.09375 -5.1875 C 8.351563 -5.1875 8.566406 -5.132813 8.734375 -5.03125 C 8.878906 -4.9375 8.953125 -4.816406 8.953125 -4.671875 C 8.953125 -4.523438 8.816406 -4.453125 8.546875 -4.453125 L 7.5625 -4.484375 C 7.164063 -4.484375 6.515625 -4.457031 5.609375 -4.40625 Z M 2.640625 -7.234375 C 2.941406 -6.972656 3.226563 -6.84375 3.5 -6.84375 C 4.070313 -6.84375 4.816406 -6.898438 5.734375 -7.015625 C 5.992188 -7.046875 6.210938 -7.101563 6.390625 -7.1875 C 6.503906 -7.238281 6.597656 -7.265625 6.671875 -7.265625 C 6.867188 -7.265625 7.050781 -7.222656 7.21875 -7.140625 C 7.375 -7.054688 7.453125 -6.957031 7.453125 -6.84375 C 7.453125 -6.695313 7.335938 -6.617188 7.109375 -6.609375 C 5.910156 -6.554688 4.765625 -6.472656 3.671875 -6.359375 C 3.640625 -6.359375 3.601563 -6.351563 3.5625 -6.34375 C 3.507813 -6.332031 3.476563 -6.320313 3.46875 -6.3125 C 3.382813 -6.300781 3.320313 -6.296875 3.28125 -6.296875 C 3.03125 -6.296875 2.742188 -6.554688 2.421875 -7.078125 Z M 2.640625 -7.234375 "
             style="stroke:none;stroke-width:0" />
          <path
             id="path8755"
             transform="translate(181.62848,146.72)"
             d="M 2.078125 -6.953125 C 2.859375 -6.722656 3.429688 -6.429688 3.796875 -6.078125 C 4.085938 -5.804688 4.234375 -5.546875 4.234375 -5.296875 C 4.234375 -4.960938 4.101563 -4.796875 3.84375 -4.796875 C 3.738281 -4.796875 3.609375 -4.925781 3.453125 -5.1875 C 3.078125 -5.8125 2.570313 -6.316406 1.9375 -6.703125 Z M 2.21875 -1.53125 C 2.394531 -1.257813 2.578125 -1.125 2.765625 -1.125 C 2.984375 -1.125 3.304688 -1.234375 3.734375 -1.453125 C 5.847656 -2.566406 7.53125 -4.050781 8.78125 -5.90625 L 9.015625 -5.703125 C 8.367188 -4.585938 7.644531 -3.648438 6.84375 -2.890625 C 6.082031 -2.171875 5.117188 -1.488281 3.953125 -0.84375 C 3.566406 -0.632813 3.332031 -0.5 3.25 -0.4375 C 3.132813 -0.320313 2.984375 -0.265625 2.796875 -0.265625 C 2.691406 -0.265625 2.554688 -0.378906 2.390625 -0.609375 C 2.210938 -0.828125 2.078125 -1.082031 1.984375 -1.375 Z M 2.21875 -1.53125 "
             style="stroke:none;stroke-width:0" />
          <path
             id="path8757"
             transform="translate(191.21472,146.72)"
             d="M 2.875 -7.359375 C 3.507813 -7.242188 4.019531 -7.039063 4.40625 -6.75 C 4.707031 -6.507813 4.859375 -6.273438 4.859375 -6.046875 C 4.859375 -5.929688 4.820313 -5.832031 4.75 -5.75 C 4.6875 -5.675781 4.597656 -5.640625 4.484375 -5.640625 C 4.359375 -5.640625 4.25 -5.71875 4.15625 -5.875 C 3.863281 -6.394531 3.398438 -6.800781 2.765625 -7.09375 Z M 1.578125 -5.453125 C 2.253906 -5.328125 2.773438 -5.117188 3.140625 -4.828125 C 3.429688 -4.597656 3.578125 -4.351563 3.578125 -4.09375 C 3.578125 -3.84375 3.453125 -3.71875 3.203125 -3.71875 C 3.085938 -3.71875 2.972656 -3.804688 2.859375 -3.984375 C 2.503906 -4.535156 2.046875 -4.941406 1.484375 -5.203125 Z M 2.234375 -1.46875 C 2.492188 -1.175781 2.695313 -1.03125 2.84375 -1.03125 C 3.007813 -1.03125 3.3125 -1.140625 3.75 -1.359375 C 4.144531 -1.554688 4.582031 -1.8125 5.0625 -2.125 C 6.414063 -3.019531 7.6875 -4.269531 8.875 -5.875 L 9.109375 -5.671875 C 8.378906 -4.453125 7.539063 -3.410156 6.59375 -2.546875 C 5.789063 -1.835938 4.820313 -1.171875 3.6875 -0.546875 C 3.445313 -0.421875 3.265625 -0.332031 3.140625 -0.28125 C 3.054688 -0.25 2.984375 -0.234375 2.921875 -0.234375 C 2.773438 -0.234375 2.613281 -0.34375 2.4375 -0.5625 C 2.28125 -0.757813 2.140625 -1.007813 2.015625 -1.3125 Z M 2.234375 -1.46875 "
             style="stroke:none;stroke-width:0" />
          <path
             id="path8759"
             transform="translate(200.80096,146.72)"
             d="M 4.09375 -4 C 4.050781 -4.1875 4 -4.429688 3.9375 -4.734375 C 3.851563 -5.109375 3.765625 -5.378906 3.671875 -5.546875 C 3.585938 -5.691406 3.398438 -5.773438 3.109375 -5.796875 L 3.109375 -6.078125 C 3.316406 -6.109375 3.5 -6.125 3.65625 -6.125 C 4.101563 -6.125 4.328125 -6.023438 4.328125 -5.828125 C 4.328125 -5.710938 4.328125 -5.609375 4.328125 -5.515625 C 4.359375 -5.210938 4.4375 -4.742188 4.5625 -4.109375 C 4.570313 -4.109375 5.019531 -4.207031 5.90625 -4.40625 C 6.3125 -4.488281 6.617188 -4.554688 6.828125 -4.609375 C 6.992188 -4.648438 7.128906 -4.722656 7.234375 -4.828125 C 7.273438 -4.867188 7.332031 -4.890625 7.40625 -4.890625 C 7.488281 -4.890625 7.617188 -4.832031 7.796875 -4.71875 C 7.984375 -4.582031 8.078125 -4.46875 8.078125 -4.375 C 8.078125 -4.300781 8.007813 -4.234375 7.875 -4.171875 C 7.769531 -4.128906 7.644531 -4.023438 7.5 -3.859375 C 6.96875 -3.242188 6.46875 -2.753906 6 -2.390625 L 5.796875 -2.578125 C 6.390625 -3.210938 6.835938 -3.785156 7.140625 -4.296875 L 4.640625 -3.734375 C 4.890625 -2.546875 5.085938 -1.675781 5.234375 -1.125 C 5.390625 -0.539063 5.46875 -0.160156 5.46875 0.015625 C 5.46875 0.273438 5.363281 0.40625 5.15625 0.40625 C 5.050781 0.40625 4.972656 0.375 4.921875 0.3125 C 4.878906 0.257813 4.847656 0.160156 4.828125 0.015625 C 4.816406 0.00390625 4.796875 -0.128906 4.765625 -0.390625 C 4.617188 -1.328125 4.425781 -2.398438 4.1875 -3.609375 C 3.789063 -3.515625 3.410156 -3.414063 3.046875 -3.3125 C 2.972656 -3.28125 2.910156 -3.25 2.859375 -3.21875 C 2.773438 -3.1875 2.707031 -3.171875 2.65625 -3.171875 C 2.457031 -3.171875 2.175781 -3.382813 1.8125 -3.8125 L 2.015625 -4.03125 C 2.242188 -3.863281 2.453125 -3.78125 2.640625 -3.78125 C 2.828125 -3.78125 3.3125 -3.851563 4.09375 -4 Z M 4.09375 -4 "
             style="stroke:none;stroke-width:0" />
          <path
             id="path8761"
             transform="translate(210.3872,146.72)"
             d="M 0.765625 -0.46875 C 1.617188 -1.101563 2.226563 -1.84375 2.59375 -2.6875 C 2.914063 -3.414063 3.078125 -4.269531 3.078125 -5.25 C 3.078125 -5.53125 3.023438 -5.710938 2.921875 -5.796875 C 2.773438 -5.921875 2.640625 -6.003906 2.515625 -6.046875 L 2.609375 -6.3125 C 2.960938 -6.269531 3.25 -6.1875 3.46875 -6.0625 C 3.707031 -5.9375 3.828125 -5.800781 3.828125 -5.65625 C 3.828125 -5.570313 3.8125 -5.484375 3.78125 -5.390625 C 3.757813 -5.273438 3.726563 -5.050781 3.6875 -4.71875 C 3.53125 -3.539063 3.226563 -2.609375 2.78125 -1.921875 C 2.363281 -1.285156 1.75 -0.722656 0.9375 -0.234375 Z M 9.421875 -4.40625 C 8.992188 -3.707031 8.457031 -3.054688 7.8125 -2.453125 C 7.363281 -2.035156 6.753906 -1.535156 5.984375 -0.953125 C 5.804688 -0.816406 5.695313 -0.71875 5.65625 -0.65625 C 5.59375 -0.570313 5.53125 -0.53125 5.46875 -0.53125 C 5.34375 -0.53125 5.210938 -0.628906 5.078125 -0.828125 C 4.984375 -0.953125 4.9375 -1.0625 4.9375 -1.15625 C 4.9375 -1.175781 4.941406 -1.203125 4.953125 -1.234375 C 4.960938 -1.273438 4.972656 -1.304688 4.984375 -1.328125 C 5.003906 -1.398438 5.023438 -1.554688 5.046875 -1.796875 C 5.054688 -2.160156 5.0625 -3.09375 5.0625 -4.59375 C 5.0625 -5.726563 5.035156 -6.378906 4.984375 -6.546875 C 4.921875 -6.753906 4.738281 -6.90625 4.4375 -7 L 4.53125 -7.296875 C 5.039063 -7.210938 5.378906 -7.117188 5.546875 -7.015625 C 5.691406 -6.921875 5.765625 -6.789063 5.765625 -6.625 C 5.765625 -6.59375 5.75 -6.484375 5.71875 -6.296875 C 5.6875 -6.117188 5.664063 -5.882813 5.65625 -5.59375 C 5.613281 -3.59375 5.59375 -2.234375 5.59375 -1.515625 C 6.3125 -1.910156 6.972656 -2.375 7.578125 -2.90625 C 8.085938 -3.363281 8.628906 -3.925781 9.203125 -4.59375 Z M 9.421875 -4.40625 "
             style="stroke:none;stroke-width:0" />
          <path
             id="path8763"
             transform="translate(219.97344,146.72)"
             d="M 3.796875 -0.203125 C 3.546875 -0.421875 3.421875 -0.660156 3.421875 -0.921875 C 3.421875 -1.316406 3.640625 -1.617188 4.078125 -1.828125 C 4.390625 -1.984375 4.738281 -2.0625 5.125 -2.0625 C 5.382813 -2.0625 5.691406 -2.046875 6.046875 -2.015625 C 5.972656 -2.847656 5.9375 -3.285156 5.9375 -3.328125 C 5.9375 -3.742188 6.03125 -4.140625 6.21875 -4.515625 L 6.46875 -4.453125 C 6.40625 -4.234375 6.375 -3.972656 6.375 -3.671875 C 6.375 -3.546875 6.390625 -3.347656 6.421875 -3.078125 C 6.453125 -2.828125 6.507813 -2.425781 6.59375 -1.875 C 7.257813 -1.65625 7.757813 -1.460938 8.09375 -1.296875 C 8.570313 -1.003906 8.8125 -0.757813 8.8125 -0.5625 C 8.8125 -0.320313 8.710938 -0.203125 8.515625 -0.203125 C 8.453125 -0.203125 8.328125 -0.285156 8.140625 -0.453125 C 7.867188 -0.691406 7.375 -0.976563 6.65625 -1.3125 C 6.664063 -1.226563 6.671875 -1.097656 6.671875 -0.921875 C 6.671875 -0.148438 6.164063 0.234375 5.15625 0.234375 C 4.59375 0.234375 4.140625 0.0859375 3.796875 -0.203125 Z M 6.09375 -1.53125 C 5.675781 -1.601563 5.335938 -1.640625 5.078125 -1.640625 C 4.753906 -1.640625 4.476563 -1.582031 4.25 -1.46875 C 3.976563 -1.34375 3.84375 -1.164063 3.84375 -0.9375 C 3.84375 -0.707031 3.972656 -0.53125 4.234375 -0.40625 C 4.441406 -0.3125 4.707031 -0.265625 5.03125 -0.265625 C 5.507813 -0.265625 5.816406 -0.382813 5.953125 -0.625 C 6.054688 -0.800781 6.101563 -1.101563 6.09375 -1.53125 Z M 3.34375 -5.890625 C 3.582031 -6.503906 3.703125 -6.929688 3.703125 -7.171875 C 3.703125 -7.367188 3.523438 -7.492188 3.171875 -7.546875 L 3.234375 -7.78125 C 3.492188 -7.820313 3.75 -7.8125 4 -7.75 C 4.269531 -7.675781 4.40625 -7.546875 4.40625 -7.359375 C 4.40625 -7.273438 4.332031 -7.0625 4.1875 -6.71875 L 3.90625 -6.046875 C 4.226563 -6.140625 4.476563 -6.25 4.65625 -6.375 C 4.800781 -6.457031 4.925781 -6.5 5.03125 -6.5 C 5.320313 -6.5 5.46875 -6.40625 5.46875 -6.21875 C 5.46875 -6.113281 5.390625 -6.023438 5.234375 -5.953125 C 4.890625 -5.816406 4.375 -5.671875 3.6875 -5.515625 C 3.175781 -4.273438 2.5625 -3 1.84375 -1.6875 C 1.75 -1.5 1.644531 -1.40625 1.53125 -1.40625 C 1.3125 -1.40625 1.203125 -1.550781 1.203125 -1.84375 C 1.203125 -1.914063 1.285156 -2.082031 1.453125 -2.34375 C 2.148438 -3.382813 2.710938 -4.40625 3.140625 -5.40625 C 2.742188 -5.332031 2.414063 -5.296875 2.15625 -5.296875 C 1.71875 -5.296875 1.363281 -5.519531 1.09375 -5.96875 L 1.28125 -6.15625 C 1.53125 -5.882813 1.835938 -5.75 2.203125 -5.75 C 2.535156 -5.75 2.914063 -5.796875 3.34375 -5.890625 Z M 6.828125 -4.921875 C 6.941406 -4.960938 7.109375 -5.015625 7.328125 -5.078125 C 7.523438 -5.140625 7.660156 -5.179688 7.734375 -5.203125 C 7.847656 -5.234375 7.90625 -5.265625 7.90625 -5.296875 C 7.90625 -5.328125 7.859375 -5.375 7.765625 -5.4375 C 7.523438 -5.613281 7.132813 -5.773438 6.59375 -5.921875 L 6.6875 -6.1875 C 7.53125 -6.0625 8.15625 -5.8125 8.5625 -5.4375 C 8.800781 -5.207031 8.921875 -4.96875 8.921875 -4.71875 C 8.921875 -4.519531 8.832031 -4.421875 8.65625 -4.421875 C 8.570313 -4.421875 8.457031 -4.5 8.3125 -4.65625 C 8.21875 -4.769531 8.039063 -4.828125 7.78125 -4.828125 C 7.53125 -4.828125 7.238281 -4.78125 6.90625 -4.6875 Z M 6.828125 -4.921875 "
             style="stroke:none;stroke-width:0" />
          <path
             id="path8765"
             transform="translate(229.55968,146.72)"
             d="M 3.75 0.015625 C 6.269531 -0.390625 7.53125 -1.164063 7.53125 -2.3125 C 7.53125 -2.632813 7.414063 -2.914063 7.1875 -3.15625 C 6.90625 -3.46875 6.535156 -3.625 6.078125 -3.625 C 5.597656 -3.625 5.003906 -3.394531 4.296875 -2.9375 C 3.742188 -2.59375 3.28125 -2.164063 2.90625 -1.65625 C 2.84375 -1.570313 2.738281 -1.53125 2.59375 -1.53125 C 2.488281 -1.53125 2.40625 -1.628906 2.34375 -1.828125 C 2.289063 -1.992188 2.265625 -2.226563 2.265625 -2.53125 C 2.265625 -3.039063 2.347656 -3.65625 2.515625 -4.375 C 2.648438 -4.96875 2.789063 -5.414063 2.9375 -5.71875 L 3.078125 -5.671875 C 3.066406 -5.585938 3.066406 -5.488281 3.078125 -5.375 C 3.097656 -5.1875 3.109375 -5.050781 3.109375 -4.96875 C 3.109375 -4.832031 3.070313 -4.644531 3 -4.40625 C 2.851563 -3.882813 2.78125 -3.3125 2.78125 -2.6875 C 2.78125 -2.601563 2.800781 -2.5625 2.84375 -2.5625 C 2.875 -2.5625 3.007813 -2.644531 3.25 -2.8125 C 4.34375 -3.59375 5.3125 -3.984375 6.15625 -3.984375 C 6.851563 -3.984375 7.398438 -3.769531 7.796875 -3.34375 C 8.078125 -3.019531 8.21875 -2.648438 8.21875 -2.234375 C 8.21875 -0.722656 6.742188 0.128906 3.796875 0.328125 Z M 3.796875 -6.40625 C 4.066406 -6.519531 4.382813 -6.617188 4.75 -6.703125 C 4.320313 -6.828125 3.914063 -7.195313 3.53125 -7.8125 L 3.765625 -7.984375 C 4.265625 -7.421875 4.882813 -7.097656 5.625 -7.015625 C 5.851563 -6.992188 6.035156 -6.925781 6.171875 -6.8125 C 6.265625 -6.726563 6.3125 -6.632813 6.3125 -6.53125 C 6.3125 -6.320313 6.226563 -6.21875 6.0625 -6.21875 C 5.96875 -6.21875 5.84375 -6.234375 5.6875 -6.265625 C 5.5 -6.316406 5.332031 -6.34375 5.1875 -6.34375 C 4.738281 -6.34375 4.304688 -6.269531 3.890625 -6.125 Z M 3.796875 -6.40625 "
             style="stroke:none;stroke-width:0" />
          <path
             id="path8767"
             transform="translate(239.14592,146.72)"
             d="M 6.390625 -5.1875 C 6.378906 -5.519531 6.375 -5.96875 6.375 -6.53125 C 6.375 -6.800781 6.328125 -6.984375 6.234375 -7.078125 C 6.140625 -7.179688 5.972656 -7.253906 5.734375 -7.296875 L 5.765625 -7.5625 C 6.171875 -7.550781 6.492188 -7.492188 6.734375 -7.390625 C 6.941406 -7.304688 7.046875 -7.191406 7.046875 -7.046875 C 7.046875 -6.992188 7.023438 -6.8125 6.984375 -6.5 C 6.941406 -6.289063 6.914063 -5.882813 6.90625 -5.28125 C 7.382813 -5.382813 7.710938 -5.5 7.890625 -5.625 C 8.003906 -5.707031 8.128906 -5.75 8.265625 -5.75 C 8.441406 -5.75 8.5625 -5.722656 8.625 -5.671875 C 8.6875 -5.628906 8.71875 -5.554688 8.71875 -5.453125 C 8.71875 -5.328125 8.640625 -5.234375 8.484375 -5.171875 C 8.117188 -5.023438 7.59375 -4.894531 6.90625 -4.78125 C 6.914063 -3.582031 6.945313 -2.628906 7 -1.921875 C 7.382813 -1.796875 7.878906 -1.578125 8.484375 -1.265625 C 8.910156 -1.046875 9.125 -0.835938 9.125 -0.640625 C 9.125 -0.398438 9.035156 -0.28125 8.859375 -0.28125 C 8.785156 -0.28125 8.675781 -0.335938 8.53125 -0.453125 C 8 -0.878906 7.492188 -1.191406 7.015625 -1.390625 C 7.035156 -1.054688 7.015625 -0.796875 6.953125 -0.609375 C 6.898438 -0.441406 6.800781 -0.296875 6.65625 -0.171875 C 6.394531 0.046875 6.003906 0.15625 5.484375 0.15625 C 5.054688 0.15625 4.679688 0.0546875 4.359375 -0.140625 C 4.015625 -0.347656 3.84375 -0.628906 3.84375 -0.984375 C 3.84375 -1.429688 4.070313 -1.753906 4.53125 -1.953125 C 4.820313 -2.085938 5.160156 -2.15625 5.546875 -2.15625 C 5.828125 -2.15625 6.132813 -2.117188 6.46875 -2.046875 L 6.40625 -4.71875 C 5.832031 -4.644531 5.414063 -4.609375 5.15625 -4.609375 C 4.664063 -4.609375 4.316406 -4.675781 4.109375 -4.8125 C 3.941406 -4.914063 3.785156 -5.109375 3.640625 -5.390625 L 3.875 -5.546875 C 4.03125 -5.335938 4.1875 -5.203125 4.34375 -5.140625 C 4.488281 -5.085938 4.707031 -5.0625 5 -5.0625 C 5.382813 -5.0625 5.847656 -5.101563 6.390625 -5.1875 Z M 6.5 -1.546875 C 6.09375 -1.671875 5.71875 -1.734375 5.375 -1.734375 C 4.613281 -1.734375 4.234375 -1.488281 4.234375 -1 C 4.234375 -0.738281 4.394531 -0.550781 4.71875 -0.4375 C 4.925781 -0.351563 5.15625 -0.3125 5.40625 -0.3125 C 5.84375 -0.3125 6.140625 -0.414063 6.296875 -0.625 C 6.441406 -0.8125 6.507813 -1.117188 6.5 -1.546875 Z M 2.609375 -2.9375 L 2.859375 -2.828125 C 2.503906 -1.859375 2.300781 -1.269531 2.25 -1.0625 C 2.21875 -0.914063 2.203125 -0.742188 2.203125 -0.546875 C 2.203125 -0.421875 2.203125 -0.320313 2.203125 -0.25 C 2.222656 -0.0820313 2.234375 0.0195313 2.234375 0.0625 C 2.234375 0.132813 2.207031 0.191406 2.15625 0.234375 C 2.101563 0.273438 2.054688 0.296875 2.015625 0.296875 C 1.910156 0.296875 1.816406 0.234375 1.734375 0.109375 C 1.429688 -0.460938 1.28125 -1.300781 1.28125 -2.40625 C 1.28125 -3.039063 1.46875 -4.242188 1.84375 -6.015625 C 1.894531 -6.296875 1.921875 -6.488281 1.921875 -6.59375 C 1.921875 -6.875 1.816406 -7.113281 1.609375 -7.3125 L 1.765625 -7.515625 C 2.335938 -7.203125 2.625 -6.835938 2.625 -6.421875 C 2.625 -6.367188 2.550781 -6.144531 2.40625 -5.75 C 1.957031 -4.53125 1.734375 -3.382813 1.734375 -2.3125 C 1.734375 -1.84375 1.765625 -1.484375 1.828125 -1.234375 C 1.910156 -1.429688 2.046875 -1.726563 2.234375 -2.125 C 2.390625 -2.46875 2.515625 -2.738281 2.609375 -2.9375 Z M 7.796875 -7.90625 C 8.171875 -7.75 8.46875 -7.550781 8.6875 -7.3125 C 8.875 -7.101563 8.96875 -6.90625 8.96875 -6.71875 C 8.96875 -6.488281 8.867188 -6.375 8.671875 -6.375 C 8.535156 -6.375 8.429688 -6.476563 8.359375 -6.6875 C 8.234375 -7.0625 7.988281 -7.40625 7.625 -7.71875 Z M 8.625 -8.578125 C 9.039063 -8.421875 9.363281 -8.226563 9.59375 -8 C 9.789063 -7.8125 9.890625 -7.625 9.890625 -7.4375 C 9.890625 -7.195313 9.789063 -7.078125 9.59375 -7.078125 C 9.457031 -7.078125 9.351563 -7.1875 9.28125 -7.40625 C 9.164063 -7.71875 8.894531 -8.039063 8.46875 -8.375 Z M 8.625 -8.578125 "
             style="stroke:none;stroke-width:0" />
          <path
             id="path8769"
             transform="translate(248.73216,146.72)"
             d="M 0.6875 -1.609375 C 1.5 -1.328125 2.109375 -0.945313 2.515625 -0.46875 C 2.703125 -0.238281 2.796875 -0.0078125 2.796875 0.21875 C 2.796875 0.550781 2.640625 0.71875 2.328125 0.71875 C 2.160156 0.71875 2.023438 0.59375 1.921875 0.34375 C 1.648438 -0.34375 1.191406 -0.9375 0.546875 -1.4375 Z M 0.6875 -1.609375 "
             style="stroke:none;stroke-width:0" />
        </g>
        <g
           id="g8775"
           style="fill:rgb(0%,0%,0%);fill-opacity:1;">
          <path
             id="path8773"
             transform="translate(148.712,158.675)"
             d="M 0.875 -0.59375 C 0.84375 -0.4375 0.78125 -0.203125 0.78125 -0.15625 C 0.78125 0.015625 0.921875 0.109375 1.078125 0.109375 C 1.203125 0.109375 1.375 0.03125 1.453125 -0.171875 C 1.46875 -0.203125 1.796875 -1.5625 1.84375 -1.75 C 1.921875 -2.078125 2.109375 -2.765625 2.15625 -3.046875 C 2.203125 -3.171875 2.484375 -3.640625 2.71875 -3.859375 C 2.796875 -3.921875 3.09375 -4.1875 3.515625 -4.1875 C 3.78125 -4.1875 3.921875 -4.0625 3.9375 -4.0625 C 3.640625 -4.015625 3.421875 -3.78125 3.421875 -3.515625 C 3.421875 -3.359375 3.53125 -3.171875 3.796875 -3.171875 C 4.0625 -3.171875 4.34375 -3.40625 4.34375 -3.765625 C 4.34375 -4.109375 4.03125 -4.40625 3.515625 -4.40625 C 2.875 -4.40625 2.4375 -3.921875 2.25 -3.640625 C 2.15625 -4.09375 1.796875 -4.40625 1.328125 -4.40625 C 0.875 -4.40625 0.6875 -4.015625 0.59375 -3.84375 C 0.421875 -3.5 0.296875 -2.90625 0.296875 -2.875 C 0.296875 -2.765625 0.390625 -2.765625 0.40625 -2.765625 C 0.515625 -2.765625 0.515625 -2.78125 0.578125 -3 C 0.75 -3.703125 0.953125 -4.1875 1.3125 -4.1875 C 1.46875 -4.1875 1.609375 -4.109375 1.609375 -3.734375 C 1.609375 -3.515625 1.578125 -3.40625 1.453125 -2.890625 Z M 0.875 -0.59375 "
             style="stroke:none;stroke-width:0" />
        </g>
        <g
           id="g8779"
           style="fill:rgb(0%,0%,0%);fill-opacity:1;">
          <path
             id="path8777"
             transform="translate(156.251,158.675)"
             d="M 7.203125 -4.3125 C 7.203125 -4.53125 7.125 -4.609375 7.0625 -4.609375 C 7.015625 -4.609375 6.921875 -4.578125 6.921875 -4.34375 C 6.875 -3.515625 6.1875 -3.046875 5.53125 -3.046875 C 4.9375 -3.046875 4.453125 -3.40625 3.9375 -3.796875 C 3.40625 -4.21875 2.875 -4.625 2.21875 -4.625 C 1.234375 -4.625 0.546875 -3.75 0.546875 -2.8125 C 0.546875 -2.515625 0.671875 -2.5 0.6875 -2.5 C 0.796875 -2.5 0.828125 -2.703125 0.828125 -2.734375 C 0.875 -3.703125 1.671875 -4.0625 2.21875 -4.0625 C 2.8125 -4.0625 3.296875 -3.71875 3.8125 -3.3125 C 4.34375 -2.90625 4.859375 -2.5 5.53125 -2.5 C 6.515625 -2.5 7.203125 -3.375 7.203125 -4.3125 Z M 0.90625 -0.75 C 0.75 -0.75 0.546875 -0.75 0.546875 -0.5625 C 0.546875 -0.359375 0.734375 -0.359375 0.890625 -0.359375 L 6.84375 -0.359375 C 7.015625 -0.359375 7.203125 -0.359375 7.203125 -0.5625 C 7.203125 -0.75 7.015625 -0.75 6.84375 -0.75 Z M 0.90625 -0.75 "
             style="stroke:none;stroke-width:0" />
        </g>
        <g
           id="g8783"
           style="fill:rgb(0%,0%,0%);fill-opacity:1;">
          <path
             id="path8781"
             transform="translate(166.767,158.675)"
             d="M 2.9375 -6.375 C 2.9375 -6.625 2.9375 -6.640625 2.703125 -6.640625 C 2.078125 -6 1.203125 -6 0.890625 -6 L 0.890625 -5.6875 C 1.09375 -5.6875 1.671875 -5.6875 2.1875 -5.953125 L 2.1875 -0.78125 C 2.1875 -0.421875 2.15625 -0.3125 1.265625 -0.3125 L 0.953125 -0.3125 L 0.953125 0 C 1.296875 -0.03125 2.15625 -0.03125 2.5625 -0.03125 C 2.953125 -0.03125 3.828125 -0.03125 4.171875 0 L 4.171875 -0.3125 L 3.859375 -0.3125 C 2.953125 -0.3125 2.9375 -0.421875 2.9375 -0.78125 Z M 2.9375 -6.375 "
             style="stroke:none;stroke-width:0" />
        </g>
        <g
           id="g8787"
           style="fill:rgb(0%,0%,0%);fill-opacity:1;">
          <path
             id="path8785"
             transform="translate(171.749,158.675)"
             d="M 1.90625 -0.53125 C 1.90625 -0.8125 1.671875 -1.0625 1.390625 -1.0625 C 1.09375 -1.0625 0.859375 -0.8125 0.859375 -0.53125 C 0.859375 -0.234375 1.09375 0 1.390625 0 C 1.671875 0 1.90625 -0.234375 1.90625 -0.53125 Z M 1.90625 -0.53125 "
             style="stroke:none;stroke-width:0" />
        </g>
        <g
           id="g8793"
           style="fill:rgb(0%,0%,0%);fill-opacity:1;">
          <path
             id="path8789"
             transform="translate(174.516,158.675)"
             d="M 2.9375 -6.375 C 2.9375 -6.625 2.9375 -6.640625 2.703125 -6.640625 C 2.078125 -6 1.203125 -6 0.890625 -6 L 0.890625 -5.6875 C 1.09375 -5.6875 1.671875 -5.6875 2.1875 -5.953125 L 2.1875 -0.78125 C 2.1875 -0.421875 2.15625 -0.3125 1.265625 -0.3125 L 0.953125 -0.3125 L 0.953125 0 C 1.296875 -0.03125 2.15625 -0.03125 2.5625 -0.03125 C 2.953125 -0.03125 3.828125 -0.03125 4.171875 0 L 4.171875 -0.3125 L 3.859375 -0.3125 C 2.953125 -0.3125 2.9375 -0.421875 2.9375 -0.78125 Z M 2.9375 -6.375 "
             style="stroke:none;stroke-width:0" />
          <path
             id="path8791"
             transform="translate(179.49732,158.675)"
             d="M 1.3125 -3.265625 L 1.3125 -3.515625 C 1.3125 -6.03125 2.546875 -6.390625 3.0625 -6.390625 C 3.296875 -6.390625 3.71875 -6.328125 3.9375 -5.984375 C 3.78125 -5.984375 3.390625 -5.984375 3.390625 -5.546875 C 3.390625 -5.234375 3.625 -5.078125 3.84375 -5.078125 C 4 -5.078125 4.3125 -5.171875 4.3125 -5.5625 C 4.3125 -6.15625 3.875 -6.640625 3.046875 -6.640625 C 1.765625 -6.640625 0.421875 -5.359375 0.421875 -3.15625 C 0.421875 -0.484375 1.578125 0.21875 2.5 0.21875 C 3.609375 0.21875 4.5625 -0.71875 4.5625 -2.03125 C 4.5625 -3.296875 3.671875 -4.25 2.5625 -4.25 C 1.890625 -4.25 1.515625 -3.75 1.3125 -3.265625 Z M 2.5 -0.0625 C 1.875 -0.0625 1.578125 -0.65625 1.515625 -0.8125 C 1.328125 -1.28125 1.328125 -2.078125 1.328125 -2.25 C 1.328125 -3.03125 1.65625 -4.03125 2.546875 -4.03125 C 2.71875 -4.03125 3.171875 -4.03125 3.484375 -3.40625 C 3.65625 -3.046875 3.65625 -2.53125 3.65625 -2.046875 C 3.65625 -1.5625 3.65625 -1.0625 3.484375 -0.703125 C 3.1875 -0.109375 2.734375 -0.0625 2.5 -0.0625 Z M 2.5 -0.0625 "
             style="stroke:none;stroke-width:0" />
        </g>
      </g>
    </g>
  </g>
</svg>
